SplineFontDB: 3.2
FontName: Spectral-Share-Bold
FullName: Spectral Share Bold
FamilyName: Spectral Share
Weight: Bold
Copyright: Copyright 2017 The Spectral Project Authors (https://github.com/productiontype/Spectral)\n"Fair and Share" tax glyphs by Vector Hasting and shared under CC 4.0 SA-BY.
Version: 2.005; ttfautohint (v1.8.4.7-5d5b)
ItalicAngle: 0
UnderlinePosition: -148
UnderlineWidth: 51
Ascent: 819
Descent: 205
InvalidEm: 0
sfntRevision: 0x00020148
LayerCount: 2
Layer: 0 1 "Back" 1
Layer: 1 1 "Fore" 0
XUID: [1021 508 542950195 10609]
StyleMap: 0x0040
FSType: 0
OS2Version: 4
OS2_WeightWidthSlopeOnly: 0
OS2_UseTypoMetrics: 1
CreationTime: 1492190904
ModificationTime: 1758668834
PfmFamily: 81
TTFWeight: 700
TTFWidth: 5
LineGap: 0
VLineGap: 0
Panose: 0 0 0 0 0 0 0 0 0 0
OS2TypoAscent: 1084
OS2TypoAOffset: 0
OS2TypoDescent: -474
OS2TypoDOffset: 0
OS2TypoLinegap: 0
OS2WinAscent: 1084
OS2WinAOffset: 0
OS2WinDescent: 474
OS2WinDOffset: 0
HheadAscent: 1084
HheadAOffset: 0
HheadDescent: -474
HheadDOffset: 0
OS2SubXSize: 666
OS2SubYSize: 614
OS2SubXOff: 0
OS2SubYOff: 77
OS2SupXSize: 666
OS2SupYSize: 614
OS2SupXOff: 0
OS2SupYOff: 358
OS2StrikeYSize: 51
OS2StrikeYPos: 266
OS2CapHeight: 676
OS2XHeight: 471
OS2Vendor: 'PROD'
OS2CodePages: 20000197.00000000
OS2UnicodeRanges: a000027f.4000e43b.00000000.00000000
Lookup: 1 0 0 "'aalt' Access All Alternates lookup 0" { "'aalt' Access All Alternates lookup 0 subtable"  } ['aalt' ('DFLT' <'dflt' > 'cyrl' <'BGR ' 'SRB ' 'dflt' > 'latn' <'AZE ' 'CAT ' 'CRT ' 'MOL ' 'NLD ' 'ROM ' 'TRK ' 'dflt' > ) ]
Lookup: 3 0 0 "'aalt' Access All Alternates lookup 1" { "'aalt' Access All Alternates lookup 1 subtable"  } ['aalt' ('DFLT' <'dflt' > 'cyrl' <'BGR ' 'SRB ' 'dflt' > 'latn' <'AZE ' 'CAT ' 'CRT ' 'MOL ' 'NLD ' 'ROM ' 'TRK ' 'dflt' > ) ]

StartChar: .notdef
Encoding: 65536 -1 0
Width: 512
GlyphClass: 1
Flags: W
LayerCount: 2
Fore
SplineSet
56 0 m 1,0,-1
 56 768 l 1,1,-1
 456 768 l 1,2,-1
 456 0 l 1,3,-1
 56 0 l 1,0,-1
256 416 m 1,4,-1
 410 735 l 1,5,-1
 102 735 l 1,6,-1
 256 416 l 1,4,-1
87 63 m 1,7,-1
 241 384 l 1,8,-1
 87 705 l 1,9,-1
 87 63 l 1,7,-1
425 63 m 1,10,-1
 425 705 l 1,11,-1
 271 384 l 1,12,-1
 425 63 l 1,10,-1
102 33 m 1,13,-1
 410 33 l 1,14,-1
 256 352 l 1,15,-1
 102 33 l 1,13,-1
EndSplineSet
Validated: 1
EndChar

StartChar: A
Encoding: 65 65 9
Width: 808
GlyphClass: 2
Flags: W
AnchorPoint: "Anchor-3" 401 727 basechar 0
AnchorPoint: "Anchor-2" 666 0 basechar 0
AnchorPoint: "Anchor-0" 347 0 basechar 0
LayerCount: 2
Fore
SplineSet
10 0 m 1,0,-1
 10 16 l 1,1,-1
 71 52 l 5,2,-1
 342 681 l 1,3,-1
 460 681 l 1,4,-1
 728 52 l 1,5,-1
 799 16 l 1,6,-1
 799 0 l 1,7,-1
 430 0 l 1,8,-1
 430 16 l 1,9,-1
 518 54 l 1,10,-1
 453 212 l 1,11,-1
 214 212 l 1,12,-1
 148 54 l 1,13,-1
 232 16 l 1,14,-1
 232 0 l 1,15,-1
 10 0 l 1,0,-1
238 268 m 1,16,-1
 429 268 l 1,17,-1
 334 497 l 1,18,-1
 238 268 l 1,16,-1
EndSplineSet
Substitution2: "'c2sc' Capitals to Small Capitals lookup 59 subtable" a.sc
Substitution2: "Single Substitution lookup 21 subtable" ordfeminine
AlternateSubs2: "'aalt' Access All Alternates lookup 1 subtable" ordfeminine a.sc
Position2: "'cpsp' Capital Spacing lookup 0 subtable" dx=5 dy=0 dh=10 dv=0
EndChar

StartChar: B
Encoding: 66 66 10
Width: 754
GlyphClass: 1
Flags: W
LayerCount: 2
Fore
SplineSet
31 0 m 1,0,-1
 31 16 l 1,1,-1
 122 59 l 1,2,-1
 122 616 l 1,3,-1
 31 659 l 1,4,-1
 31 676 l 1,5,-1
 402 676 l 2,6,7
 479 676 479 676 540 659 c 128,-1,8
 601 642 601 642 636.5 608.5 c 128,-1,9
 672 575 672 575 672 524 c 0,10,11
 672 472 672 472 629.5 428 c 128,-1,12
 587 384 587 384 509 367 c 1,13,14
 613 353 613 353 673.5 308.5 c 128,-1,15
 734 264 734 264 734 197 c 0,16,17
 734 141 734 141 694 96 c 128,-1,18
 654 51 654 51 585 25.5 c 128,-1,19
 516 0 516 0 428 0 c 2,20,-1
 31 0 l 1,0,-1
335 620 m 2,21,-1
 316 620 l 1,22,-1
 316 372 l 1,23,-1
 340 372 l 2,24,25
 405 372 405 372 441 404.5 c 128,-1,26
 477 437 477 437 477 492 c 0,27,28
 477 554 477 554 442 587 c 128,-1,29
 407 620 407 620 335 620 c 2,21,-1
369 326 m 2,30,-1
 316 326 l 1,31,-1
 316 56 l 1,32,-1
 376 56 l 2,33,34
 447 56 447 56 487.5 95 c 128,-1,35
 528 134 528 134 528 194 c 0,36,37
 528 261 528 261 487 293.5 c 128,-1,38
 446 326 446 326 369 326 c 2,30,-1
EndSplineSet
Validated: 1
Substitution2: "'c2sc' Capitals to Small Capitals lookup 59 subtable" b.sc
Substitution2: "'aalt' Access All Alternates lookup 0 subtable" b.sc
Position2: "'cpsp' Capital Spacing lookup 0 subtable" dx=5 dy=0 dh=10 dv=0
EndChar

StartChar: C
Encoding: 67 67 11
Width: 717
GlyphClass: 2
Flags: W
AnchorPoint: "Anchor-3" 402 727 basechar 0
AnchorPoint: "Anchor-0" 406 0 basechar 0
LayerCount: 2
Fore
SplineSet
408 -10 m 0,0,1
 326 -10 326 -10 257.5 15.5 c 128,-1,2
 189 41 189 41 139.5 87 c 128,-1,3
 90 133 90 133 63 194 c 128,-1,4
 36 255 36 255 36 327 c 0,5,6
 36 406 36 406 68.5 471.5 c 128,-1,7
 101 537 101 537 156.5 585 c 128,-1,8
 212 633 212 633 281.5 659.5 c 128,-1,9
 351 686 351 686 425 686 c 0,10,11
 480 686 480 686 516.5 680 c 128,-1,12
 553 674 553 674 581 662.5 c 128,-1,13
 609 651 609 651 639 637 c 1,14,-1
 654 438 l 1,15,-1
 636 438 l 1,16,-1
 515 618 l 1,17,18
 498 626 498 626 479.5 630.5 c 128,-1,19
 461 635 461 635 434 635 c 0,20,21
 380 635 380 635 335.5 597 c 128,-1,22
 291 559 291 559 265.5 489.5 c 128,-1,23
 240 420 240 420 240 324 c 0,24,25
 240 239 240 239 264.5 176.5 c 128,-1,26
 289 114 289 114 332 80 c 128,-1,27
 375 46 375 46 430 46 c 0,28,29
 456 46 456 46 480.5 51 c 128,-1,30
 505 56 505 56 529 70 c 1,31,-1
 643 224 l 1,32,-1
 662 224 l 1,33,-1
 644 45 l 1,34,35
 605 19 605 19 540.5 4.5 c 128,-1,36
 476 -10 476 -10 408 -10 c 0,0,1
EndSplineSet
Validated: 1
Substitution2: "'c2sc' Capitals to Small Capitals lookup 59 subtable" c.sc
Substitution2: "'aalt' Access All Alternates lookup 0 subtable" c.sc
Position2: "'cpsp' Capital Spacing lookup 0 subtable" dx=5 dy=0 dh=10 dv=0
EndChar

StartChar: D
Encoding: 68 68 12
Width: 839
GlyphClass: 2
Flags: W
AnchorPoint: "Anchor-3" 402 727 basechar 0
AnchorPoint: "Anchor-0" 423 0 basechar 0
LayerCount: 2
Fore
SplineSet
31 0 m 1,0,-1
 31 16 l 1,1,-1
 122 59 l 1,2,-1
 122 616 l 1,3,-1
 31 659 l 1,4,-1
 31 676 l 5,5,-1
 412 676 l 2,6,7
 539 676 539 676 627.5 636 c 128,-1,8
 716 596 716 596 762.5 526.5 c 128,-1,9
 809 457 809 457 809 369 c 0,10,11
 809 289 809 289 779.5 222 c 128,-1,12
 750 155 750 155 695 105 c 128,-1,13
 640 55 640 55 566.5 27.5 c 128,-1,14
 493 0 493 0 404 0 c 2,15,-1
 31 0 l 1,0,-1
357 620 m 2,16,-1
 316 620 l 1,17,-1
 316 56 l 1,18,-1
 373 56 l 2,19,20
 489 56 489 56 548.5 132.5 c 128,-1,21
 608 209 608 209 608 337 c 0,22,23
 608 467 608 467 546 543.5 c 128,-1,24
 484 620 484 620 357 620 c 2,16,-1
EndSplineSet
Validated: 1
Substitution2: "'c2sc' Capitals to Small Capitals lookup 59 subtable" d.sc
Substitution2: "'aalt' Access All Alternates lookup 0 subtable" d.sc
Position2: "'cpsp' Capital Spacing lookup 0 subtable" dx=5 dy=0 dh=10 dv=0
EndChar

StartChar: E
Encoding: 69 69 13
Width: 716
GlyphClass: 2
Flags: W
AnchorPoint: "Anchor-3" 375 727 basechar 0
AnchorPoint: "Anchor-2" 583 0 basechar 0
AnchorPoint: "Anchor-0" 375 0 basechar 0
LayerCount: 2
Fore
SplineSet
31 0 m 1,0,-1
 31 16 l 1,1,-1
 122 59 l 1,2,-1
 122 616 l 1,3,-1
 31 659 l 1,4,-1
 31 676 l 1,5,-1
 627 676 l 1,6,-1
 627 498 l 1,7,-1
 610 498 l 1,8,-1
 526 620 l 1,9,-1
 316 620 l 1,10,-1
 316 377 l 1,11,-1
 464 377 l 1,12,-1
 525 467 l 1,13,-1
 542 467 l 1,14,-1
 542 232 l 1,15,-1
 525 232 l 1,16,-1
 464 321 l 1,17,-1
 316 321 l 1,18,-1
 316 56 l 1,19,-1
 548 56 l 1,20,-1
 639 224 l 1,21,-1
 655 224 l 1,22,-1
 655 0 l 1,23,-1
 31 0 l 1,0,-1
EndSplineSet
Validated: 1
Substitution2: "'c2sc' Capitals to Small Capitals lookup 59 subtable" e.sc
Substitution2: "'aalt' Access All Alternates lookup 0 subtable" e.sc
Position2: "'cpsp' Capital Spacing lookup 0 subtable" dx=5 dy=0 dh=10 dv=0
EndChar

StartChar: F
Encoding: 70 70 14
Width: 657
GlyphClass: 1
Flags: W
LayerCount: 2
Fore
SplineSet
31 0 m 1,0,-1
 31 16 l 1,1,-1
 122 59 l 1,2,-1
 122 616 l 1,3,-1
 31 659 l 1,4,-1
 31 676 l 1,5,-1
 616 676 l 1,6,-1
 616 498 l 1,7,-1
 600 498 l 1,8,-1
 526 620 l 1,9,-1
 316 620 l 1,10,-1
 316 372 l 1,11,-1
 454 372 l 1,12,-1
 515 462 l 1,13,-1
 531 462 l 1,14,-1
 531 238 l 1,15,-1
 515 238 l 1,16,-1
 454 326 l 1,17,-1
 316 326 l 1,18,-1
 316 59 l 1,19,-1
 429 16 l 1,20,-1
 429 0 l 1,21,-1
 31 0 l 1,0,-1
EndSplineSet
Validated: 1
Substitution2: "'c2sc' Capitals to Small Capitals lookup 59 subtable" f.sc
Substitution2: "'aalt' Access All Alternates lookup 0 subtable" f.sc
Position2: "'cpsp' Capital Spacing lookup 0 subtable" dx=5 dy=0 dh=10 dv=0
EndChar

StartChar: G
Encoding: 71 71 15
Width: 766
GlyphClass: 2
Flags: W
AnchorPoint: "Anchor-3" 416 727 basechar 0
AnchorPoint: "Anchor-0" 415 0 basechar 0
LayerCount: 2
Fore
SplineSet
399 -10 m 0,0,1
 325 -10 325 -10 260 15.5 c 128,-1,2
 195 41 195 41 145 87 c 128,-1,3
 95 133 95 133 66.5 194 c 128,-1,4
 38 255 38 255 38 327 c 0,5,6
 38 406 38 406 70.5 471.5 c 128,-1,7
 103 537 103 537 159.5 585 c 128,-1,8
 216 633 216 633 287.5 659.5 c 128,-1,9
 359 686 359 686 437 686 c 0,10,11
 492 686 492 686 531 680 c 128,-1,12
 570 674 570 674 601 662.5 c 128,-1,13
 632 651 632 651 662 637 c 1,14,-1
 677 450 l 1,15,-1
 657 450 l 1,16,-1
 539 620 l 1,17,18
 502 637 502 637 446 637 c 0,19,20
 392 637 392 637 345 598.5 c 128,-1,21
 298 560 298 560 270 490 c 128,-1,22
 242 420 242 420 242 324 c 0,23,24
 242 239 242 239 267 176 c 128,-1,25
 292 113 292 113 334.5 78.5 c 128,-1,26
 377 44 377 44 429 44 c 0,27,28
 448 44 448 44 474 47 c 1,29,-1
 474 245 l 1,30,-1
 383 298 l 1,31,-1
 383 314 l 1,32,-1
 750 314 l 1,33,-1
 750 298 l 1,34,-1
 669 245 l 1,35,-1
 669 76 l 1,36,37
 638 50 638 50 591.5 30.5 c 128,-1,38
 545 11 545 11 494 0.5 c 128,-1,39
 443 -10 443 -10 399 -10 c 0,0,1
EndSplineSet
Validated: 1
Substitution2: "'c2sc' Capitals to Small Capitals lookup 59 subtable" g.sc
Substitution2: "'aalt' Access All Alternates lookup 0 subtable" g.sc
Position2: "'cpsp' Capital Spacing lookup 0 subtable" dx=5 dy=0 dh=10 dv=0
EndChar

StartChar: H
Encoding: 72 72 16
Width: 872
GlyphClass: 2
Flags: W
AnchorPoint: "Anchor-3" 436 727 basechar 0
AnchorPoint: "Anchor-0" 436 0 basechar 0
LayerCount: 2
Fore
SplineSet
31 0 m 1,0,-1
 31 16 l 1,1,-1
 122 59 l 1,2,-1
 122 616 l 1,3,-1
 31 659 l 1,4,-1
 31 676 l 1,5,-1
 395 676 l 1,6,-1
 395 659 l 1,7,-1
 316 616 l 1,8,-1
 316 376 l 1,9,-1
 558 376 l 1,10,-1
 558 616 l 1,11,-1
 477 659 l 1,12,-1
 477 676 l 1,13,-1
 842 676 l 1,14,-1
 842 659 l 1,15,-1
 753 616 l 1,16,-1
 753 59 l 1,17,-1
 842 16 l 1,18,-1
 842 0 l 1,19,-1
 477 0 l 1,20,-1
 477 16 l 1,21,-1
 558 59 l 1,22,-1
 558 319 l 1,23,-1
 316 319 l 1,24,-1
 316 59 l 1,25,-1
 395 16 l 1,26,-1
 395 0 l 1,27,-1
 31 0 l 1,0,-1
EndSplineSet
Validated: 1
Substitution2: "'c2sc' Capitals to Small Capitals lookup 59 subtable" h.sc
Substitution2: "'aalt' Access All Alternates lookup 0 subtable" h.sc
Position2: "'cpsp' Capital Spacing lookup 0 subtable" dx=5 dy=0 dh=10 dv=0
EndChar

StartChar: I
Encoding: 73 73 17
Width: 438
GlyphClass: 2
Flags: W
AnchorPoint: "Anchor-3" 219 727 basechar 0
AnchorPoint: "Anchor-2" 247 0 basechar 0
AnchorPoint: "Anchor-0" 219 0 basechar 0
LayerCount: 2
Fore
SplineSet
31 0 m 1,0,-1
 31 16 l 1,1,-1
 122 59 l 1,2,-1
 122 616 l 1,3,-1
 31 659 l 1,4,-1
 31 676 l 1,5,-1
 408 676 l 1,6,-1
 408 659 l 1,7,-1
 316 616 l 1,8,-1
 316 59 l 1,9,-1
 408 16 l 1,10,-1
 408 0 l 1,11,-1
 31 0 l 1,0,-1
EndSplineSet
Validated: 1
Substitution2: "'c2sc' Capitals to Small Capitals lookup 59 subtable" i.sc
Substitution2: "'aalt' Access All Alternates lookup 0 subtable" i.sc
Position2: "'cpsp' Capital Spacing lookup 0 subtable" dx=5 dy=0 dh=10 dv=0
EndChar

StartChar: J
Encoding: 74 74 18
Width: 470
GlyphClass: 2
Flags: W
AnchorPoint: "Anchor-3" 251 727 basechar 0
LayerCount: 2
Fore
SplineSet
68 -177 m 0,0,1
 42 -177 42 -177 26.5 -166 c 128,-1,2
 11 -155 11 -155 11 -136 c 0,3,4
 11 -130 11 -130 14 -120 c 2,5,-1
 31 -53 l 1,6,-1
 127 -74 l 1,7,8
 142 -51 142 -51 148 -23.5 c 128,-1,9
 154 4 154 4 154 50 c 2,10,-1
 154 616 l 1,11,-1
 62 659 l 1,12,-1
 62 676 l 1,13,-1
 439 676 l 1,14,-1
 439 659 l 1,15,-1
 348 616 l 1,16,-1
 348 255 l 2,17,18
 348 180 348 180 320.5 105.5 c 128,-1,19
 293 31 293 31 234 -46 c 256,20,21
 176 -123 176 -123 137 -150 c 128,-1,22
 98 -177 98 -177 68 -177 c 0,0,1
EndSplineSet
Validated: 1
Substitution2: "'c2sc' Capitals to Small Capitals lookup 59 subtable" j.sc
Substitution2: "Single Substitution lookup 13 subtable" Jacute
AlternateSubs2: "'aalt' Access All Alternates lookup 1 subtable" Jacute j.sc
Position2: "'cpsp' Capital Spacing lookup 0 subtable" dx=5 dy=0 dh=10 dv=0
EndChar

StartChar: K
Encoding: 75 75 19
Width: 829
GlyphClass: 2
Flags: W
AnchorPoint: "Anchor-3" 463 727 basechar 0
AnchorPoint: "Anchor-0" 463 0 basechar 0
LayerCount: 2
Fore
SplineSet
31 0 m 1,0,-1
 31 16 l 1,1,-1
 122 59 l 1,2,-1
 122 616 l 1,3,-1
 31 659 l 1,4,-1
 31 676 l 1,5,-1
 408 676 l 1,6,-1
 408 659 l 1,7,-1
 316 616 l 1,8,-1
 316 59 l 1,9,-1
 408 16 l 1,10,-1
 408 0 l 1,11,-1
 31 0 l 1,0,-1
317 338 m 5,12,-1
 596 621 l 1,13,-1
 517 659 l 1,14,-1
 517 676 l 1,15,-1
 775 676 l 1,16,-1
 775 659 l 1,17,-1
 705 628 l 1,18,-1
 488 423 l 1,19,-1
 748 48 l 1,20,-1
 825 16 l 1,21,-1
 825 0 l 1,22,-1
 546 0 l 1,23,-1
 317 338 l 5,12,-1
EndSplineSet
Validated: 1
Substitution2: "'c2sc' Capitals to Small Capitals lookup 59 subtable" k.sc
Substitution2: "'aalt' Access All Alternates lookup 0 subtable" k.sc
Position2: "'cpsp' Capital Spacing lookup 0 subtable" dx=5 dy=0 dh=10 dv=0
EndChar

StartChar: L
Encoding: 76 76 20
Width: 675
GlyphClass: 2
Flags: W
AnchorPoint: "Anchor-3" 219 727 basechar 0
AnchorPoint: "Anchor-2" 532 676 basechar 0
AnchorPoint: "Anchor-1" 553 364 basechar 0
AnchorPoint: "Anchor-0" 371 0 basechar 0
LayerCount: 2
Fore
SplineSet
31 0 m 1,0,-1
 31 16 l 1,1,-1
 122 59 l 1,2,-1
 122 616 l 1,3,-1
 31 659 l 1,4,-1
 31 676 l 1,5,-1
 418 676 l 1,6,-1
 418 659 l 1,7,-1
 316 616 l 1,8,-1
 316 56 l 1,9,-1
 526 56 l 1,10,-1
 618 265 l 1,11,-1
 635 265 l 1,12,-1
 635 0 l 1,13,-1
 31 0 l 1,0,-1
EndSplineSet
Validated: 1
Substitution2: "'c2sc' Capitals to Small Capitals lookup 59 subtable" l.sc
Substitution2: "'aalt' Access All Alternates lookup 0 subtable" l.sc
Position2: "'cpsp' Capital Spacing lookup 0 subtable" dx=5 dy=0 dh=10 dv=0
EndChar

StartChar: M
Encoding: 77 77 21
Width: 1043
GlyphClass: 2
Flags: W
AnchorPoint: "Anchor-0" 472 0 basechar 0
LayerCount: 2
Fore
SplineSet
31 0 m 1,0,-1
 31 16 l 1,1,-1
 122 59 l 1,2,-1
 143 617 l 1,3,-1
 52 659 l 1,4,-1
 52 676 l 1,5,-1
 347 676 l 1,6,-1
 535 243 l 1,7,-1
 717 676 l 1,8,-1
 1005 676 l 1,9,-1
 1005 659 l 1,10,-1
 913 631 l 1,11,-1
 931 59 l 1,12,-1
 1013 16 l 1,13,-1
 1013 0 l 1,14,-1
 654 0 l 1,15,-1
 654 16 l 1,16,-1
 740 58 l 1,17,-1
 731 530 l 1,18,-1
 505 -5 l 1,19,-1
 439 -5 l 1,20,-1
 208 534 l 1,21,-1
 195 58 l 1,22,-1
 288 16 l 1,23,-1
 288 0 l 1,24,-1
 31 0 l 1,0,-1
EndSplineSet
Validated: 1
Substitution2: "'c2sc' Capitals to Small Capitals lookup 59 subtable" m.sc
Substitution2: "'aalt' Access All Alternates lookup 0 subtable" m.sc
Position2: "'cpsp' Capital Spacing lookup 0 subtable" dx=5 dy=0 dh=10 dv=0
EndChar

StartChar: N
Encoding: 78 78 22
Width: 846
GlyphClass: 2
Flags: W
AnchorPoint: "Anchor-3" 425 727 basechar 0
AnchorPoint: "Anchor-0" 424 0 basechar 0
LayerCount: 2
Fore
SplineSet
31 0 m 1,0,-1
 31 16 l 1,1,-1
 122 59 l 1,2,-1
 122 616 l 1,3,-1
 31 659 l 1,4,-1
 31 676 l 1,5,-1
 253 676 l 1,6,-1
 655 254 l 1,7,-1
 655 616 l 1,8,-1
 529 659 l 1,9,-1
 529 676 l 1,10,-1
 816 676 l 1,11,-1
 816 659 l 1,12,-1
 727 616 l 1,13,-1
 727 -5 l 1,14,-1
 646 -5 l 1,15,-1
 194 464 l 1,16,-1
 194 59 l 1,17,-1
 319 16 l 1,18,-1
 319 0 l 1,19,-1
 31 0 l 1,0,-1
EndSplineSet
Validated: 1
Substitution2: "'c2sc' Capitals to Small Capitals lookup 59 subtable" n.sc
Substitution2: "'aalt' Access All Alternates lookup 0 subtable" n.sc
Position2: "'cpsp' Capital Spacing lookup 0 subtable" dx=5 dy=0 dh=10 dv=0
EndChar

StartChar: O
Encoding: 79 79 23
Width: 795
GlyphClass: 2
Flags: W
AnchorPoint: "Anchor-3" 398 727 basechar 0
AnchorPoint: "Anchor-2" 433 0 basechar 0
AnchorPoint: "Anchor-0" 398 0 basechar 0
LayerCount: 2
Fore
SplineSet
397 -10 m 256,0,1
 319 -10 319 -10 253.5 16 c 128,-1,2
 188 42 188 42 139 88.5 c 128,-1,3
 90 135 90 135 63 199 c 128,-1,4
 36 263 36 263 36 338 c 0,5,6
 36 414 36 414 63 477.5 c 128,-1,7
 90 541 90 541 139 587.5 c 128,-1,8
 188 634 188 634 253.5 660 c 128,-1,9
 319 686 319 686 397 686 c 256,10,11
 475 686 475 686 541 660 c 128,-1,12
 607 634 607 634 656.5 587.5 c 128,-1,13
 706 541 706 541 733 477.5 c 128,-1,14
 760 414 760 414 760 338 c 0,15,16
 760 263 760 263 733 199 c 128,-1,17
 706 135 706 135 656.5 88.5 c 128,-1,18
 607 42 607 42 541 16 c 128,-1,19
 475 -10 475 -10 397 -10 c 256,0,1
411 44 m 0,20,21
 454 44 454 44 486.5 77 c 128,-1,22
 519 110 519 110 537 169 c 128,-1,23
 555 228 555 228 555 308 c 0,24,25
 555 406 555 406 532.5 479 c 128,-1,26
 510 552 510 552 472 592.5 c 128,-1,27
 434 633 434 633 386 633 c 0,28,29
 345 633 345 633 312 600.5 c 128,-1,30
 279 568 279 568 260 509.5 c 128,-1,31
 241 451 241 451 241 370 c 0,32,33
 241 272 241 272 264 198.5 c 128,-1,34
 287 125 287 125 325.5 84.5 c 128,-1,35
 364 44 364 44 411 44 c 0,20,21
EndSplineSet
Validated: 1
Substitution2: "'c2sc' Capitals to Small Capitals lookup 59 subtable" o.sc
Substitution2: "Single Substitution lookup 21 subtable" ordmasculine
AlternateSubs2: "'aalt' Access All Alternates lookup 1 subtable" ordmasculine o.sc
Position2: "'cpsp' Capital Spacing lookup 0 subtable" dx=5 dy=0 dh=10 dv=0
EndChar

StartChar: P
Encoding: 80 80 24
Width: 730
GlyphClass: 1
Flags: W
LayerCount: 2
Fore
SplineSet
31 0 m 1,0,-1
 31 16 l 1,1,-1
 122 59 l 1,2,-1
 122 616 l 1,3,-1
 31 659 l 1,4,-1
 31 676 l 1,5,-1
 442 676 l 2,6,7
 523 676 523 676 583 657 c 128,-1,8
 643 638 643 638 676.5 598 c 128,-1,9
 710 558 710 558 710 495 c 0,10,11
 710 437 710 437 671.5 393.5 c 128,-1,12
 633 350 633 350 567.5 326.5 c 128,-1,13
 502 303 502 303 418 303 c 2,14,-1
 316 303 l 1,15,-1
 316 59 l 1,16,-1
 429 16 l 1,17,-1
 429 0 l 1,18,-1
 31 0 l 1,0,-1
335 620 m 2,19,-1
 316 620 l 1,20,-1
 316 349 l 1,21,-1
 342 349 l 2,22,23
 423 349 423 349 469 388 c 128,-1,24
 515 427 515 427 515 484 c 0,25,26
 515 556 515 556 468.5 588 c 128,-1,27
 422 620 422 620 335 620 c 2,19,-1
EndSplineSet
Validated: 1
Substitution2: "'c2sc' Capitals to Small Capitals lookup 59 subtable" p.sc
Substitution2: "'aalt' Access All Alternates lookup 0 subtable" p.sc
Position2: "'cpsp' Capital Spacing lookup 0 subtable" dx=5 dy=0 dh=10 dv=0
EndChar

StartChar: Q
Encoding: 81 81 25
Width: 795
GlyphClass: 1
Flags: W
LayerCount: 2
Fore
SplineSet
706 -163 m 0,0,1
 626 -163 626 -163 535 -128.5 c 128,-1,2
 444 -94 444 -94 327 -4 c 1,3,4
 242 10 242 10 176.5 57.5 c 128,-1,5
 111 105 111 105 73.5 177.5 c 128,-1,6
 36 250 36 250 36 338 c 0,7,8
 36 414 36 414 63 477.5 c 128,-1,9
 90 541 90 541 139 587.5 c 128,-1,10
 188 634 188 634 253.5 660 c 128,-1,11
 319 686 319 686 397 686 c 256,12,13
 475 686 475 686 541 660 c 128,-1,14
 607 634 607 634 656.5 587.5 c 128,-1,15
 706 541 706 541 733 477.5 c 128,-1,16
 760 414 760 414 760 338 c 0,17,18
 760 260 760 260 730.5 194.5 c 128,-1,19
 701 129 701 129 649.5 82 c 128,-1,20
 598 35 598 35 528 11 c 1,21,22
 612 -65 612 -65 668.5 -91 c 128,-1,23
 725 -117 725 -117 766 -117 c 0,24,25
 791 -117 791 -117 807.5 -113.5 c 128,-1,26
 824 -110 824 -110 836 -106 c 1,27,-1
 836 -135 l 1,28,29
 813 -146 813 -146 782.5 -154.5 c 128,-1,30
 752 -163 752 -163 706 -163 c 0,0,1
411 44 m 0,31,32
 454 44 454 44 486.5 77 c 128,-1,33
 519 110 519 110 537 169 c 128,-1,34
 555 228 555 228 555 308 c 0,35,36
 555 406 555 406 532.5 479 c 128,-1,37
 510 552 510 552 472 592.5 c 128,-1,38
 434 633 434 633 386 633 c 0,39,40
 345 633 345 633 312 600.5 c 128,-1,41
 279 568 279 568 260 509.5 c 128,-1,42
 241 451 241 451 241 370 c 0,43,44
 241 272 241 272 264 198.5 c 128,-1,45
 287 125 287 125 325.5 84.5 c 128,-1,46
 364 44 364 44 411 44 c 0,31,32
EndSplineSet
Validated: 1
Substitution2: "'c2sc' Capitals to Small Capitals lookup 59 subtable" q.sc
Substitution2: "'aalt' Access All Alternates lookup 0 subtable" q.sc
Position2: "'cpsp' Capital Spacing lookup 0 subtable" dx=5 dy=0 dh=10 dv=0
EndChar

StartChar: R
Encoding: 82 82 26
Width: 788
GlyphClass: 2
Flags: W
AnchorPoint: "Anchor-3" 366 727 basechar 0
AnchorPoint: "Anchor-0" 438 0 basechar 0
LayerCount: 2
Fore
SplineSet
31 0 m 1,0,-1
 31 16 l 1,1,-1
 122 59 l 1,2,-1
 122 616 l 1,3,-1
 31 659 l 1,4,-1
 31 676 l 1,5,-1
 437 676 l 2,6,7
 545 676 545 676 607 631.5 c 128,-1,8
 669 587 669 587 669 509 c 0,9,10
 669 453 669 453 632 415.5 c 128,-1,11
 595 378 595 378 534 354 c 1,12,-1
 721 60 l 1,13,-1
 799 16 l 1,14,-1
 799 0 l 1,15,-1
 528 0 l 1,16,-1
 345 315 l 1,17,-1
 316 315 l 1,18,-1
 316 60 l 1,19,-1
 393 16 l 1,20,-1
 393 0 l 1,21,-1
 31 0 l 1,0,-1
341 620 m 2,22,-1
 316 620 l 1,23,-1
 316 361 l 5,24,-1
 347 361 l 2,25,26
 408 361 408 361 442.5 396.5 c 128,-1,27
 477 432 477 432 477 490 c 0,28,29
 477 552 477 552 444 586 c 128,-1,30
 411 620 411 620 341 620 c 2,22,-1
EndSplineSet
Validated: 1
Substitution2: "'c2sc' Capitals to Small Capitals lookup 59 subtable" r.sc
Substitution2: "'aalt' Access All Alternates lookup 0 subtable" r.sc
Position2: "'cpsp' Capital Spacing lookup 0 subtable" dx=5 dy=0 dh=10 dv=0
EndChar

StartChar: S
Encoding: 83 83 27
Width: 613
GlyphClass: 2
Flags: W
AnchorPoint: "Anchor-3" 326 727 basechar 0
AnchorPoint: "Anchor-0" 304 0 basechar 0
LayerCount: 2
Fore
SplineSet
283 -10 m 0,0,1
 212 -10 212 -10 155.5 4.5 c 128,-1,2
 99 19 99 19 50 45 c 1,3,-1
 40 222 l 1,4,-1
 59 222 l 1,5,-1
 150 83 l 1,6,7
 172 67 172 67 200.5 56 c 128,-1,8
 229 45 229 45 261 45 c 0,9,10
 313 45 313 45 348.5 67.5 c 128,-1,11
 384 90 384 90 384 139 c 0,12,13
 384 168 384 168 371 188 c 128,-1,14
 358 208 358 208 321.5 228 c 128,-1,15
 285 248 285 248 212 279 c 0,16,17
 139 309 139 309 100 355.5 c 128,-1,18
 61 402 61 402 61 466 c 0,19,20
 61 512 61 512 85 552.5 c 128,-1,21
 109 593 109 593 147.5 622.5 c 128,-1,22
 186 652 186 652 235 669 c 128,-1,23
 284 686 284 686 334 686 c 0,24,25
 389 686 389 686 443 673 c 128,-1,26
 497 660 497 660 537 637 c 1,27,-1
 547 473 l 1,28,-1
 528 473 l 1,29,-1
 443 593 l 1,30,31
 419 610 419 610 395.5 620 c 128,-1,32
 372 630 372 630 342 630 c 0,33,34
 302 630 302 630 276 606 c 128,-1,35
 250 582 250 582 250 540 c 0,36,37
 250 515 250 515 262 496 c 128,-1,38
 274 477 274 477 304.5 458.5 c 128,-1,39
 335 440 335 440 387 417 c 0,40,41
 480 376 480 376 524 328 c 128,-1,42
 568 280 568 280 568 208 c 0,43,44
 568 140 568 140 528.5 91.5 c 128,-1,45
 489 43 489 43 424.5 16.5 c 128,-1,46
 360 -10 360 -10 283 -10 c 0,0,1
EndSplineSet
Validated: 1
Substitution2: "'c2sc' Capitals to Small Capitals lookup 59 subtable" s.sc
Substitution2: "'aalt' Access All Alternates lookup 0 subtable" s.sc
Position2: "'cpsp' Capital Spacing lookup 0 subtable" dx=5 dy=0 dh=10 dv=0
EndChar

StartChar: T
Encoding: 84 84 28
Width: 735
GlyphClass: 2
Flags: W
AnchorPoint: "Anchor-3" 368 727 basechar 0
AnchorPoint: "Anchor-0" 368 0 basechar 0
LayerCount: 2
Fore
SplineSet
158 0 m 1,0,-1
 158 16 l 1,1,-1
 270 59 l 1,2,-1
 270 620 l 1,3,-1
 137 620 l 1,4,-1
 47 439 l 5,5,-1
 31 439 l 1,6,-1
 31 676 l 1,7,-1
 705 676 l 1,8,-1
 705 439 l 1,9,-1
 688 439 l 1,10,-1
 598 620 l 1,11,-1
 465 620 l 1,12,-1
 465 59 l 1,13,-1
 578 16 l 1,14,-1
 578 0 l 1,15,-1
 158 0 l 1,0,-1
EndSplineSet
Validated: 1
Substitution2: "'c2sc' Capitals to Small Capitals lookup 59 subtable" t.sc
Substitution2: "'aalt' Access All Alternates lookup 0 subtable" t.sc
Position2: "'cpsp' Capital Spacing lookup 0 subtable" dx=5 dy=0 dh=10 dv=0
EndChar

StartChar: U
Encoding: 85 85 29
Width: 876
GlyphClass: 2
Flags: W
AnchorPoint: "Anchor-3" 495 727 basechar 0
AnchorPoint: "Anchor-2" 490 0 basechar 0
AnchorPoint: "Anchor-0" 479 0 basechar 0
LayerCount: 2
Fore
SplineSet
445 -10 m 0,0,1
 348 -10 348 -10 275.5 19.5 c 128,-1,2
 203 49 203 49 163 118.5 c 128,-1,3
 123 188 123 188 123 309 c 2,4,-1
 123 616 l 1,5,-1
 31 659 l 1,6,-1
 31 676 l 1,7,-1
 410 676 l 1,8,-1
 410 659 l 1,9,-1
 317 616 l 1,10,-1
 317 297 l 2,11,12
 317 214 317 214 343.5 166 c 128,-1,13
 370 118 370 118 414 98 c 128,-1,14
 458 78 458 78 510 78 c 0,15,16
 555 78 555 78 594.5 96 c 128,-1,17
 634 114 634 114 658 154.5 c 128,-1,18
 682 195 682 195 682 261 c 2,19,-1
 682 618 l 1,20,-1
 590 659 l 1,21,-1
 590 676 l 1,22,-1
 846 676 l 1,23,-1
 846 659 l 1,24,-1
 754 617 l 1,25,-1
 754 309 l 2,26,27
 754 188 754 188 716 118.5 c 128,-1,28
 678 49 678 49 608 19.5 c 128,-1,29
 538 -10 538 -10 445 -10 c 0,0,1
EndSplineSet
Validated: 1
Substitution2: "'c2sc' Capitals to Small Capitals lookup 59 subtable" u.sc
Substitution2: "'aalt' Access All Alternates lookup 0 subtable" u.sc
Position2: "'cpsp' Capital Spacing lookup 0 subtable" dx=5 dy=0 dh=10 dv=0
EndChar

StartChar: V
Encoding: 86 86 30
Width: 798
GlyphClass: 1
Flags: W
LayerCount: 2
Fore
SplineSet
365 -5 m 1,0,-1
 84 616 l 1,1,-1
 9 659 l 1,2,-1
 9 676 l 1,3,-1
 370 676 l 1,4,-1
 370 659 l 1,5,-1
 291 621 l 1,6,-1
 465 234 l 1,7,-1
 474 234 l 1,8,-1
 648 620 l 1,9,-1
 565 659 l 1,10,-1
 565 676 l 1,11,-1
 787 676 l 1,12,-1
 787 659 l 1,13,-1
 727 626 l 1,14,-1
 439 -5 l 1,15,-1
 365 -5 l 1,0,-1
EndSplineSet
Validated: 1
Substitution2: "'c2sc' Capitals to Small Capitals lookup 59 subtable" v.sc
Substitution2: "'aalt' Access All Alternates lookup 0 subtable" v.sc
Position2: "'cpsp' Capital Spacing lookup 0 subtable" dx=5 dy=0 dh=10 dv=0
EndChar

StartChar: W
Encoding: 87 87 31
Width: 1106
GlyphClass: 2
Flags: W
AnchorPoint: "Anchor-3" 621 727 basechar 0
LayerCount: 2
Fore
SplineSet
292 -5 m 1,0,-1
 90 614 l 1,1,-1
 10 659 l 1,2,-1
 10 676 l 1,3,-1
 373 676 l 1,4,-1
 373 659 l 1,5,-1
 287 620 l 1,6,-1
 398 258 l 1,7,-1
 406 258 l 1,8,-1
 583 681 l 1,9,-1
 657 681 l 1,10,-1
 830 258 l 1,11,-1
 838 258 l 1,12,-1
 950 620 l 1,13,-1
 863 659 l 1,14,-1
 863 676 l 1,15,-1
 1097 676 l 1,16,-1
 1097 659 l 1,17,-1
 1028 625 l 1,18,-1
 821 -5 l 1,19,-1
 746 -5 l 1,20,-1
 565 420 l 1,21,-1
 558 420 l 1,22,-1
 367 -5 l 1,23,-1
 292 -5 l 1,0,-1
EndSplineSet
Validated: 1
Substitution2: "'c2sc' Capitals to Small Capitals lookup 59 subtable" w.sc
Substitution2: "'aalt' Access All Alternates lookup 0 subtable" w.sc
Position2: "'cpsp' Capital Spacing lookup 0 subtable" dx=5 dy=0 dh=10 dv=0
EndChar

StartChar: X
Encoding: 88 88 32
Width: 825
GlyphClass: 1
Flags: W
LayerCount: 2
Fore
SplineSet
20 0 m 1,0,-1
 20 16 l 1,1,-1
 105 58 l 1,2,-1
 314 307 l 1,3,-1
 101 618 l 1,4,-1
 31 659 l 1,5,-1
 31 676 l 1,6,-1
 422 676 l 1,7,-1
 422 659 l 1,8,-1
 342 617 l 1,9,-1
 342 612 l 1,10,-1
 466 435 l 1,11,-1
 608 612 l 1,12,-1
 608 616 l 1,13,-1
 526 659 l 1,14,-1
 526 676 l 1,15,-1
 783 676 l 1,16,-1
 783 659 l 1,17,-1
 712 624 l 1,18,-1
 504 382 l 1,19,-1
 730 59 l 1,20,-1
 805 16 l 1,21,-1
 805 0 l 1,22,-1
 409 0 l 1,23,-1
 409 16 l 1,24,-1
 482 56 l 1,25,-1
 482 60 l 1,26,-1
 353 250 l 1,27,-1
 198 62 l 1,28,-1
 195 58 l 1,29,-1
 276 16 l 1,30,-1
 276 0 l 1,31,-1
 20 0 l 1,0,-1
EndSplineSet
Validated: 1
Substitution2: "'c2sc' Capitals to Small Capitals lookup 59 subtable" x.sc
Substitution2: "'aalt' Access All Alternates lookup 0 subtable" x.sc
Position2: "'cpsp' Capital Spacing lookup 0 subtable" dx=5 dy=0 dh=10 dv=0
EndChar

StartChar: Y
Encoding: 89 89 33
Width: 796
GlyphClass: 2
Flags: W
AnchorPoint: "Anchor-3" 453 727 basechar 0
AnchorPoint: "Anchor-0" 402 0 basechar 0
LayerCount: 2
Fore
SplineSet
214 0 m 1,0,-1
 214 16 l 1,1,-1
 305 59 l 1,2,-1
 305 315 l 1,3,-1
 84 616 l 1,4,-1
 10 659 l 1,5,-1
 10 676 l 1,6,-1
 372 676 l 1,7,-1
 372 659 l 1,8,-1
 293 620 l 1,9,-1
 293 615 l 1,10,-1
 468 380 l 1,11,-1
 625 613 l 1,12,-1
 625 617 l 1,13,-1
 543 659 l 1,14,-1
 543 676 l 1,15,-1
 786 676 l 1,16,-1
 786 659 l 1,17,-1
 716 626 l 1,18,-1
 500 315 l 1,19,-1
 500 59 l 1,20,-1
 591 16 l 1,21,-1
 591 0 l 1,22,-1
 214 0 l 1,0,-1
EndSplineSet
Validated: 1
Substitution2: "'c2sc' Capitals to Small Capitals lookup 59 subtable" y.sc
Substitution2: "'aalt' Access All Alternates lookup 0 subtable" y.sc
Position2: "'cpsp' Capital Spacing lookup 0 subtable" dx=5 dy=0 dh=10 dv=0
EndChar

StartChar: Z
Encoding: 90 90 34
Width: 753
GlyphClass: 2
Flags: W
AnchorPoint: "Anchor-3" 378 727 basechar 0
AnchorPoint: "Anchor-0" 378 0 basechar 0
LayerCount: 2
Fore
SplineSet
82 0 m 1,0,-1
 82 38 l 1,1,-1
 432 620 l 1,2,-1
 195 620 l 1,3,-1
 111 452 l 1,4,-1
 94 452 l 1,5,-1
 94 676 l 1,6,-1
 660 676 l 1,7,-1
 660 638 l 1,8,-1
 310 56 l 1,9,-1
 564 56 l 1,10,-1
 655 234 l 1,11,-1
 672 234 l 1,12,-1
 672 0 l 1,13,-1
 82 0 l 1,0,-1
EndSplineSet
Validated: 1
Substitution2: "'c2sc' Capitals to Small Capitals lookup 59 subtable" z.sc
Substitution2: "'aalt' Access All Alternates lookup 0 subtable" z.sc
Position2: "'cpsp' Capital Spacing lookup 0 subtable" dx=5 dy=0 dh=10 dv=0
EndChar

StartChar: Aogonek
Encoding: 260 260 45
Width: 808
GlyphClass: 1
Flags: W
LayerCount: 2
Fore
SplineSet
633 -128 m 0,0,1
 633 -187 633 -187 687 -187 c 0,2,3
 699 -187 699 -187 712.5 -182.5 c 128,-1,4
 726 -178 726 -178 734 -169 c 1,5,-1
 738 -169 l 1,6,-1
 738 -193 l 1,7,8
 712 -246 712 -246 643 -246 c 0,9,10
 596 -246 596 -246 568 -220.5 c 128,-1,11
 540 -195 540 -195 540 -152 c 0,12,13
 540 -116 540 -116 563 -78.5 c 128,-1,14
 586 -41 586 -41 627 0 c 1,15,-1
 430 0 l 1,16,-1
 430 16 l 1,17,-1
 518 54 l 1,18,-1
 453 212 l 1,19,-1
 214 212 l 1,20,-1
 148 54 l 1,21,-1
 232 16 l 1,22,-1
 232 0 l 1,23,-1
 10 0 l 1,24,-1
 10 16 l 1,25,-1
 71 52 l 1,26,-1
 342 681 l 1,27,-1
 460 681 l 1,28,-1
 726 57 l 1,29,-1
 799 16 l 1,30,-1
 799 0 l 1,31,-1
 670 0 l 1,32,33
 653 -33 653 -33 643 -64.5 c 128,-1,34
 633 -96 633 -96 633 -128 c 0,0,1
238 268 m 1,35,-1
 429 268 l 1,36,-1
 334 497 l 1,37,-1
 238 268 l 1,35,-1
EndSplineSet
Validated: 1
Substitution2: "'c2sc' Capitals to Small Capitals lookup 59 subtable" aogonek.sc
Substitution2: "'aalt' Access All Alternates lookup 0 subtable" aogonek.sc
Position2: "'cpsp' Capital Spacing lookup 0 subtable" dx=5 dy=0 dh=10 dv=0
EndChar

StartChar: AE
Encoding: 198 198 59
Width: 1084
GlyphClass: 2
Flags: W
AnchorPoint: "Anchor-3" 594 727 basechar 0
LayerCount: 2
Fore
SplineSet
475 676 m 1,0,-1
 994 676 l 1,1,-1
 994 498 l 1,2,-1
 978 498 l 1,3,-1
 894 620 l 1,4,-1
 684 620 l 1,5,-1
 684 377 l 1,6,-1
 831 377 l 1,7,-1
 893 467 l 1,8,-1
 909 467 l 1,9,-1
 909 232 l 1,10,-1
 893 232 l 1,11,-1
 831 321 l 1,12,-1
 684 321 l 1,13,-1
 684 56 l 1,14,-1
 915 56 l 1,15,-1
 1007 224 l 1,16,-1
 1023 224 l 1,17,-1
 1023 0 l 1,18,-1
 398 0 l 1,19,-1
 398 16 l 1,20,-1
 489 59 l 1,21,-1
 489 232 l 1,22,-1
 268 232 l 1,23,-1
 153 52 l 1,24,-1
 232 16 l 1,25,-1
 232 0 l 1,26,-1
 10 0 l 1,27,-1
 10 16 l 1,28,-1
 77 53 l 1,29,-1
 475 676 l 1,0,-1
304 289 m 1,30,-1
 489 289 l 1,31,-1
 489 579 l 1,32,-1
 304 289 l 1,30,-1
EndSplineSet
Validated: 1
Substitution2: "'c2sc' Capitals to Small Capitals lookup 59 subtable" ae.sc
Substitution2: "'aalt' Access All Alternates lookup 0 subtable" ae.sc
Position2: "'cpsp' Capital Spacing lookup 0 subtable" dx=5 dy=0 dh=10 dv=0
EndChar

StartChar: Ccedilla
Encoding: 199 199 65
Width: 717
GlyphClass: 1
Flags: W
LayerCount: 2
Fore
SplineSet
379 -213 m 0,0,1
 406 -213 406 -213 421 -203.5 c 128,-1,2
 436 -194 436 -194 436 -174 c 0,3,4
 436 -152 436 -152 416.5 -136 c 128,-1,5
 397 -120 397 -120 337 -105 c 1,6,-1
 381 -9 l 1,7,8
 279 -4 279 -4 201 41.5 c 128,-1,9
 123 87 123 87 79.5 161.5 c 128,-1,10
 36 236 36 236 36 327 c 0,11,12
 36 406 36 406 68.5 471.5 c 128,-1,13
 101 537 101 537 156.5 585 c 128,-1,14
 212 633 212 633 281.5 659.5 c 128,-1,15
 351 686 351 686 425 686 c 0,16,17
 480 686 480 686 516.5 680 c 128,-1,18
 553 674 553 674 581 662.5 c 128,-1,19
 609 651 609 651 639 637 c 1,20,-1
 654 438 l 1,21,-1
 636 438 l 1,22,-1
 515 618 l 1,23,24
 498 626 498 626 479.5 630.5 c 128,-1,25
 461 635 461 635 434 635 c 0,26,27
 380 635 380 635 335.5 597 c 128,-1,28
 291 559 291 559 265.5 489.5 c 128,-1,29
 240 420 240 420 240 324 c 0,30,31
 240 239 240 239 264.5 176.5 c 128,-1,32
 289 114 289 114 332 80 c 128,-1,33
 375 46 375 46 430 46 c 0,34,35
 456 46 456 46 480.5 51 c 128,-1,36
 505 56 505 56 529 70 c 1,37,-1
 643 224 l 1,38,-1
 662 224 l 1,39,-1
 644 45 l 1,40,41
 607 20 607 20 546 6 c 128,-1,42
 485 -8 485 -8 421 -10 c 1,43,-1
 410 -36 l 1,44,45
 469 -53 469 -53 492 -79.5 c 128,-1,46
 515 -106 515 -106 515 -146 c 0,47,48
 515 -190 515 -190 484 -218 c 128,-1,49
 453 -246 453 -246 402 -246 c 0,50,51
 376 -246 376 -246 356.5 -241 c 128,-1,52
 337 -236 337 -236 321 -225 c 1,53,-1
 321 -202 l 1,54,-1
 325 -202 l 1,55,56
 336 -208 336 -208 351.5 -210.5 c 128,-1,57
 367 -213 367 -213 379 -213 c 0,0,1
EndSplineSet
Validated: 1
Substitution2: "'c2sc' Capitals to Small Capitals lookup 59 subtable" ccedilla.sc
Substitution2: "'aalt' Access All Alternates lookup 0 subtable" ccedilla.sc
Position2: "'cpsp' Capital Spacing lookup 0 subtable" dx=5 dy=0 dh=10 dv=0
EndChar

StartChar: Ccedillaacute
Encoding: 7688 7688 66
Width: 717
GlyphClass: 1
Flags: W
LayerCount: 2
Fore
SplineSet
387 727 m 1,0,-1
 460 883 l 1,1,-1
 609 883 l 1,2,-1
 609 850 l 1,3,-1
 417 727 l 1,4,-1
 387 727 l 1,0,-1
402 -246 m 0,5,6
 376 -246 376 -246 356.5 -241 c 128,-1,7
 337 -236 337 -236 321 -225 c 1,8,-1
 321 -202 l 1,9,-1
 325 -202 l 1,10,11
 336 -208 336 -208 351.5 -210.5 c 128,-1,12
 367 -213 367 -213 379 -213 c 0,13,14
 406 -213 406 -213 421 -203.5 c 128,-1,15
 436 -194 436 -194 436 -174 c 0,16,17
 436 -152 436 -152 416.5 -136 c 128,-1,18
 397 -120 397 -120 337 -105 c 1,19,-1
 381 -9 l 1,20,21
 279 -4 279 -4 201 41.5 c 128,-1,22
 123 87 123 87 79.5 161.5 c 128,-1,23
 36 236 36 236 36 327 c 0,24,25
 36 406 36 406 68.5 471.5 c 128,-1,26
 101 537 101 537 156.5 585 c 128,-1,27
 212 633 212 633 281.5 659.5 c 128,-1,28
 351 686 351 686 425 686 c 0,29,30
 480 686 480 686 516.5 680 c 128,-1,31
 553 674 553 674 581 662.5 c 128,-1,32
 609 651 609 651 639 637 c 1,33,-1
 654 438 l 1,34,-1
 636 438 l 1,35,-1
 515 618 l 1,36,37
 498 626 498 626 479.5 630.5 c 128,-1,38
 461 635 461 635 434 635 c 0,39,40
 380 635 380 635 335.5 597 c 128,-1,41
 291 559 291 559 265.5 489.5 c 128,-1,42
 240 420 240 420 240 324 c 0,43,44
 240 239 240 239 264.5 176.5 c 128,-1,45
 289 114 289 114 332 80 c 128,-1,46
 375 46 375 46 430 46 c 0,47,48
 456 46 456 46 480.5 51 c 128,-1,49
 505 56 505 56 529 70 c 1,50,-1
 643 224 l 1,51,-1
 662 224 l 1,52,-1
 644 45 l 1,53,54
 607 20 607 20 546 6 c 128,-1,55
 485 -8 485 -8 421 -10 c 1,56,-1
 410 -36 l 1,57,58
 469 -53 469 -53 492 -79.5 c 128,-1,59
 515 -106 515 -106 515 -146 c 0,60,61
 515 -190 515 -190 483.5 -218 c 128,-1,62
 452 -246 452 -246 402 -246 c 0,5,6
EndSplineSet
Validated: 1
Substitution2: "'c2sc' Capitals to Small Capitals lookup 59 subtable" ccedillaacute.sc
Substitution2: "'aalt' Access All Alternates lookup 0 subtable" ccedillaacute.sc
Position2: "'cpsp' Capital Spacing lookup 0 subtable" dx=5 dy=0 dh=10 dv=0
EndChar

StartChar: Dcroat
Encoding: 272 272 68
Width: 839
GlyphClass: 1
Flags: W
LayerCount: 2
Fore
SplineSet
31 0 m 1,0,-1
 31 16 l 1,1,-1
 122 59 l 1,2,-1
 122 323 l 1,3,-1
 31 323 l 1,4,-1
 31 379 l 1,5,-1
 122 379 l 1,6,-1
 122 616 l 1,7,-1
 31 659 l 1,8,-1
 31 676 l 1,9,-1
 412 676 l 2,10,11
 539 676 539 676 627.5 636 c 128,-1,12
 716 596 716 596 762.5 526.5 c 128,-1,13
 809 457 809 457 809 369 c 0,14,15
 809 289 809 289 779.5 222 c 128,-1,16
 750 155 750 155 695 105 c 128,-1,17
 640 55 640 55 566.5 27.5 c 128,-1,18
 493 0 493 0 404 0 c 2,19,-1
 31 0 l 1,0,-1
456 323 m 1,20,-1
 316 323 l 1,21,-1
 316 56 l 1,22,-1
 373 56 l 2,23,24
 489 56 489 56 548.5 132.5 c 128,-1,25
 608 209 608 209 608 337 c 0,26,27
 608 467 608 467 546 543.5 c 128,-1,28
 484 620 484 620 357 620 c 2,29,-1
 316 620 l 1,30,-1
 316 379 l 1,31,-1
 456 379 l 1,32,-1
 456 323 l 1,20,-1
EndSplineSet
Validated: 1
Substitution2: "'c2sc' Capitals to Small Capitals lookup 59 subtable" dcroat.sc
Substitution2: "'aalt' Access All Alternates lookup 0 subtable" dcroat.sc
Position2: "'cpsp' Capital Spacing lookup 0 subtable" dx=5 dy=0 dh=10 dv=0
EndChar

StartChar: Eogonek
Encoding: 280 280 80
Width: 716
GlyphClass: 1
Flags: W
LayerCount: 2
Fore
SplineSet
31 0 m 1,0,-1
 31 16 l 1,1,-1
 122 59 l 1,2,-1
 122 616 l 1,3,-1
 31 659 l 1,4,-1
 31 676 l 1,5,-1
 627 676 l 1,6,-1
 627 498 l 1,7,-1
 610 498 l 1,8,-1
 526 620 l 1,9,-1
 316 620 l 1,10,-1
 316 377 l 1,11,-1
 464 377 l 1,12,-1
 525 467 l 1,13,-1
 542 467 l 1,14,-1
 542 232 l 1,15,-1
 525 232 l 1,16,-1
 464 321 l 1,17,-1
 316 321 l 1,18,-1
 316 56 l 1,19,-1
 548 56 l 1,20,-1
 639 224 l 1,21,-1
 655 224 l 1,22,-1
 655 0 l 1,23,-1
 587 0 l 1,24,25
 570 -33 570 -33 560 -64.5 c 128,-1,26
 550 -96 550 -96 550 -128 c 0,27,28
 550 -187 550 -187 604 -187 c 0,29,30
 616 -187 616 -187 629.5 -182.5 c 128,-1,31
 643 -178 643 -178 651 -169 c 1,32,-1
 655 -169 l 1,33,-1
 655 -193 l 1,34,35
 629 -246 629 -246 560 -246 c 0,36,37
 513 -246 513 -246 485 -220.5 c 128,-1,38
 457 -195 457 -195 457 -152 c 0,39,40
 457 -116 457 -116 480 -78.5 c 128,-1,41
 503 -41 503 -41 544 0 c 1,42,-1
 31 0 l 1,0,-1
EndSplineSet
Validated: 1
Substitution2: "'c2sc' Capitals to Small Capitals lookup 59 subtable" eogonek.sc
Substitution2: "'aalt' Access All Alternates lookup 0 subtable" eogonek.sc
Position2: "'cpsp' Capital Spacing lookup 0 subtable" dx=5 dy=0 dh=10 dv=0
EndChar

StartChar: Ecedillabreve
Encoding: 7708 7708 92
Width: 716
GlyphClass: 1
Flags: W
LayerCount: 2
Fore
SplineSet
375 727 m 0,0,1
 296 727 296 727 258 765.5 c 128,-1,2
 220 804 220 804 203 883 c 1,3,-1
 231 883 l 1,4,5
 251 839 251 839 289.5 826.5 c 128,-1,6
 328 814 328 814 375 814 c 256,7,8
 422 814 422 814 459.5 826 c 128,-1,9
 497 838 497 838 518 883 c 1,10,-1
 547 883 l 1,11,12
 511 727 511 727 375 727 c 0,0,1
31 0 m 1,13,-1
 31 16 l 1,14,-1
 122 59 l 1,15,-1
 122 616 l 1,16,-1
 31 659 l 1,17,-1
 31 676 l 1,18,-1
 627 676 l 1,19,-1
 627 498 l 1,20,-1
 610 498 l 1,21,-1
 526 620 l 1,22,-1
 316 620 l 1,23,-1
 316 377 l 1,24,-1
 464 377 l 1,25,-1
 525 467 l 1,26,-1
 542 467 l 1,27,-1
 542 232 l 1,28,-1
 525 232 l 1,29,-1
 464 321 l 1,30,-1
 316 321 l 1,31,-1
 316 56 l 1,32,-1
 548 56 l 1,33,-1
 639 224 l 1,34,-1
 655 224 l 1,35,-1
 655 0 l 1,36,-1
 395 0 l 1,37,-1
 379 -36 l 1,38,39
 438 -53 438 -53 461 -79.5 c 128,-1,40
 484 -106 484 -106 484 -146 c 0,41,42
 484 -190 484 -190 453 -218 c 128,-1,43
 422 -246 422 -246 372 -246 c 0,44,45
 346 -246 346 -246 326 -241 c 128,-1,46
 306 -236 306 -236 290 -225 c 1,47,-1
 290 -202 l 1,48,-1
 294 -202 l 1,49,50
 305 -208 305 -208 320.5 -210.5 c 128,-1,51
 336 -213 336 -213 348 -213 c 0,52,53
 375 -213 375 -213 390.5 -203.5 c 128,-1,54
 406 -194 406 -194 406 -174 c 0,55,56
 406 -152 406 -152 386.5 -136 c 128,-1,57
 367 -120 367 -120 306 -105 c 1,58,-1
 354 0 l 1,59,-1
 31 0 l 1,13,-1
EndSplineSet
Validated: 1
Substitution2: "'c2sc' Capitals to Small Capitals lookup 59 subtable" ecedillabreve.sc
Substitution2: "'aalt' Access All Alternates lookup 0 subtable" ecedillabreve.sc
Position2: "'cpsp' Capital Spacing lookup 0 subtable" dx=5 dy=0 dh=10 dv=0
EndChar

StartChar: Hbar
Encoding: 294 294 100
Width: 872
GlyphClass: 1
Flags: W
LayerCount: 2
Fore
SplineSet
31 0 m 1,0,-1
 31 16 l 1,1,-1
 122 59 l 1,2,-1
 122 480 l 1,3,-1
 31 480 l 1,4,-1
 31 537 l 1,5,-1
 122 537 l 1,6,-1
 122 616 l 1,7,-1
 31 659 l 1,8,-1
 31 676 l 1,9,-1
 395 676 l 1,10,-1
 395 659 l 1,11,-1
 316 616 l 1,12,-1
 316 537 l 1,13,-1
 558 537 l 1,14,-1
 558 616 l 1,15,-1
 477 659 l 1,16,-1
 477 676 l 1,17,-1
 842 676 l 1,18,-1
 842 659 l 1,19,-1
 753 616 l 1,20,-1
 753 537 l 1,21,-1
 842 537 l 1,22,-1
 842 480 l 1,23,-1
 753 480 l 1,24,-1
 753 59 l 1,25,-1
 842 16 l 1,26,-1
 842 0 l 1,27,-1
 477 0 l 1,28,-1
 477 16 l 1,29,-1
 558 59 l 1,30,-1
 558 319 l 1,31,-1
 316 319 l 1,32,-1
 316 59 l 1,33,-1
 395 16 l 1,34,-1
 395 0 l 1,35,-1
 31 0 l 1,0,-1
316 376 m 1,36,-1
 558 376 l 1,37,-1
 558 480 l 1,38,-1
 316 480 l 1,39,-1
 316 376 l 1,36,-1
EndSplineSet
Validated: 1
Substitution2: "'c2sc' Capitals to Small Capitals lookup 59 subtable" hbar.sc
Substitution2: "'aalt' Access All Alternates lookup 0 subtable" hbar.sc
Position2: "'cpsp' Capital Spacing lookup 0 subtable" dx=5 dy=0 dh=10 dv=0
EndChar

StartChar: Iogonek
Encoding: 302 302 111
Width: 438
GlyphClass: 1
Flags: W
LayerCount: 2
Fore
SplineSet
31 0 m 1,0,-1
 31 16 l 1,1,-1
 122 59 l 1,2,-1
 122 616 l 1,3,-1
 31 659 l 1,4,-1
 31 676 l 1,5,-1
 408 676 l 1,6,-1
 408 659 l 1,7,-1
 316 616 l 1,8,-1
 316 59 l 1,9,-1
 408 16 l 1,10,-1
 408 0 l 1,11,-1
 251 0 l 1,12,13
 234 -33 234 -33 224 -64.5 c 128,-1,14
 214 -96 214 -96 214 -128 c 0,15,16
 214 -187 214 -187 268 -187 c 0,17,18
 280 -187 280 -187 293.5 -182.5 c 128,-1,19
 307 -178 307 -178 315 -169 c 1,20,-1
 319 -169 l 1,21,-1
 319 -193 l 1,22,23
 293 -246 293 -246 224 -246 c 0,24,25
 177 -246 177 -246 149 -220.5 c 128,-1,26
 121 -195 121 -195 121 -152 c 0,27,28
 121 -116 121 -116 144 -78.5 c 128,-1,29
 167 -41 167 -41 208 0 c 1,30,-1
 31 0 l 1,0,-1
EndSplineSet
Validated: 1
Substitution2: "'c2sc' Capitals to Small Capitals lookup 59 subtable" iogonek.sc
Substitution2: "'aalt' Access All Alternates lookup 0 subtable" iogonek.sc
Position2: "'cpsp' Capital Spacing lookup 0 subtable" dx=5 dy=0 dh=10 dv=0
EndChar

StartChar: Lslash
Encoding: 321 321 124
Width: 675
GlyphClass: 1
Flags: W
LayerCount: 2
Fore
SplineSet
31 0 m 1,0,-1
 31 16 l 1,1,-1
 122 59 l 1,2,-1
 122 203 l 1,3,-1
 31 137 l 1,4,-1
 31 208 l 1,5,-1
 122 273 l 1,6,-1
 122 616 l 1,7,-1
 31 659 l 1,8,-1
 31 676 l 1,9,-1
 418 676 l 1,10,-1
 418 659 l 1,11,-1
 316 616 l 1,12,-1
 316 385 l 1,13,-1
 458 481 l 1,14,-1
 458 411 l 1,15,-1
 316 313 l 1,16,-1
 316 56 l 1,17,-1
 526 56 l 1,18,-1
 618 265 l 1,19,-1
 635 265 l 1,20,-1
 635 0 l 1,21,-1
 31 0 l 1,0,-1
EndSplineSet
Validated: 1
Substitution2: "'c2sc' Capitals to Small Capitals lookup 59 subtable" lslash.sc
Substitution2: "'aalt' Access All Alternates lookup 0 subtable" lslash.sc
Position2: "'cpsp' Capital Spacing lookup 0 subtable" dx=5 dy=0 dh=10 dv=0
EndChar

StartChar: Oogonek
Encoding: 490 490 145
Width: 795
GlyphClass: 1
Flags: W
LayerCount: 2
Fore
SplineSet
411 -246 m 0,0,1
 364 -246 364 -246 335.5 -220.5 c 128,-1,2
 307 -195 307 -195 307 -152 c 0,3,4
 307 -118 307 -118 327.5 -83 c 128,-1,5
 348 -48 348 -48 384 -10 c 1,6,7
 285 -7 285 -7 206 39 c 128,-1,8
 127 85 127 85 81.5 162.5 c 128,-1,9
 36 240 36 240 36 338 c 0,10,11
 36 414 36 414 63 477.5 c 128,-1,12
 90 541 90 541 139 587.5 c 128,-1,13
 188 634 188 634 253.5 660 c 128,-1,14
 319 686 319 686 397 686 c 256,15,16
 475 686 475 686 541 660 c 128,-1,17
 607 634 607 634 656.5 587.5 c 128,-1,18
 706 541 706 541 733 477.5 c 128,-1,19
 760 414 760 414 760 338 c 0,20,21
 760 244 760 244 717.5 168 c 128,-1,22
 675 92 675 92 601 45.5 c 128,-1,23
 527 -1 527 -1 432 -9 c 1,24,25
 418 -39 418 -39 409 -68.5 c 128,-1,26
 400 -98 400 -98 400 -128 c 0,27,28
 400 -187 400 -187 455 -187 c 0,29,30
 467 -187 467 -187 480.5 -182.5 c 128,-1,31
 494 -178 494 -178 502 -169 c 1,32,-1
 506 -169 l 1,33,-1
 506 -193 l 1,34,35
 481 -246 481 -246 411 -246 c 0,0,1
411 44 m 0,36,37
 454 44 454 44 486.5 77 c 128,-1,38
 519 110 519 110 537 169 c 128,-1,39
 555 228 555 228 555 308 c 0,40,41
 555 406 555 406 532.5 479 c 128,-1,42
 510 552 510 552 472 592.5 c 128,-1,43
 434 633 434 633 386 633 c 0,44,45
 345 633 345 633 312 600.5 c 128,-1,46
 279 568 279 568 260 509.5 c 128,-1,47
 241 451 241 451 241 370 c 0,48,49
 241 272 241 272 264 198.5 c 128,-1,50
 287 125 287 125 325.5 84.5 c 128,-1,51
 364 44 364 44 411 44 c 0,36,37
EndSplineSet
Validated: 1
Substitution2: "'c2sc' Capitals to Small Capitals lookup 59 subtable" oogonek.sc
Substitution2: "'aalt' Access All Alternates lookup 0 subtable" oogonek.sc
Position2: "'cpsp' Capital Spacing lookup 0 subtable" dx=5 dy=0 dh=10 dv=0
EndChar

StartChar: Oslash
Encoding: 216 216 161
Width: 795
GlyphClass: 2
Flags: W
AnchorPoint: "Anchor-3" 398 727 basechar 0
LayerCount: 2
Fore
SplineSet
36 -10 m 1,0,-1
 133 95 l 1,1,2
 87 141 87 141 61.5 203 c 128,-1,3
 36 265 36 265 36 338 c 0,4,5
 36 414 36 414 63 477.5 c 128,-1,6
 90 541 90 541 139 587.5 c 128,-1,7
 188 634 188 634 253.5 660 c 128,-1,8
 319 686 319 686 397 686 c 0,9,10
 460 686 460 686 515.5 668.5 c 128,-1,11
 571 651 571 651 616 620 c 1,12,-1
 678 686 l 1,13,-1
 760 686 l 1,14,-1
 663 581 l 1,15,16
 709 535 709 535 734.5 473 c 128,-1,17
 760 411 760 411 760 338 c 0,18,19
 760 263 760 263 733 199 c 128,-1,20
 706 135 706 135 656.5 88.5 c 128,-1,21
 607 42 607 42 541 16 c 128,-1,22
 475 -10 475 -10 397 -10 c 0,23,24
 335 -10 335 -10 279 7.5 c 128,-1,25
 223 25 223 25 179 56 c 1,26,-1
 118 -10 l 1,27,-1
 36 -10 l 1,0,-1
241 370 m 0,28,29
 241 331 241 331 245 295 c 128,-1,30
 249 259 249 259 256 228 c 1,31,-1
 520 515 l 1,32,33
 496 571 496 571 462 602 c 128,-1,34
 428 633 428 633 386 633 c 0,35,36
 345 633 345 633 312 600.5 c 128,-1,37
 279 568 279 568 260 509.5 c 128,-1,38
 241 451 241 451 241 370 c 0,28,29
411 44 m 0,39,40
 454 44 454 44 486.5 77 c 128,-1,41
 519 110 519 110 537 169 c 128,-1,42
 555 228 555 228 555 308 c 0,43,44
 555 384 555 384 541 449 c 1,45,-1
 276 162 l 1,46,47
 300 107 300 107 335 75.5 c 128,-1,48
 370 44 370 44 411 44 c 0,39,40
EndSplineSet
Validated: 1
Substitution2: "'c2sc' Capitals to Small Capitals lookup 59 subtable" oslash.sc
Substitution2: "'aalt' Access All Alternates lookup 0 subtable" oslash.sc
Position2: "'cpsp' Capital Spacing lookup 0 subtable" dx=5 dy=0 dh=10 dv=0
EndChar

StartChar: Ohorn
Encoding: 416 416 163
Width: 795
GlyphClass: 2
Flags: W
AnchorPoint: "Anchor-3" 398 727 basechar 0
AnchorPoint: "Anchor-0" 398 0 basechar 0
LayerCount: 2
Fore
SplineSet
397 -10 m 256,0,1
 319 -10 319 -10 253.5 16 c 128,-1,2
 188 42 188 42 139 88.5 c 128,-1,3
 90 135 90 135 63 199 c 128,-1,4
 36 263 36 263 36 338 c 0,5,6
 36 414 36 414 63 477.5 c 128,-1,7
 90 541 90 541 139 587.5 c 128,-1,8
 188 634 188 634 253.5 660 c 128,-1,9
 319 686 319 686 397 686 c 0,10,11
 462 686 462 686 519 668 c 1,12,-1
 589 668 l 2,13,14
 635 668 635 668 658 679 c 1,15,-1
 658 771 l 1,16,-1
 719 771 l 2,17,18
 743 771 743 771 755.5 759.5 c 128,-1,19
 768 748 768 748 768 718 c 0,20,21
 768 677 768 677 738 652.5 c 128,-1,22
 708 628 708 628 638 628 c 2,23,-1
 605 628 l 1,24,25
 677 582 677 582 718.5 506.5 c 128,-1,26
 760 431 760 431 760 338 c 0,27,28
 760 263 760 263 733 199 c 128,-1,29
 706 135 706 135 656.5 88.5 c 128,-1,30
 607 42 607 42 541 16 c 128,-1,31
 475 -10 475 -10 397 -10 c 256,0,1
411 44 m 0,32,33
 454 44 454 44 486.5 77 c 128,-1,34
 519 110 519 110 537 169 c 128,-1,35
 555 228 555 228 555 308 c 0,36,37
 555 406 555 406 532.5 479 c 128,-1,38
 510 552 510 552 472 592.5 c 128,-1,39
 434 633 434 633 386 633 c 0,40,41
 345 633 345 633 312 600.5 c 128,-1,42
 279 568 279 568 260 509.5 c 128,-1,43
 241 451 241 451 241 370 c 0,44,45
 241 272 241 272 264 198.5 c 128,-1,46
 287 125 287 125 325.5 84.5 c 128,-1,47
 364 44 364 44 411 44 c 0,32,33
EndSplineSet
Validated: 1
Substitution2: "'c2sc' Capitals to Small Capitals lookup 59 subtable" ohorn.sc
Substitution2: "'aalt' Access All Alternates lookup 0 subtable" ohorn.sc
Position2: "'cpsp' Capital Spacing lookup 0 subtable" dx=5 dy=0 dh=10 dv=0
EndChar

StartChar: OE
Encoding: 338 338 169
Width: 1084
GlyphClass: 1
Flags: W
LayerCount: 2
Fore
SplineSet
433 0 m 2,0,1
 307 0 307 0 218 39 c 128,-1,2
 129 78 129 78 82.5 150 c 128,-1,3
 36 222 36 222 36 323 c 0,4,5
 36 433 36 433 88 511.5 c 128,-1,6
 140 590 140 590 232 633 c 128,-1,7
 324 676 324 676 440 676 c 2,8,-1
 1015 676 l 1,9,-1
 1015 498 l 1,10,-1
 998 498 l 1,11,-1
 914 620 l 1,12,-1
 705 620 l 1,13,-1
 705 377 l 1,14,-1
 852 377 l 1,15,-1
 913 467 l 1,16,-1
 930 467 l 1,17,-1
 930 232 l 1,18,-1
 913 232 l 1,19,-1
 852 321 l 1,20,-1
 705 321 l 1,21,-1
 705 56 l 1,22,-1
 936 56 l 1,23,-1
 1027 224 l 1,24,-1
 1043 224 l 1,25,-1
 1043 0 l 1,26,-1
 433 0 l 2,0,1
474 56 m 2,27,-1
 510 56 l 1,28,-1
 510 620 l 1,29,-1
 465 620 l 2,30,31
 353 620 353 620 295 546.5 c 128,-1,32
 237 473 237 473 237 349 c 0,33,34
 237 215 237 215 295.5 135.5 c 128,-1,35
 354 56 354 56 474 56 c 2,27,-1
EndSplineSet
Validated: 1
Substitution2: "'c2sc' Capitals to Small Capitals lookup 59 subtable" oe.sc
Substitution2: "'aalt' Access All Alternates lookup 0 subtable" oe.sc
Position2: "'cpsp' Capital Spacing lookup 0 subtable" dx=5 dy=0 dh=10 dv=0
EndChar

StartChar: Scedilla
Encoding: 350 350 181
Width: 613
GlyphClass: 1
Flags: W
LayerCount: 2
Fore
SplineSet
301 -246 m 0,0,1
 275 -246 275 -246 255.5 -241 c 128,-1,2
 236 -236 236 -236 219 -225 c 1,3,-1
 219 -202 l 1,4,-1
 223 -202 l 1,5,6
 234 -208 234 -208 249.5 -210.5 c 128,-1,7
 265 -213 265 -213 278 -213 c 0,8,9
 305 -213 305 -213 320 -203.5 c 128,-1,10
 335 -194 335 -194 335 -174 c 0,11,12
 335 -152 335 -152 315.5 -136 c 128,-1,13
 296 -120 296 -120 236 -105 c 1,14,-1
 279 -10 l 1,15,16
 210 -10 210 -10 154 5 c 128,-1,17
 98 20 98 20 50 45 c 1,18,-1
 40 222 l 1,19,-1
 59 222 l 1,20,-1
 150 83 l 1,21,22
 172 67 172 67 200.5 56 c 128,-1,23
 229 45 229 45 261 45 c 0,24,25
 313 45 313 45 348.5 67.5 c 128,-1,26
 384 90 384 90 384 139 c 0,27,28
 384 168 384 168 371 188 c 128,-1,29
 358 208 358 208 321.5 228.5 c 128,-1,30
 285 249 285 249 212 279 c 256,31,32
 139 309 139 309 100 356 c 128,-1,33
 61 403 61 403 61 466 c 0,34,35
 61 512 61 512 85 552.5 c 128,-1,36
 109 593 109 593 147.5 622.5 c 128,-1,37
 186 652 186 652 235 669 c 128,-1,38
 284 686 284 686 334 686 c 0,39,40
 389 686 389 686 442.5 673 c 128,-1,41
 496 660 496 660 537 637 c 1,42,-1
 547 473 l 1,43,-1
 528 473 l 1,44,-1
 443 593 l 1,45,46
 419 610 419 610 395.5 620 c 128,-1,47
 372 630 372 630 342 630 c 0,48,49
 302 630 302 630 276 606 c 128,-1,50
 250 582 250 582 250 540 c 0,51,52
 250 516 250 516 262 496.5 c 128,-1,53
 274 477 274 477 304.5 458.5 c 128,-1,54
 335 440 335 440 387 417 c 0,55,56
 481 376 481 376 524.5 328 c 128,-1,57
 568 280 568 280 568 208 c 0,58,59
 568 147 568 147 534.5 100 c 128,-1,60
 501 53 501 53 444.5 25.5 c 128,-1,61
 388 -2 388 -2 321 -8 c 1,62,-1
 308 -36 l 1,63,64
 367 -53 367 -53 390.5 -79.5 c 128,-1,65
 414 -106 414 -106 414 -146 c 0,66,67
 414 -190 414 -190 382.5 -218 c 128,-1,68
 351 -246 351 -246 301 -246 c 0,0,1
EndSplineSet
Validated: 1
Substitution2: "'c2sc' Capitals to Small Capitals lookup 59 subtable" scedilla.sc
Substitution2: "'locl' Localized Forms in Latin lookup 14 subtable" Scommaaccent
Substitution2: "'locl' Localized Forms in Latin lookup 11 subtable" Scommaaccent
AlternateSubs2: "'aalt' Access All Alternates lookup 1 subtable" Scommaaccent scedilla.sc
Position2: "'cpsp' Capital Spacing lookup 0 subtable" dx=5 dy=0 dh=10 dv=0
EndChar

StartChar: Tbar
Encoding: 358 358 190
Width: 735
GlyphClass: 1
Flags: W
LayerCount: 2
Fore
SplineSet
158 0 m 1,0,-1
 158 16 l 1,1,-1
 270 59 l 1,2,-1
 270 323 l 1,3,-1
 141 323 l 1,4,-1
 141 379 l 1,5,-1
 270 379 l 1,6,-1
 270 620 l 1,7,-1
 137 620 l 1,8,-1
 47 439 l 1,9,-1
 31 439 l 1,10,-1
 31 676 l 1,11,-1
 705 676 l 1,12,-1
 705 439 l 1,13,-1
 688 439 l 1,14,-1
 598 620 l 1,15,-1
 465 620 l 1,16,-1
 465 379 l 1,17,-1
 594 379 l 1,18,-1
 594 323 l 1,19,-1
 465 323 l 1,20,-1
 465 59 l 1,21,-1
 578 16 l 1,22,-1
 578 0 l 1,23,-1
 158 0 l 1,0,-1
EndSplineSet
Validated: 1
Substitution2: "'c2sc' Capitals to Small Capitals lookup 59 subtable" tbar.sc
Substitution2: "'aalt' Access All Alternates lookup 0 subtable" tbar.sc
Position2: "'cpsp' Capital Spacing lookup 0 subtable" dx=5 dy=0 dh=10 dv=0
EndChar

StartChar: Tcedilla
Encoding: 354 354 191
Width: 735
GlyphClass: 1
Flags: W
LayerCount: 2
Fore
SplineSet
158 0 m 1,0,-1
 158 16 l 1,1,-1
 270 59 l 1,2,-1
 270 620 l 1,3,-1
 137 620 l 1,4,-1
 47 439 l 1,5,-1
 31 439 l 1,6,-1
 31 676 l 1,7,-1
 705 676 l 1,8,-1
 705 439 l 1,9,-1
 688 439 l 1,10,-1
 598 620 l 1,11,-1
 465 620 l 1,12,-1
 465 59 l 1,13,-1
 578 16 l 1,14,-1
 578 0 l 1,15,-1
 388 0 l 1,16,-1
 372 -36 l 1,17,18
 431 -53 431 -53 454 -79.5 c 128,-1,19
 477 -106 477 -106 477 -146 c 0,20,21
 477 -190 477 -190 446 -218 c 128,-1,22
 415 -246 415 -246 365 -246 c 0,23,24
 339 -246 339 -246 319 -241 c 128,-1,25
 299 -236 299 -236 283 -225 c 1,26,-1
 283 -202 l 1,27,-1
 287 -202 l 1,28,29
 298 -208 298 -208 313.5 -210.5 c 128,-1,30
 329 -213 329 -213 341 -213 c 0,31,32
 368 -213 368 -213 383 -203.5 c 128,-1,33
 398 -194 398 -194 398 -174 c 0,34,35
 398 -152 398 -152 378.5 -136 c 128,-1,36
 359 -120 359 -120 299 -105 c 1,37,-1
 347 0 l 1,38,-1
 158 0 l 1,0,-1
EndSplineSet
Validated: 1
Substitution2: "'c2sc' Capitals to Small Capitals lookup 59 subtable" tcedilla.sc
Substitution2: "'aalt' Access All Alternates lookup 0 subtable" tcedilla.sc
Position2: "'cpsp' Capital Spacing lookup 0 subtable" dx=5 dy=0 dh=10 dv=0
EndChar

StartChar: Uogonek
Encoding: 370 370 203
Width: 876
GlyphClass: 1
Flags: W
LayerCount: 2
Fore
SplineSet
468 -246 m 0,0,1
 421 -246 421 -246 393 -220.5 c 128,-1,2
 365 -195 365 -195 365 -152 c 0,3,4
 365 -118 365 -118 385.5 -83 c 128,-1,5
 406 -48 406 -48 441 -10 c 1,6,7
 345 -9 345 -9 273.5 20.5 c 128,-1,8
 202 50 202 50 162.5 119.5 c 128,-1,9
 123 189 123 189 123 309 c 2,10,-1
 123 616 l 1,11,-1
 31 659 l 1,12,-1
 31 676 l 1,13,-1
 410 676 l 1,14,-1
 410 659 l 1,15,-1
 317 616 l 1,16,-1
 317 297 l 2,17,18
 317 214 317 214 343.5 166 c 128,-1,19
 370 118 370 118 414 98 c 128,-1,20
 458 78 458 78 510 78 c 0,21,22
 555 78 555 78 594.5 96 c 128,-1,23
 634 114 634 114 658 154.5 c 128,-1,24
 682 195 682 195 682 261 c 2,25,-1
 682 618 l 1,26,-1
 590 659 l 1,27,-1
 590 676 l 1,28,-1
 846 676 l 1,29,-1
 846 659 l 1,30,-1
 754 617 l 1,31,-1
 754 309 l 2,32,33
 754 198 754 198 721.5 130 c 128,-1,34
 689 62 689 62 630 30 c 128,-1,35
 571 -2 571 -2 490 -8 c 1,36,37
 475 -39 475 -39 466.5 -68.5 c 128,-1,38
 458 -98 458 -98 458 -128 c 0,39,40
 458 -187 458 -187 512 -187 c 0,41,42
 524 -187 524 -187 537.5 -182.5 c 128,-1,43
 551 -178 551 -178 559 -169 c 1,44,-1
 563 -169 l 1,45,-1
 563 -193 l 1,46,47
 538 -246 538 -246 468 -246 c 0,0,1
EndSplineSet
Validated: 1
Substitution2: "'c2sc' Capitals to Small Capitals lookup 59 subtable" uogonek.sc
Substitution2: "'aalt' Access All Alternates lookup 0 subtable" uogonek.sc
Position2: "'cpsp' Capital Spacing lookup 0 subtable" dx=5 dy=0 dh=10 dv=0
EndChar

StartChar: Uhorn
Encoding: 431 431 210
Width: 876
GlyphClass: 2
Flags: W
AnchorPoint: "Anchor-3" 495 727 basechar 0
AnchorPoint: "Anchor-0" 479 0 basechar 0
LayerCount: 2
Fore
SplineSet
867 632 m 2,0,-1
 754 617 l 1,1,-1
 754 309 l 2,2,3
 754 188 754 188 716 118.5 c 128,-1,4
 678 49 678 49 609 19.5 c 128,-1,5
 540 -10 540 -10 445 -10 c 0,6,7
 348 -10 348 -10 275.5 19.5 c 128,-1,8
 203 49 203 49 163 118.5 c 128,-1,9
 123 188 123 188 123 309 c 2,10,-1
 123 616 l 1,11,-1
 31 659 l 1,12,-1
 31 676 l 1,13,-1
 410 676 l 1,14,-1
 410 659 l 1,15,-1
 317 616 l 1,16,-1
 317 297 l 2,17,18
 317 214 317 214 343.5 166 c 128,-1,19
 370 118 370 118 414 98 c 128,-1,20
 458 78 458 78 510 78 c 0,21,22
 555 78 555 78 594.5 96 c 128,-1,23
 634 114 634 114 658 154.5 c 128,-1,24
 682 195 682 195 682 261 c 2,25,-1
 682 618 l 1,26,-1
 590 659 l 1,27,-1
 590 676 l 1,28,-1
 815 676 l 2,29,30
 861 676 861 676 885 687 c 1,31,-1
 885 771 l 1,32,-1
 945 771 l 2,33,34
 969 771 969 771 981.5 759.5 c 128,-1,35
 994 748 994 748 994 718 c 0,36,37
 994 699 994 699 984.5 681.5 c 128,-1,38
 975 664 975 664 947.5 651.5 c 128,-1,39
 920 639 920 639 867 632 c 2,0,-1
EndSplineSet
Validated: 1
Substitution2: "'c2sc' Capitals to Small Capitals lookup 59 subtable" uhorn.sc
Substitution2: "'aalt' Access All Alternates lookup 0 subtable" uhorn.sc
Position2: "'cpsp' Capital Spacing lookup 0 subtable" dx=5 dy=0 dh=10 dv=0
EndChar

StartChar: Schwa
Encoding: 399 399 233
Width: 695
GlyphClass: 1
Flags: W
LayerCount: 2
Fore
SplineSet
302 -9 m 0,0,1
 176 -9 176 -9 107 72.5 c 128,-1,2
 38 154 38 154 37 299 c 1,3,-1
 42 306 l 1,4,-1
 464 306 l 1,5,-1
 464 313 l 2,6,7
 464 419 464 419 415.5 478 c 128,-1,8
 367 537 367 537 256 537 c 0,9,10
 211 537 211 537 151 521 c 128,-1,11
 91 505 91 505 40 469 c 1,12,-1
 36 469 l 1,13,-1
 36 523 l 1,14,15
 62 570 62 570 107 606.5 c 128,-1,16
 152 643 152 643 212 664.5 c 128,-1,17
 272 686 272 686 343 686 c 0,18,19
 441 686 441 686 512 646.5 c 128,-1,20
 583 607 583 607 621 536 c 128,-1,21
 659 465 659 465 659 369 c 0,22,23
 659 286 659 286 632 216.5 c 128,-1,24
 605 147 605 147 556.5 96.5 c 128,-1,25
 508 46 508 46 443 18.5 c 128,-1,26
 378 -9 378 -9 302 -9 c 0,0,1
341 56 m 0,27,28
 397 56 397 56 426.5 107.5 c 128,-1,29
 456 159 456 159 462 252 c 1,30,-1
 219 252 l 1,31,32
 222 177 222 177 238.5 134.5 c 128,-1,33
 255 92 255 92 280.5 74 c 128,-1,34
 306 56 306 56 341 56 c 0,27,28
EndSplineSet
Validated: 1
Substitution2: "'c2sc' Capitals to Small Capitals lookup 59 subtable" schwa.sc
Substitution2: "'aalt' Access All Alternates lookup 0 subtable" schwa.sc
Position2: "'cpsp' Capital Spacing lookup 0 subtable" dx=5 dy=0 dh=10 dv=0
EndChar

StartChar: Eng
Encoding: 330 330 234
Width: 846
GlyphClass: 1
Flags: W
LayerCount: 2
Fore
SplineSet
727 0 m 2,0,1
 727 -87 727 -87 703.5 -141.5 c 128,-1,2
 680 -196 680 -196 640.5 -221.5 c 128,-1,3
 601 -247 601 -247 551 -247 c 0,4,5
 504 -247 504 -247 491 -236 c 128,-1,6
 478 -225 478 -225 478 -198 c 2,7,-1
 478 -128 l 1,8,-1
 636 -128 l 1,9,10
 647 -110 647 -110 651 -82 c 128,-1,11
 655 -54 655 -54 655 -14 c 1,12,-1
 194 464 l 1,13,-1
 194 59 l 1,14,-1
 319 16 l 1,15,-1
 319 0 l 1,16,-1
 31 0 l 1,17,-1
 31 16 l 1,18,-1
 122 59 l 1,19,-1
 122 616 l 1,20,-1
 31 659 l 1,21,-1
 31 676 l 1,22,-1
 253 676 l 1,23,-1
 655 254 l 1,24,-1
 655 616 l 1,25,-1
 529 659 l 1,26,-1
 529 676 l 1,27,-1
 816 676 l 1,28,-1
 816 659 l 1,29,-1
 727 616 l 1,30,-1
 727 0 l 2,0,1
EndSplineSet
Validated: 1
Substitution2: "'c2sc' Capitals to Small Capitals lookup 59 subtable" eng.sc
Substitution2: "'aalt' Access All Alternates lookup 0 subtable" eng.sc
Position2: "'cpsp' Capital Spacing lookup 0 subtable" dx=5 dy=0 dh=10 dv=0
EndChar

StartChar: Thorn
Encoding: 222 222 236
Width: 730
GlyphClass: 1
Flags: W
LayerCount: 2
Fore
SplineSet
31 0 m 1,0,-1
 31 16 l 1,1,-1
 122 59 l 1,2,-1
 122 616 l 1,3,-1
 31 659 l 1,4,-1
 31 676 l 1,5,-1
 408 676 l 1,6,-1
 408 659 l 1,7,-1
 316 616 l 1,8,-1
 316 539 l 1,9,-1
 442 539 l 2,10,11
 523 539 523 539 583 520 c 128,-1,12
 643 501 643 501 676.5 461 c 128,-1,13
 710 421 710 421 710 357 c 0,14,15
 710 299 710 299 671.5 256 c 128,-1,16
 633 213 633 213 567.5 189.5 c 128,-1,17
 502 166 502 166 418 166 c 2,18,-1
 316 166 l 1,19,-1
 316 59 l 1,20,-1
 408 16 l 1,21,-1
 408 0 l 1,22,-1
 31 0 l 1,0,-1
335 482 m 2,23,-1
 316 482 l 1,24,-1
 316 212 l 1,25,-1
 342 212 l 2,26,27
 423 212 423 212 469 251 c 128,-1,28
 515 290 515 290 515 347 c 0,29,30
 515 419 515 419 468.5 450.5 c 128,-1,31
 422 482 422 482 335 482 c 2,23,-1
EndSplineSet
Validated: 1
Substitution2: "'c2sc' Capitals to Small Capitals lookup 59 subtable" thorn.sc
Substitution2: "'aalt' Access All Alternates lookup 0 subtable" thorn.sc
Position2: "'cpsp' Capital Spacing lookup 0 subtable" dx=5 dy=0 dh=10 dv=0
EndChar

StartChar: uni0402
Encoding: 1026 1026 240
Width: 862
GlyphClass: 1
Flags: W
LayerCount: 2
Fore
SplineSet
137 0 m 1,0,-1
 137 16 l 1,1,-1
 250 59 l 1,2,-1
 250 620 l 1,3,-1
 127 620 l 1,4,-1
 37 470 l 1,5,-1
 20 470 l 1,6,-1
 20 676 l 1,7,-1
 694 676 l 1,8,-1
 694 490 l 1,9,-1
 678 490 l 1,10,-1
 588 620 l 1,11,-1
 444 620 l 1,12,-1
 444 349 l 1,13,14
 471 374 471 374 518.5 397 c 128,-1,15
 566 420 566 420 636 420 c 0,16,17
 705 420 705 420 745 393 c 128,-1,18
 785 366 785 366 803 319.5 c 128,-1,19
 821 273 821 273 821 217 c 0,20,21
 821 163 821 163 807 116 c 128,-1,22
 793 69 793 69 772 30 c 128,-1,23
 751 -9 751 -9 729 -39 c 128,-1,24
 707 -69 707 -69 690 -87 c 0,25,26
 658 -124 658 -124 624.5 -150.5 c 128,-1,27
 591 -177 591 -177 552 -177 c 0,28,29
 533 -177 533 -177 520 -168 c 128,-1,30
 507 -159 507 -159 507 -142 c 0,31,32
 507 -138 507 -138 512 -113 c 2,33,-1
 522 -53 l 1,34,-1
 604 -71 l 1,35,36
 616 -53 616 -53 621.5 -24.5 c 128,-1,37
 627 4 627 4 627 50 c 2,38,-1
 627 190 l 2,39,40
 627 246 627 246 606 279.5 c 128,-1,41
 585 313 585 313 528 313 c 0,42,43
 499 313 499 313 478.5 306.5 c 128,-1,44
 458 300 458 300 444 290 c 1,45,-1
 444 59 l 1,46,-1
 534 16 l 1,47,-1
 534 0 l 1,48,-1
 137 0 l 1,0,-1
EndSplineSet
Validated: 1
Substitution2: "'c2sc' Capitals to Small Capitals lookup 59 subtable" uni0452.sc
Substitution2: "'aalt' Access All Alternates lookup 0 subtable" uni0452.sc
EndChar

StartChar: uni0404
Encoding: 1028 1028 241
Width: 717
GlyphClass: 1
Flags: W
LayerCount: 2
Fore
SplineSet
408 -10 m 0,0,1
 326 -10 326 -10 257.5 15.5 c 128,-1,2
 189 41 189 41 139.5 87 c 128,-1,3
 90 133 90 133 63 194 c 128,-1,4
 36 255 36 255 36 327 c 0,5,6
 36 406 36 406 68.5 471.5 c 128,-1,7
 101 537 101 537 156.5 585 c 128,-1,8
 212 633 212 633 281.5 659.5 c 128,-1,9
 351 686 351 686 425 686 c 0,10,11
 480 686 480 686 516.5 680 c 128,-1,12
 553 674 553 674 581 662.5 c 128,-1,13
 609 651 609 651 639 637 c 1,14,-1
 654 438 l 1,15,-1
 636 438 l 1,16,-1
 515 618 l 1,17,18
 498 626 498 626 479.5 630.5 c 128,-1,19
 461 635 461 635 434 635 c 0,20,21
 385 635 385 635 344 603.5 c 128,-1,22
 303 572 303 572 276 514.5 c 128,-1,23
 249 457 249 457 242 377 c 1,24,-1
 413 377 l 1,25,-1
 474 467 l 1,26,-1
 490 467 l 1,27,-1
 490 232 l 1,28,-1
 474 232 l 1,29,-1
 413 321 l 1,30,-1
 240 321 l 1,31,32
 241 237 241 237 265.5 175 c 128,-1,33
 290 113 290 113 332.5 79.5 c 128,-1,34
 375 46 375 46 430 46 c 0,35,36
 456 46 456 46 480.5 51 c 128,-1,37
 505 56 505 56 529 70 c 1,38,-1
 643 224 l 1,39,-1
 662 224 l 1,40,-1
 644 45 l 1,41,42
 605 19 605 19 540.5 4.5 c 128,-1,43
 476 -10 476 -10 408 -10 c 0,0,1
EndSplineSet
Validated: 1
Substitution2: "'c2sc' Capitals to Small Capitals lookup 59 subtable" uni0454.sc
Substitution2: "'aalt' Access All Alternates lookup 0 subtable" uni0454.sc
EndChar

StartChar: uni0409
Encoding: 1033 1033 246
Width: 1034
GlyphClass: 1
Flags: W
LayerCount: 2
Fore
SplineSet
708 0 m 2,0,-1
 331 0 l 1,1,-1
 331 16 l 1,2,-1
 422 59 l 1,3,-1
 422 620 l 1,4,-1
 251 620 l 1,5,-1
 251 536 l 2,6,7
 251 415 251 415 245 331 c 128,-1,8
 239 247 239 247 227 190.5 c 128,-1,9
 215 134 215 134 198 93 c 0,10,11
 172 33 172 33 146 11.5 c 128,-1,12
 120 -10 120 -10 76 -10 c 0,13,14
 40 -10 40 -10 22.5 3 c 128,-1,15
 5 16 5 16 5 51 c 2,16,-1
 5 119 l 1,17,-1
 97 119 l 1,18,19
 136 169 136 169 157.5 268.5 c 128,-1,20
 179 368 179 368 179 532 c 2,21,-1
 179 616 l 1,22,-1
 89 659 l 1,23,-1
 89 676 l 1,24,-1
 728 676 l 1,25,-1
 728 659 l 1,26,-1
 616 616 l 1,27,-1
 616 407 l 1,28,-1
 708 407 l 2,29,30
 796 407 796 407 865 383.5 c 128,-1,31
 934 360 934 360 974 316 c 128,-1,32
 1014 272 1014 272 1014 209 c 0,33,34
 1014 144 1014 144 974 97 c 128,-1,35
 934 50 934 50 865 25 c 128,-1,36
 796 0 796 0 708 0 c 2,0,-1
658 350 m 2,37,-1
 616 350 l 1,38,-1
 616 56 l 1,39,-1
 666 56 l 2,40,41
 737 56 737 56 777.5 98.5 c 128,-1,42
 818 141 818 141 818 206 c 0,43,44
 818 279 818 279 776.5 314.5 c 128,-1,45
 735 350 735 350 658 350 c 2,37,-1
EndSplineSet
Validated: 1
Substitution2: "'c2sc' Capitals to Small Capitals lookup 59 subtable" uni0459.sc
Substitution2: "'aalt' Access All Alternates lookup 0 subtable" uni0459.sc
EndChar

StartChar: uni040A
Encoding: 1034 1034 247
Width: 1170
GlyphClass: 1
Flags: W
LayerCount: 2
Fore
SplineSet
31 0 m 1,0,-1
 31 16 l 1,1,-1
 122 59 l 1,2,-1
 122 616 l 1,3,-1
 31 659 l 1,4,-1
 31 676 l 1,5,-1
 395 676 l 1,6,-1
 395 659 l 1,7,-1
 316 616 l 1,8,-1
 316 386 l 1,9,-1
 558 386 l 1,10,-1
 558 616 l 1,11,-1
 467 659 l 1,12,-1
 467 676 l 1,13,-1
 864 676 l 1,14,-1
 864 659 l 1,15,-1
 753 616 l 1,16,-1
 753 386 l 1,17,-1
 844 386 l 2,18,19
 932 386 932 386 1001 364.5 c 128,-1,20
 1070 343 1070 343 1110 301 c 128,-1,21
 1150 259 1150 259 1150 196 c 0,22,23
 1150 130 1150 130 1110 87 c 128,-1,24
 1070 44 1070 44 1001 22 c 128,-1,25
 932 0 932 0 844 0 c 2,26,-1
 467 0 l 1,27,-1
 467 16 l 1,28,-1
 558 59 l 1,29,-1
 558 330 l 1,30,-1
 316 330 l 1,31,-1
 316 59 l 1,32,-1
 395 16 l 1,33,-1
 395 0 l 1,34,-1
 31 0 l 1,0,-1
795 330 m 2,35,-1
 753 330 l 1,36,-1
 753 56 l 1,37,-1
 802 56 l 2,38,39
 873 56 873 56 913.5 92 c 128,-1,40
 954 128 954 128 954 193 c 0,41,42
 954 266 954 266 913 298 c 128,-1,43
 872 330 872 330 795 330 c 2,35,-1
EndSplineSet
Validated: 1
Substitution2: "'c2sc' Capitals to Small Capitals lookup 59 subtable" uni045A.sc
Substitution2: "'aalt' Access All Alternates lookup 0 subtable" uni045A.sc
EndChar

StartChar: uni040B
Encoding: 1035 1035 248
Width: 920
GlyphClass: 1
Flags: W
LayerCount: 2
Fore
SplineSet
137 0 m 1,0,-1
 137 16 l 1,1,-1
 250 59 l 1,2,-1
 250 620 l 1,3,-1
 127 620 l 1,4,-1
 37 470 l 1,5,-1
 20 470 l 1,6,-1
 20 676 l 1,7,-1
 694 676 l 1,8,-1
 694 480 l 1,9,-1
 678 480 l 1,10,-1
 588 620 l 1,11,-1
 444 620 l 1,12,-1
 444 349 l 1,13,14
 471 374 471 374 518.5 397 c 128,-1,15
 566 420 566 420 636 420 c 0,16,17
 705 420 705 420 745 394.5 c 128,-1,18
 785 369 785 369 803 325.5 c 128,-1,19
 821 282 821 282 821 228 c 2,20,-1
 821 59 l 1,21,-1
 910 16 l 1,22,-1
 910 0 l 1,23,-1
 627 0 l 1,24,-1
 627 190 l 2,25,26
 627 243 627 243 606 278 c 128,-1,27
 585 313 585 313 528 313 c 0,28,29
 499 313 499 313 478.5 306.5 c 128,-1,30
 458 300 458 300 444 290 c 1,31,-1
 444 59 l 1,32,-1
 534 16 l 1,33,-1
 534 0 l 1,34,-1
 137 0 l 1,0,-1
EndSplineSet
Validated: 1
Substitution2: "'c2sc' Capitals to Small Capitals lookup 59 subtable" uni045B.sc
Substitution2: "'aalt' Access All Alternates lookup 0 subtable" uni045B.sc
EndChar

StartChar: uni040F
Encoding: 1039 1039 249
Width: 851
GlyphClass: 1
Flags: W
LayerCount: 2
Fore
SplineSet
358 0 m 1,0,-1
 31 0 l 1,1,-1
 31 16 l 1,2,-1
 120 59 l 1,3,-1
 120 616 l 1,4,-1
 31 659 l 1,5,-1
 31 676 l 1,6,-1
 390 676 l 1,7,-1
 390 659 l 1,8,-1
 314 616 l 1,9,-1
 314 56 l 1,10,-1
 536 56 l 1,11,-1
 536 616 l 1,12,-1
 462 659 l 1,13,-1
 462 676 l 1,14,-1
 821 676 l 1,15,-1
 821 659 l 1,16,-1
 730 616 l 1,17,-1
 730 59 l 1,18,-1
 821 16 l 1,19,-1
 821 0 l 1,20,-1
 494 0 l 1,21,-1
 434 -180 l 1,22,-1
 418 -180 l 1,23,-1
 358 0 l 1,0,-1
EndSplineSet
Validated: 1
Substitution2: "'c2sc' Capitals to Small Capitals lookup 59 subtable" uni045F.sc
Substitution2: "'aalt' Access All Alternates lookup 0 subtable" uni045F.sc
EndChar

StartChar: uni0411
Encoding: 1041 1041 251
Width: 734
GlyphClass: 1
Flags: W
LayerCount: 2
Fore
SplineSet
408 0 m 2,0,-1
 31 0 l 1,1,-1
 31 16 l 1,2,-1
 122 59 l 1,3,-1
 122 616 l 1,4,-1
 31 659 l 1,5,-1
 31 676 l 1,6,-1
 636 676 l 1,7,-1
 636 498 l 1,8,-1
 620 498 l 1,9,-1
 536 620 l 1,10,-1
 316 620 l 1,11,-1
 316 386 l 1,12,-1
 408 386 l 2,13,14
 496 386 496 386 565 366.5 c 128,-1,15
 634 347 634 347 674 307 c 128,-1,16
 714 267 714 267 714 204 c 0,17,18
 714 139 714 139 674 93.5 c 128,-1,19
 634 48 634 48 565 24 c 128,-1,20
 496 0 496 0 408 0 c 2,0,-1
358 340 m 2,21,-1
 316 340 l 1,22,-1
 316 56 l 1,23,-1
 366 56 l 2,24,25
 437 56 437 56 477.5 96 c 128,-1,26
 518 136 518 136 518 201 c 0,27,28
 518 274 518 274 476.5 307 c 128,-1,29
 435 340 435 340 358 340 c 2,21,-1
EndSplineSet
Validated: 1
Substitution2: "'c2sc' Capitals to Small Capitals lookup 59 subtable" uni0431.sc
Substitution2: "'aalt' Access All Alternates lookup 0 subtable" uni0431.sc
EndChar

StartChar: uni0413
Encoding: 1043 1043 253
Width: 647
GlyphClass: 2
Flags: W
AnchorPoint: "Anchor-3" 375 727 basechar 0
LayerCount: 2
Fore
SplineSet
31 0 m 1,0,-1
 31 16 l 1,1,-1
 122 59 l 1,2,-1
 122 616 l 1,3,-1
 31 659 l 1,4,-1
 31 676 l 1,5,-1
 616 676 l 1,6,-1
 616 498 l 1,7,-1
 600 498 l 1,8,-1
 516 620 l 1,9,-1
 316 620 l 1,10,-1
 316 59 l 1,11,-1
 429 16 l 1,12,-1
 429 0 l 1,13,-1
 31 0 l 1,0,-1
EndSplineSet
Validated: 1
Substitution2: "'c2sc' Capitals to Small Capitals lookup 59 subtable" uni0433.sc
Substitution2: "'aalt' Access All Alternates lookup 0 subtable" uni0433.sc
EndChar

StartChar: uni0492
Encoding: 1170 1170 255
Width: 647
GlyphClass: 1
Flags: W
LayerCount: 2
Fore
SplineSet
31 0 m 1,0,-1
 31 16 l 1,1,-1
 122 59 l 1,2,-1
 122 323 l 1,3,-1
 31 323 l 1,4,-1
 31 379 l 1,5,-1
 122 379 l 1,6,-1
 122 616 l 1,7,-1
 31 659 l 1,8,-1
 31 676 l 1,9,-1
 616 676 l 1,10,-1
 616 498 l 1,11,-1
 600 498 l 1,12,-1
 516 620 l 1,13,-1
 316 620 l 1,14,-1
 316 379 l 1,15,-1
 483 379 l 1,16,-1
 483 323 l 1,17,-1
 316 323 l 1,18,-1
 316 59 l 1,19,-1
 429 16 l 1,20,-1
 429 0 l 1,21,-1
 31 0 l 1,0,-1
EndSplineSet
Validated: 1
Substitution2: "'c2sc' Capitals to Small Capitals lookup 59 subtable" uni0493.sc
Substitution2: "'aalt' Access All Alternates lookup 0 subtable" uni0493.sc
EndChar

StartChar: uni0414
Encoding: 1044 1044 256
Width: 760
GlyphClass: 1
Flags: W
LayerCount: 2
Fore
SplineSet
88 659 m 1,0,-1
 88 676 l 1,1,-1
 715 676 l 1,2,-1
 715 659 l 1,3,-1
 626 616 l 1,4,-1
 626 56 l 1,5,-1
 730 56 l 1,6,-1
 730 -180 l 1,7,-1
 714 -180 l 1,8,-1
 603 0 l 1,9,-1
 137 0 l 1,10,-1
 27 -180 l 1,11,-1
 10 -180 l 1,12,-1
 10 56 l 1,13,-1
 99 56 l 1,14,15
 134 144 134 144 151 232.5 c 128,-1,16
 168 321 168 321 173 412.5 c 128,-1,17
 178 504 178 504 178 604 c 2,18,-1
 178 616 l 1,19,-1
 88 659 l 1,0,-1
431 56 m 1,20,-1
 431 620 l 1,21,-1
 250 620 l 1,22,-1
 250 607 l 2,23,24
 250 501 250 501 245 409 c 128,-1,25
 240 317 240 317 224.5 231 c 128,-1,26
 209 145 209 145 179 56 c 1,27,-1
 431 56 l 1,20,-1
EndSplineSet
Validated: 1
Substitution2: "'c2sc' Capitals to Small Capitals lookup 59 subtable" uni0434.sc
Substitution2: "'ss06' Style Set 6 lookup 19 subtable" uni0414.bgr
Substitution2: "'locl' Localized Forms in Cyrillic lookup 17 subtable" uni0414.bgr
AlternateSubs2: "'aalt' Access All Alternates lookup 1 subtable" uni0414.bgr uni0434.sc
EndChar

StartChar: uni0416
Encoding: 1046 1046 259
Width: 1179
GlyphClass: 1
Flags: W
LayerCount: 2
Fore
SplineSet
412 0 m 1,0,-1
 412 16 l 1,1,-1
 493 59 l 1,2,-1
 493 616 l 1,3,-1
 412 659 l 1,4,-1
 412 676 l 1,5,-1
 768 676 l 1,6,-1
 768 659 l 1,7,-1
 687 616 l 1,8,-1
 687 59 l 1,9,-1
 768 16 l 1,10,-1
 768 0 l 1,11,-1
 412 0 l 1,0,-1
688 338 m 5,12,-1
 947 621 l 1,13,-1
 867 659 l 1,14,-1
 867 676 l 1,15,-1
 1125 676 l 1,16,-1
 1125 659 l 1,17,-1
 1040 622 l 1,18,-1
 855 429 l 1,19,-1
 1100 48 l 1,20,-1
 1176 16 l 1,21,-1
 1176 0 l 1,22,-1
 901 0 l 1,23,-1
 688 338 l 5,12,-1
492 338 m 1,24,-1
 279 0 l 1,25,-1
 4 0 l 1,26,-1
 4 16 l 1,27,-1
 94 53 l 1,28,-1
 327 417 l 1,29,-1
 127 625 l 1,30,-1
 49 659 l 1,31,-1
 49 676 l 1,32,-1
 312 676 l 1,33,-1
 312 659 l 1,34,-1
 232 621 l 1,35,-1
 492 338 l 1,24,-1
EndSplineSet
Validated: 1
Substitution2: "'c2sc' Capitals to Small Capitals lookup 59 subtable" uni0436.sc
Substitution2: "'ss06' Style Set 6 lookup 19 subtable" uni0416.bgr
Substitution2: "'locl' Localized Forms in Cyrillic lookup 17 subtable" uni0416.bgr
AlternateSubs2: "'aalt' Access All Alternates lookup 1 subtable" uni0416.bgr uni0436.sc
EndChar

StartChar: uni0417
Encoding: 1047 1047 260
Width: 663
GlyphClass: 1
Flags: W
LayerCount: 2
Fore
SplineSet
319 686 m 0,0,1
 393 686 393 686 454 669 c 128,-1,2
 515 652 515 652 551.5 618 c 128,-1,3
 588 584 588 584 588 531 c 0,4,5
 588 476 588 476 544.5 430 c 128,-1,6
 501 384 501 384 421 366 c 1,7,8
 519 352 519 352 576 308 c 128,-1,9
 633 264 633 264 633 201 c 0,10,11
 633 139 633 139 590.5 91 c 128,-1,12
 548 43 548 43 474 16.5 c 128,-1,13
 400 -10 400 -10 307 -10 c 0,14,15
 240 -10 240 -10 176.5 4.5 c 128,-1,16
 113 19 113 19 74 45 c 1,17,-1
 56 224 l 1,18,-1
 75 224 l 1,19,-1
 205 59 l 1,20,21
 224 51 224 51 244 48.5 c 128,-1,22
 264 46 264 46 285 46 c 0,23,24
 350 46 350 46 388.5 83 c 128,-1,25
 427 120 427 120 427 191 c 0,26,27
 427 320 427 320 260 321 c 2,28,-1
 195 321 l 1,29,-1
 195 377 l 1,30,-1
 255 377 l 2,31,32
 322 377 322 377 357.5 411 c 128,-1,33
 393 445 393 445 393 508 c 0,34,35
 393 568 393 568 365 601.5 c 128,-1,36
 337 635 337 635 281 635 c 0,37,38
 261 635 261 635 246.5 631 c 128,-1,39
 232 627 232 627 219 620 c 1,40,-1
 97 438 l 1,41,-1
 79 438 l 1,42,-1
 94 637 l 1,43,44
 124 653 124 653 154.5 664 c 128,-1,45
 185 675 185 675 224.5 680.5 c 128,-1,46
 264 686 264 686 319 686 c 0,0,1
EndSplineSet
Validated: 1
Substitution2: "'c2sc' Capitals to Small Capitals lookup 59 subtable" uni0437.sc
Substitution2: "'aalt' Access All Alternates lookup 0 subtable" uni0437.sc
EndChar

StartChar: uni0418
Encoding: 1048 1048 261
Width: 882
GlyphClass: 2
Flags: W
AnchorPoint: "Anchor-3" 441 727 basechar 0
LayerCount: 2
Fore
SplineSet
31 0 m 1,0,-1
 31 16 l 1,1,-1
 122 59 l 1,2,-1
 122 616 l 1,3,-1
 31 659 l 1,4,-1
 31 676 l 1,5,-1
 395 676 l 1,6,-1
 395 659 l 1,7,-1
 316 616 l 1,8,-1
 316 205 l 1,9,-1
 568 569 l 1,10,-1
 568 616 l 1,11,-1
 487 659 l 1,12,-1
 487 676 l 1,13,-1
 852 676 l 1,14,-1
 852 659 l 1,15,-1
 763 616 l 1,16,-1
 763 59 l 1,17,-1
 852 16 l 1,18,-1
 852 0 l 1,19,-1
 487 0 l 1,20,-1
 487 16 l 1,21,-1
 568 59 l 1,22,-1
 568 477 l 1,23,-1
 316 113 l 1,24,-1
 316 59 l 1,25,-1
 395 16 l 1,26,-1
 395 0 l 1,27,-1
 31 0 l 1,0,-1
EndSplineSet
Validated: 1
Substitution2: "'c2sc' Capitals to Small Capitals lookup 59 subtable" uni0438.sc
Substitution2: "'aalt' Access All Alternates lookup 0 subtable" uni0438.sc
EndChar

StartChar: uni041B
Encoding: 1051 1051 266
Width: 746
GlyphClass: 1
Flags: W
LayerCount: 2
Fore
SplineSet
343 0 m 1,0,-1
 343 16 l 1,1,-1
 432 59 l 1,2,-1
 432 620 l 1,3,-1
 251 620 l 1,4,-1
 251 536 l 2,5,6
 251 415 251 415 245 331 c 128,-1,7
 239 247 239 247 227 190.5 c 128,-1,8
 215 134 215 134 198 93 c 0,9,10
 172 33 172 33 146 11.5 c 128,-1,11
 120 -10 120 -10 76 -10 c 0,12,13
 40 -10 40 -10 22.5 3 c 128,-1,14
 5 16 5 16 5 51 c 2,15,-1
 5 119 l 1,16,-1
 97 119 l 1,17,18
 136 169 136 169 157.5 268.5 c 128,-1,19
 179 368 179 368 179 532 c 2,20,-1
 179 616 l 1,21,-1
 89 659 l 1,22,-1
 89 676 l 1,23,-1
 716 676 l 1,24,-1
 716 659 l 1,25,-1
 627 616 l 1,26,-1
 627 59 l 1,27,-1
 716 16 l 1,28,-1
 716 0 l 1,29,-1
 343 0 l 1,0,-1
EndSplineSet
Validated: 1
Substitution2: "'c2sc' Capitals to Small Capitals lookup 59 subtable" uni043B.sc
Substitution2: "'ss06' Style Set 6 lookup 19 subtable" uni041B.bgr
Substitution2: "'locl' Localized Forms in Cyrillic lookup 17 subtable" uni041B.bgr
AlternateSubs2: "'aalt' Access All Alternates lookup 1 subtable" uni041B.bgr uni043B.sc
EndChar

StartChar: uni041F
Encoding: 1055 1055 270
Width: 851
GlyphClass: 1
Flags: W
LayerCount: 2
Fore
SplineSet
31 0 m 1,0,-1
 31 16 l 1,1,-1
 122 59 l 1,2,-1
 122 616 l 1,3,-1
 31 659 l 1,4,-1
 31 676 l 1,5,-1
 821 676 l 1,6,-1
 821 659 l 1,7,-1
 732 616 l 1,8,-1
 732 59 l 1,9,-1
 821 16 l 1,10,-1
 821 0 l 1,11,-1
 464 0 l 1,12,-1
 464 16 l 1,13,-1
 538 59 l 1,14,-1
 538 620 l 1,15,-1
 316 620 l 1,16,-1
 316 59 l 1,17,-1
 390 16 l 1,18,-1
 390 0 l 1,19,-1
 31 0 l 1,0,-1
EndSplineSet
Validated: 1
Substitution2: "'c2sc' Capitals to Small Capitals lookup 59 subtable" uni043F.sc
Substitution2: "'aalt' Access All Alternates lookup 0 subtable" uni043F.sc
EndChar

StartChar: uni0423
Encoding: 1059 1059 274
Width: 772
GlyphClass: 2
Flags: W
AnchorPoint: "Anchor-3" 458 727 basechar 0
LayerCount: 2
Fore
SplineSet
488 231 m 2,0,1
 442 153 442 153 408 105 c 128,-1,2
 374 57 374 57 347.5 32 c 128,-1,3
 321 7 321 7 297 -1.5 c 128,-1,4
 273 -10 273 -10 249 -10 c 0,5,6
 212 -10 212 -10 197.5 4.5 c 128,-1,7
 183 19 183 19 183 51 c 2,8,-1
 183 119 l 1,9,-1
 302 119 l 1,10,11
 331 135 331 135 356 163 c 1,12,-1
 90 612 l 1,13,-1
 9 659 l 1,14,-1
 9 676 l 1,15,-1
 370 676 l 1,16,-1
 370 659 l 1,17,-1
 294 622 l 1,18,-1
 465 333 l 1,19,-1
 474 333 l 1,20,-1
 645 621 l 1,21,-1
 565 659 l 1,22,-1
 565 676 l 1,23,-1
 787 676 l 1,24,-1
 787 659 l 1,25,-1
 723 624 l 1,26,-1
 488 231 l 2,0,1
EndSplineSet
Validated: 1
Substitution2: "'c2sc' Capitals to Small Capitals lookup 59 subtable" uni0443.sc
Substitution2: "'aalt' Access All Alternates lookup 0 subtable" uni0443.sc
EndChar

StartChar: uni0424
Encoding: 1060 1060 277
Width: 952
GlyphClass: 1
Flags: W
LayerCount: 2
Fore
SplineSet
290 -20 m 1,0,-1
 290 -4 l 1,1,-1
 381 39 l 1,2,-1
 381 82 l 1,3,4
 267 84 267 84 186.5 117.5 c 128,-1,5
 106 151 106 151 63 205.5 c 128,-1,6
 20 260 20 260 20 328 c 0,7,8
 20 402 20 402 63 461 c 128,-1,9
 106 520 106 520 186.5 556 c 128,-1,10
 267 592 267 592 381 594 c 1,11,-1
 381 637 l 1,12,-1
 290 680 l 1,13,-1
 290 696 l 1,14,-1
 667 696 l 1,15,-1
 667 680 l 1,16,-1
 575 637 l 1,17,-1
 575 594 l 1,18,19
 688 591 688 591 767.5 557.5 c 128,-1,20
 847 524 847 524 889.5 469.5 c 128,-1,21
 932 415 932 415 932 348 c 0,22,23
 932 274 932 274 889.5 215 c 128,-1,24
 847 156 847 156 767.5 120 c 128,-1,25
 688 84 688 84 575 82 c 1,26,-1
 575 39 l 1,27,-1
 667 -4 l 1,28,-1
 667 -20 l 1,29,-1
 290 -20 l 1,0,-1
381 541 m 1,30,31
 337 541 337 541 301.5 518.5 c 128,-1,32
 266 496 266 496 245.5 455.5 c 128,-1,33
 225 415 225 415 225 359 c 0,34,35
 225 298 225 298 245.5 251 c 128,-1,36
 266 204 266 204 301.5 174 c 128,-1,37
 337 144 337 144 381 138 c 1,38,-1
 381 541 l 1,30,31
730 318 m 0,39,40
 730 409 730 409 686 469 c 128,-1,41
 642 529 642 529 575 539 c 1,42,-1
 575 136 l 1,43,44
 645 136 645 136 687.5 186 c 128,-1,45
 730 236 730 236 730 318 c 0,39,40
EndSplineSet
Validated: 1
Substitution2: "'c2sc' Capitals to Small Capitals lookup 59 subtable" uni0444.sc
Substitution2: "'aalt' Access All Alternates lookup 0 subtable" uni0444.sc
EndChar

StartChar: uni0426
Encoding: 1062 1062 279
Width: 865
GlyphClass: 1
Flags: W
LayerCount: 2
Fore
SplineSet
708 0 m 1,0,-1
 31 0 l 1,1,-1
 31 16 l 1,2,-1
 120 59 l 1,3,-1
 120 616 l 1,4,-1
 31 659 l 1,5,-1
 31 676 l 1,6,-1
 388 676 l 1,7,-1
 388 659 l 1,8,-1
 314 616 l 1,9,-1
 314 56 l 1,10,-1
 536 56 l 1,11,-1
 536 616 l 1,12,-1
 462 659 l 1,13,-1
 462 676 l 1,14,-1
 821 676 l 1,15,-1
 821 659 l 1,16,-1
 730 616 l 1,17,-1
 730 56 l 1,18,-1
 835 56 l 1,19,-1
 835 -180 l 1,20,-1
 818 -180 l 1,21,-1
 708 0 l 1,0,-1
EndSplineSet
Validated: 1
Substitution2: "'c2sc' Capitals to Small Capitals lookup 59 subtable" uni0446.sc
Substitution2: "'aalt' Access All Alternates lookup 0 subtable" uni0446.sc
EndChar

StartChar: uni0427
Encoding: 1063 1063 280
Width: 831
GlyphClass: 1
Flags: W
LayerCount: 2
Fore
SplineSet
416 0 m 1,0,-1
 416 16 l 1,1,-1
 517 59 l 1,2,-1
 517 310 l 1,3,4
 482 293 482 293 432.5 280.5 c 128,-1,5
 383 268 383 268 328 268 c 0,6,7
 256 268 256 268 205.5 288 c 128,-1,8
 155 308 155 308 128 357 c 128,-1,9
 101 406 101 406 101 492 c 2,10,-1
 101 616 l 1,11,-1
 10 659 l 1,12,-1
 10 676 l 1,13,-1
 375 676 l 1,14,-1
 375 659 l 1,15,-1
 296 616 l 1,16,-1
 296 485 l 2,17,18
 296 405 296 405 324 375 c 128,-1,19
 352 345 352 345 415 345 c 0,20,21
 440 345 440 345 466.5 349.5 c 128,-1,22
 493 354 493 354 517 367 c 1,23,-1
 517 616 l 1,24,-1
 436 659 l 1,25,-1
 436 676 l 1,26,-1
 801 676 l 1,27,-1
 801 659 l 1,28,-1
 712 616 l 1,29,-1
 712 59 l 1,30,-1
 801 16 l 1,31,-1
 801 0 l 1,32,-1
 416 0 l 1,0,-1
EndSplineSet
Validated: 1
Substitution2: "'c2sc' Capitals to Small Capitals lookup 59 subtable" uni0447.sc
Substitution2: "'aalt' Access All Alternates lookup 0 subtable" uni0447.sc
EndChar

StartChar: uni0428
Encoding: 1064 1064 281
Width: 1153
GlyphClass: 1
Flags: W
LayerCount: 2
Fore
SplineSet
378 676 m 1,0,-1
 378 659 l 1,1,-1
 314 616 l 1,2,-1
 314 56 l 1,3,-1
 478 56 l 1,4,-1
 478 616 l 1,5,-1
 415 659 l 1,6,-1
 415 676 l 1,7,-1
 736 676 l 1,8,-1
 736 659 l 1,9,-1
 673 616 l 1,10,-1
 673 56 l 1,11,-1
 837 56 l 1,12,-1
 837 616 l 1,13,-1
 779 659 l 1,14,-1
 779 676 l 1,15,-1
 1122 676 l 1,16,-1
 1122 659 l 1,17,-1
 1031 616 l 1,18,-1
 1031 59 l 1,19,-1
 1122 16 l 1,20,-1
 1122 0 l 1,21,-1
 31 0 l 1,22,-1
 31 16 l 1,23,-1
 120 59 l 1,24,-1
 120 616 l 1,25,-1
 31 659 l 1,26,-1
 31 676 l 1,27,-1
 378 676 l 1,0,-1
EndSplineSet
Validated: 1
Substitution2: "'c2sc' Capitals to Small Capitals lookup 59 subtable" uni0448.sc
Substitution2: "'aalt' Access All Alternates lookup 0 subtable" uni0448.sc
EndChar

StartChar: uni0429
Encoding: 1065 1065 282
Width: 1166
GlyphClass: 1
Flags: W
LayerCount: 2
Fore
SplineSet
378 676 m 1,0,-1
 378 659 l 1,1,-1
 314 616 l 1,2,-1
 314 56 l 1,3,-1
 478 56 l 1,4,-1
 478 616 l 1,5,-1
 415 659 l 1,6,-1
 415 676 l 1,7,-1
 736 676 l 1,8,-1
 736 659 l 1,9,-1
 673 616 l 1,10,-1
 673 56 l 1,11,-1
 837 56 l 1,12,-1
 837 616 l 1,13,-1
 779 659 l 1,14,-1
 779 676 l 1,15,-1
 1122 676 l 1,16,-1
 1122 659 l 1,17,-1
 1031 616 l 1,18,-1
 1031 56 l 1,19,-1
 1136 56 l 1,20,-1
 1136 -180 l 1,21,-1
 1119 -180 l 1,22,-1
 1009 0 l 1,23,-1
 31 0 l 1,24,-1
 31 16 l 1,25,-1
 120 59 l 1,26,-1
 120 616 l 1,27,-1
 31 659 l 1,28,-1
 31 676 l 1,29,-1
 378 676 l 1,0,-1
EndSplineSet
Validated: 1
Substitution2: "'c2sc' Capitals to Small Capitals lookup 59 subtable" uni0449.sc
Substitution2: "'aalt' Access All Alternates lookup 0 subtable" uni0449.sc
EndChar

StartChar: uni042A
Encoding: 1066 1066 283
Width: 836
GlyphClass: 1
Flags: W
LayerCount: 2
Fore
SplineSet
510 0 m 2,0,-1
 133 0 l 1,1,-1
 133 16 l 1,2,-1
 224 59 l 1,3,-1
 224 620 l 1,4,-1
 137 620 l 1,5,-1
 47 439 l 1,6,-1
 31 439 l 1,7,-1
 31 676 l 1,8,-1
 530 676 l 1,9,-1
 530 659 l 1,10,-1
 419 616 l 1,11,-1
 419 407 l 1,12,-1
 510 407 l 2,13,14
 598 407 598 407 667 383.5 c 128,-1,15
 736 360 736 360 776 316 c 128,-1,16
 816 272 816 272 816 209 c 0,17,18
 816 144 816 144 776 97 c 128,-1,19
 736 50 736 50 667 25 c 128,-1,20
 598 0 598 0 510 0 c 2,0,-1
461 350 m 2,21,-1
 419 350 l 1,22,-1
 419 56 l 1,23,-1
 468 56 l 2,24,25
 539 56 539 56 580 98.5 c 128,-1,26
 621 141 621 141 621 206 c 0,27,28
 621 279 621 279 579.5 314.5 c 128,-1,29
 538 350 538 350 461 350 c 2,21,-1
EndSplineSet
Validated: 1
Substitution2: "'c2sc' Capitals to Small Capitals lookup 59 subtable" uni044A.sc
Substitution2: "'aalt' Access All Alternates lookup 0 subtable" uni044A.sc
EndChar

StartChar: uni042C
Encoding: 1068 1068 285
Width: 734
GlyphClass: 1
Flags: W
LayerCount: 2
Fore
SplineSet
408 0 m 2,0,-1
 31 0 l 1,1,-1
 31 16 l 1,2,-1
 122 59 l 1,3,-1
 122 616 l 1,4,-1
 31 659 l 1,5,-1
 31 676 l 1,6,-1
 428 676 l 1,7,-1
 428 659 l 1,8,-1
 316 616 l 1,9,-1
 316 407 l 1,10,-1
 408 407 l 2,11,12
 496 407 496 407 565 383.5 c 128,-1,13
 634 360 634 360 674 316 c 128,-1,14
 714 272 714 272 714 209 c 0,15,16
 714 144 714 144 674 97 c 128,-1,17
 634 50 634 50 565 25 c 128,-1,18
 496 0 496 0 408 0 c 2,0,-1
358 350 m 2,19,-1
 316 350 l 1,20,-1
 316 56 l 1,21,-1
 366 56 l 2,22,23
 437 56 437 56 477.5 98.5 c 128,-1,24
 518 141 518 141 518 206 c 0,25,26
 518 279 518 279 476.5 314.5 c 128,-1,27
 435 350 435 350 358 350 c 2,19,-1
EndSplineSet
Validated: 1
Substitution2: "'c2sc' Capitals to Small Capitals lookup 59 subtable" uni044C.sc
Substitution2: "'aalt' Access All Alternates lookup 0 subtable" uni044C.sc
EndChar

StartChar: uni042D
Encoding: 1069 1069 286
Width: 717
GlyphClass: 1
Flags: W
LayerCount: 2
Fore
SplineSet
293 44 m 0,0,1
 387 44 387 44 432 115.5 c 128,-1,2
 477 187 477 187 477 308 c 0,3,4
 477 315 477 315 477 323 c 1,5,-1
 318 323 l 1,6,-1
 257 232 l 1,7,-1
 241 232 l 1,8,-1
 241 467 l 1,9,-1
 257 467 l 1,10,-1
 318 379 l 1,11,-1
 474 379 l 1,12,13
 462 496 462 496 414 564.5 c 128,-1,14
 366 633 366 633 293 633 c 0,15,16
 268 633 268 633 249.5 630 c 128,-1,17
 231 627 231 627 213 617 c 1,18,-1
 92 438 l 1,19,-1
 74 438 l 1,20,-1
 89 637 l 1,21,22
 134 659 134 659 185.5 672.5 c 128,-1,23
 237 686 237 686 319 686 c 0,24,25
 397 686 397 686 463 660 c 128,-1,26
 529 634 529 634 578.5 587.5 c 128,-1,27
 628 541 628 541 655 477.5 c 128,-1,28
 682 414 682 414 682 338 c 0,29,30
 682 263 682 263 655 199 c 128,-1,31
 628 135 628 135 578.5 88.5 c 128,-1,32
 529 42 529 42 463 16 c 128,-1,33
 397 -10 397 -10 319 -10 c 0,34,35
 274 -10 274 -10 227.5 -3.5 c 128,-1,36
 181 3 181 3 140.5 15.5 c 128,-1,37
 100 28 100 28 74 45 c 1,38,-1
 56 224 l 1,39,-1
 75 224 l 1,40,-1
 188 70 l 1,41,42
 214 57 214 57 240.5 50.5 c 128,-1,43
 267 44 267 44 293 44 c 0,0,1
EndSplineSet
Validated: 1
Substitution2: "'c2sc' Capitals to Small Capitals lookup 59 subtable" uni044D.sc
Substitution2: "'aalt' Access All Alternates lookup 0 subtable" uni044D.sc
EndChar

StartChar: uni042E
Encoding: 1070 1070 287
Width: 1133
GlyphClass: 1
Flags: W
LayerCount: 2
Fore
SplineSet
31 0 m 1,0,-1
 31 16 l 1,1,-1
 122 59 l 1,2,-1
 122 616 l 1,3,-1
 31 659 l 1,4,-1
 31 676 l 1,5,-1
 395 676 l 1,6,-1
 395 659 l 1,7,-1
 316 616 l 1,8,-1
 316 376 l 1,9,-1
 396 376 l 1,10,11
 404 466 404 466 452 536 c 128,-1,12
 500 606 500 606 575.5 646 c 128,-1,13
 651 686 651 686 745 686 c 0,14,15
 821 686 821 686 885 660 c 128,-1,16
 949 634 949 634 996.5 587.5 c 128,-1,17
 1044 541 1044 541 1071 477.5 c 128,-1,18
 1098 414 1098 414 1098 338 c 0,19,20
 1098 263 1098 263 1071 199 c 128,-1,21
 1044 135 1044 135 996.5 88.5 c 128,-1,22
 949 42 949 42 885 16 c 128,-1,23
 821 -10 821 -10 745 -10 c 0,24,25
 648 -10 648 -10 570.5 32.5 c 128,-1,26
 493 75 493 75 446 149.5 c 128,-1,27
 399 224 399 224 394 319 c 1,28,-1
 316 319 l 1,29,-1
 316 59 l 1,30,-1
 395 16 l 1,31,-1
 395 0 l 1,32,-1
 31 0 l 1,0,-1
759 44 m 0,33,34
 819 44 819 44 856 115.5 c 128,-1,35
 893 187 893 187 893 308 c 0,36,37
 893 406 893 406 872 479 c 128,-1,38
 851 552 851 552 815 592.5 c 128,-1,39
 779 633 779 633 734 633 c 0,40,41
 696 633 696 633 665.5 600.5 c 128,-1,42
 635 568 635 568 617 509.5 c 128,-1,43
 599 451 599 451 599 370 c 0,44,45
 599 272 599 272 620.5 198.5 c 128,-1,46
 642 125 642 125 678.5 84.5 c 128,-1,47
 715 44 715 44 759 44 c 0,33,34
EndSplineSet
Validated: 1
Substitution2: "'c2sc' Capitals to Small Capitals lookup 59 subtable" uni044E.sc
Substitution2: "'aalt' Access All Alternates lookup 0 subtable" uni044E.sc
EndChar

StartChar: uni042F
Encoding: 1071 1071 288
Width: 814
GlyphClass: 1
Flags: W
LayerCount: 2
Fore
SplineSet
281 0 m 1,0,-1
 15 0 l 1,1,-1
 15 16 l 1,2,-1
 93 60 l 1,3,-1
 273 326 l 1,4,5
 186 345 186 345 149 386.5 c 128,-1,6
 112 428 112 428 112 486 c 0,7,8
 112 574 112 574 187.5 625 c 128,-1,9
 263 676 263 676 394 676 c 2,10,-1
 783 676 l 1,11,-1
 783 659 l 1,12,-1
 692 616 l 1,13,-1
 692 59 l 1,14,-1
 783 16 l 1,15,-1
 783 0 l 1,16,-1
 421 0 l 1,17,-1
 421 16 l 1,18,-1
 498 60 l 1,19,-1
 498 302 l 1,20,-1
 468 302 l 1,21,-1
 281 0 l 1,0,-1
459 348 m 2,22,-1
 498 348 l 1,23,-1
 498 620 l 1,24,-1
 460 620 l 2,25,26
 388 620 388 620 345.5 586 c 128,-1,27
 303 552 303 552 303 486 c 0,28,29
 303 425 303 425 342 386.5 c 128,-1,30
 381 348 381 348 459 348 c 2,22,-1
EndSplineSet
Validated: 1
Substitution2: "'c2sc' Capitals to Small Capitals lookup 59 subtable" uni044F.sc
Substitution2: "'aalt' Access All Alternates lookup 0 subtable" uni044F.sc
EndChar

StartChar: uni0490
Encoding: 1168 1168 289
Width: 616
GlyphClass: 1
Flags: W
LayerCount: 2
Fore
SplineSet
31 0 m 1,0,-1
 31 16 l 1,1,-1
 122 59 l 1,2,-1
 122 616 l 1,3,-1
 31 659 l 1,4,-1
 31 676 l 1,5,-1
 489 676 l 1,6,-1
 600 856 l 1,7,-1
 616 856 l 1,8,-1
 616 620 l 1,9,-1
 316 620 l 1,10,-1
 316 59 l 1,11,-1
 429 16 l 1,12,-1
 429 0 l 1,13,-1
 31 0 l 1,0,-1
EndSplineSet
Validated: 1
Substitution2: "'c2sc' Capitals to Small Capitals lookup 59 subtable" uni0491.sc
Substitution2: "'aalt' Access All Alternates lookup 0 subtable" uni0491.sc
EndChar

StartChar: uni049A
Encoding: 1178 1178 290
Width: 829
GlyphClass: 1
Flags: W
LayerCount: 2
Fore
SplineSet
31 0 m 1,0,-1
 31 16 l 1,1,-1
 122 59 l 1,2,-1
 122 616 l 1,3,-1
 31 659 l 1,4,-1
 31 676 l 1,5,-1
 408 676 l 1,6,-1
 408 659 l 1,7,-1
 316 616 l 1,8,-1
 316 59 l 1,9,-1
 408 16 l 1,10,-1
 408 0 l 1,11,-1
 31 0 l 1,0,-1
317 338 m 5,12,-1
 596 621 l 1,13,-1
 517 659 l 1,14,-1
 517 676 l 1,15,-1
 775 676 l 1,16,-1
 775 659 l 1,17,-1
 705 628 l 1,18,-1
 488 423 l 1,19,-1
 742 56 l 1,20,-1
 825 56 l 1,21,-1
 825 -180 l 1,22,-1
 809 -180 l 1,23,-1
 698 0 l 1,24,-1
 546 0 l 1,25,-1
 317 338 l 5,12,-1
EndSplineSet
Validated: 1
Substitution2: "'c2sc' Capitals to Small Capitals lookup 59 subtable" uni049B.sc
Substitution2: "'aalt' Access All Alternates lookup 0 subtable" uni049B.sc
EndChar

StartChar: uni0496
Encoding: 1174 1174 291
Width: 1179
GlyphClass: 1
Flags: W
LayerCount: 2
Fore
SplineSet
412 0 m 1,0,-1
 412 16 l 1,1,-1
 493 59 l 1,2,-1
 493 616 l 1,3,-1
 412 659 l 1,4,-1
 412 676 l 1,5,-1
 768 676 l 1,6,-1
 768 659 l 1,7,-1
 687 616 l 1,8,-1
 687 59 l 1,9,-1
 768 16 l 1,10,-1
 768 0 l 1,11,-1
 412 0 l 1,0,-1
688 338 m 5,12,-1
 947 621 l 1,13,-1
 867 659 l 1,14,-1
 867 676 l 1,15,-1
 1125 676 l 1,16,-1
 1125 659 l 1,17,-1
 1040 622 l 1,18,-1
 855 429 l 1,19,-1
 1094 56 l 1,20,-1
 1176 56 l 1,21,-1
 1176 -180 l 1,22,-1
 1159 -180 l 1,23,-1
 1049 0 l 1,24,-1
 901 0 l 1,25,-1
 688 338 l 5,12,-1
492 338 m 1,26,-1
 279 0 l 1,27,-1
 4 0 l 1,28,-1
 4 16 l 1,29,-1
 94 53 l 1,30,-1
 327 417 l 1,31,-1
 127 625 l 1,32,-1
 49 659 l 1,33,-1
 49 676 l 1,34,-1
 312 676 l 1,35,-1
 312 659 l 1,36,-1
 232 621 l 1,37,-1
 492 338 l 1,26,-1
EndSplineSet
Validated: 1
Substitution2: "'c2sc' Capitals to Small Capitals lookup 59 subtable" uni0497.sc
Substitution2: "'aalt' Access All Alternates lookup 0 subtable" uni0497.sc
EndChar

StartChar: uni04B2
Encoding: 1202 1202 292
Width: 825
GlyphClass: 1
Flags: W
LayerCount: 2
Fore
SplineSet
20 0 m 1,0,-1
 20 16 l 1,1,-1
 105 58 l 1,2,-1
 314 307 l 1,3,-1
 101 618 l 1,4,-1
 31 659 l 1,5,-1
 31 676 l 1,6,-1
 422 676 l 1,7,-1
 422 659 l 1,8,-1
 342 617 l 1,9,-1
 342 612 l 1,10,-1
 466 435 l 1,11,-1
 608 612 l 1,12,-1
 608 616 l 1,13,-1
 526 659 l 1,14,-1
 526 676 l 1,15,-1
 783 676 l 1,16,-1
 783 659 l 1,17,-1
 712 624 l 1,18,-1
 504 382 l 1,19,-1
 732 56 l 1,20,-1
 805 56 l 1,21,-1
 805 -180 l 1,22,-1
 788 -180 l 1,23,-1
 678 0 l 1,24,-1
 409 0 l 1,25,-1
 409 16 l 1,26,-1
 482 56 l 1,27,-1
 482 60 l 1,28,-1
 353 250 l 1,29,-1
 198 62 l 1,30,-1
 195 58 l 1,31,-1
 276 16 l 1,32,-1
 276 0 l 1,33,-1
 20 0 l 1,0,-1
EndSplineSet
Validated: 1
Substitution2: "'c2sc' Capitals to Small Capitals lookup 59 subtable" uni04B3.sc
Substitution2: "'aalt' Access All Alternates lookup 0 subtable" uni04B3.sc
EndChar

StartChar: uni04A2
Encoding: 1186 1186 293
Width: 887
GlyphClass: 1
Flags: W
LayerCount: 2
Fore
SplineSet
31 0 m 1,0,-1
 31 16 l 1,1,-1
 122 59 l 1,2,-1
 122 616 l 1,3,-1
 31 659 l 1,4,-1
 31 676 l 1,5,-1
 395 676 l 1,6,-1
 395 659 l 1,7,-1
 316 616 l 1,8,-1
 316 376 l 1,9,-1
 558 376 l 1,10,-1
 558 616 l 1,11,-1
 477 659 l 1,12,-1
 477 676 l 1,13,-1
 842 676 l 1,14,-1
 842 659 l 1,15,-1
 753 616 l 1,16,-1
 753 56 l 1,17,-1
 857 56 l 1,18,-1
 857 -180 l 1,19,-1
 841 -180 l 1,20,-1
 730 0 l 1,21,-1
 477 0 l 1,22,-1
 477 16 l 1,23,-1
 558 59 l 1,24,-1
 558 319 l 1,25,-1
 316 319 l 1,26,-1
 316 59 l 1,27,-1
 395 16 l 1,28,-1
 395 0 l 1,29,-1
 31 0 l 1,0,-1
EndSplineSet
Validated: 1
Substitution2: "'c2sc' Capitals to Small Capitals lookup 59 subtable" uni04A3.sc
Substitution2: "'aalt' Access All Alternates lookup 0 subtable" uni04A3.sc
EndChar

StartChar: uni04B6
Encoding: 1206 1206 294
Width: 846
GlyphClass: 1
Flags: W
LayerCount: 2
Fore
SplineSet
101 492 m 2,0,-1
 101 616 l 1,1,-1
 10 659 l 1,2,-1
 10 676 l 1,3,-1
 375 676 l 1,4,-1
 375 659 l 1,5,-1
 296 616 l 1,6,-1
 296 485 l 2,7,8
 296 405 296 405 324 375 c 128,-1,9
 352 345 352 345 415 345 c 0,10,11
 440 345 440 345 466.5 349.5 c 128,-1,12
 493 354 493 354 517 367 c 1,13,-1
 517 616 l 1,14,-1
 436 659 l 1,15,-1
 436 676 l 1,16,-1
 801 676 l 1,17,-1
 801 659 l 1,18,-1
 712 616 l 1,19,-1
 712 56 l 1,20,-1
 816 56 l 1,21,-1
 816 -180 l 1,22,-1
 800 -180 l 1,23,-1
 689 0 l 1,24,-1
 416 0 l 1,25,-1
 416 16 l 1,26,-1
 517 59 l 1,27,-1
 517 310 l 1,28,29
 482 293 482 293 432.5 280.5 c 128,-1,30
 383 268 383 268 328 268 c 0,31,32
 256 268 256 268 205.5 288 c 128,-1,33
 155 308 155 308 128 357 c 128,-1,34
 101 406 101 406 101 492 c 2,0,-1
EndSplineSet
Validated: 1
Substitution2: "'c2sc' Capitals to Small Capitals lookup 59 subtable" uni04B7.sc
Substitution2: "'aalt' Access All Alternates lookup 0 subtable" uni04B7.sc
EndChar

StartChar: uni04B0
Encoding: 1200 1200 296
Width: 796
GlyphClass: 1
Flags: W
LayerCount: 2
Fore
SplineSet
500 315 m 21,0,-1
 643 315 l 1,1,-1
 643 259 l 1,2,-1
 500 259 l 1,3,-1
 500 59 l 1,4,-1
 591 16 l 1,5,-1
 591 0 l 1,6,-1
 214 0 l 1,7,-1
 214 16 l 1,8,-1
 305 59 l 1,9,-1
 305 259 l 1,10,-1
 162 259 l 1,11,-1
 162 315 l 9,12,-1
 305 315 l 17,13,-1
 84 616 l 1,14,-1
 10 659 l 1,15,-1
 10 676 l 1,16,-1
 372 676 l 1,17,-1
 372 659 l 1,18,-1
 293 620 l 1,19,-1
 293 615 l 1,20,-1
 468 380 l 1,21,-1
 625 613 l 1,22,-1
 625 617 l 1,23,-1
 543 659 l 1,24,-1
 543 676 l 1,25,-1
 786 676 l 1,26,-1
 786 659 l 1,27,-1
 716 626 l 9,28,-1
 500 315 l 21,0,-1
EndSplineSet
Validated: 1
Substitution2: "'c2sc' Capitals to Small Capitals lookup 59 subtable" uni04B1.sc
Substitution2: "'aalt' Access All Alternates lookup 0 subtable" uni04B1.sc
EndChar

StartChar: uni04BA
Encoding: 1210 1210 297
Width: 826
GlyphClass: 1
Flags: W
LayerCount: 2
Fore
SplineSet
730 184 m 2,0,-1
 730 59 l 1,1,-1
 821 16 l 1,2,-1
 821 0 l 1,3,-1
 457 0 l 1,4,-1
 457 16 l 1,5,-1
 536 59 l 1,6,-1
 536 190 l 2,7,8
 536 270 536 270 508 300.5 c 128,-1,9
 480 331 480 331 417 331 c 0,10,11
 392 331 392 331 365.5 326.5 c 128,-1,12
 339 322 339 322 314 309 c 1,13,-1
 314 59 l 1,14,-1
 395 16 l 1,15,-1
 395 0 l 1,16,-1
 31 0 l 1,17,-1
 31 16 l 1,18,-1
 120 59 l 1,19,-1
 120 616 l 1,20,-1
 31 659 l 1,21,-1
 31 676 l 1,22,-1
 416 676 l 1,23,-1
 416 659 l 1,24,-1
 314 616 l 1,25,-1
 314 366 l 1,26,27
 349 383 349 383 399 395.5 c 128,-1,28
 449 408 449 408 504 408 c 0,29,30
 577 408 577 408 627 388 c 128,-1,31
 677 368 677 368 703.5 319 c 128,-1,32
 730 270 730 270 730 184 c 2,0,-1
EndSplineSet
Validated: 1
Substitution2: "'c2sc' Capitals to Small Capitals lookup 59 subtable" uni04BB.sc
Substitution2: "'aalt' Access All Alternates lookup 0 subtable" uni04BB.sc
EndChar

StartChar: uni04E8
Encoding: 1256 1256 300
Width: 795
GlyphClass: 1
Flags: W
LayerCount: 2
Fore
SplineSet
397 -10 m 256,0,1
 319 -10 319 -10 253.5 16 c 128,-1,2
 188 42 188 42 139 88.5 c 128,-1,3
 90 135 90 135 63 199 c 128,-1,4
 36 263 36 263 36 338 c 0,5,6
 36 414 36 414 63 477.5 c 128,-1,7
 90 541 90 541 139 587.5 c 128,-1,8
 188 634 188 634 253.5 660 c 128,-1,9
 319 686 319 686 397 686 c 256,10,11
 475 686 475 686 541 660 c 128,-1,12
 607 634 607 634 656.5 587.5 c 128,-1,13
 706 541 706 541 733 477.5 c 128,-1,14
 760 414 760 414 760 338 c 0,15,16
 760 263 760 263 733 199 c 128,-1,17
 706 135 706 135 656.5 88.5 c 128,-1,18
 607 42 607 42 541 16 c 128,-1,19
 475 -10 475 -10 397 -10 c 256,0,1
386 633 m 0,20,21
 345 633 345 633 312 600.5 c 128,-1,22
 279 568 279 568 260 511 c 128,-1,23
 241 454 241 454 241 376 c 1,24,-1
 552 376 l 1,25,26
 541 495 541 495 494.5 564 c 128,-1,27
 448 633 448 633 386 633 c 0,20,21
411 44 m 256,28,29
 454 44 454 44 486.5 77 c 128,-1,30
 519 110 519 110 537 169 c 128,-1,31
 555 228 555 228 555 308 c 2,32,33
 555 308 555 308 555 309.5 c 128,-1,34
 555 311 555 311 555 319 c 1,35,-1
 243 319 l 1,36,37
 248 235 248 235 272 173.5 c 128,-1,38
 296 112 296 112 332 78 c 128,-1,39
 368 44 368 44 411 44 c 256,28,29
EndSplineSet
Validated: 1
Substitution2: "'c2sc' Capitals to Small Capitals lookup 59 subtable" uni04E9.sc
Substitution2: "'aalt' Access All Alternates lookup 0 subtable" uni04E9.sc
EndChar

StartChar: uni0462
Encoding: 1122 1122 301
Width: 811
GlyphClass: 1
Flags: W
LayerCount: 2
Fore
SplineSet
495 0 m 2,0,-1
 118 0 l 1,1,-1
 118 16 l 1,2,-1
 209 59 l 1,3,-1
 209 509 l 1,4,-1
 127 509 l 1,5,-1
 37 380 l 1,6,-1
 20 380 l 1,7,-1
 20 565 l 1,8,-1
 209 565 l 1,9,-1
 209 616 l 1,10,-1
 118 659 l 1,11,-1
 118 676 l 1,12,-1
 515 676 l 1,13,-1
 515 659 l 1,14,-1
 403 616 l 1,15,-1
 403 565 l 1,16,-1
 623 565 l 1,17,-1
 623 380 l 1,18,-1
 606 380 l 1,19,-1
 516 509 l 1,20,-1
 403 509 l 1,21,-1
 403 345 l 1,22,-1
 495 345 l 2,23,24
 580 345 580 345 647 325.5 c 128,-1,25
 714 306 714 306 752.5 268.5 c 128,-1,26
 791 231 791 231 791 178 c 0,27,28
 791 122 791 122 752.5 82.5 c 128,-1,29
 714 43 714 43 647 21.5 c 128,-1,30
 580 0 580 0 495 0 c 2,0,-1
445 289 m 2,31,-1
 403 289 l 1,32,-1
 403 56 l 1,33,-1
 453 56 l 2,34,35
 520 56 520 56 557.5 90.5 c 128,-1,36
 595 125 595 125 595 175 c 0,37,38
 595 232 595 232 556.5 260.5 c 128,-1,39
 518 289 518 289 445 289 c 2,31,-1
EndSplineSet
Validated: 1
Substitution2: "'c2sc' Capitals to Small Capitals lookup 59 subtable" uni0463.sc
Substitution2: "'aalt' Access All Alternates lookup 0 subtable" uni0463.sc
EndChar

StartChar: uni0472
Encoding: 1138 1138 302
Width: 795
GlyphClass: 1
Flags: W
LayerCount: 2
Fore
SplineSet
397 -10 m 260,0,1
 319 -10 319 -10 253.5 16 c 132,-1,2
 188 42 188 42 139 88.5 c 132,-1,3
 90 135 90 135 63 199 c 132,-1,4
 36 263 36 263 36 338 c 4,5,6
 36 414 36 414 63 477.5 c 132,-1,7
 90 541 90 541 139 587.5 c 132,-1,8
 188 634 188 634 253.5 660 c 132,-1,9
 319 686 319 686 397 686 c 260,10,11
 475 686 475 686 541 660 c 132,-1,12
 607 634 607 634 656.5 587.5 c 132,-1,13
 706 541 706 541 733 477.5 c 132,-1,14
 760 414 760 414 760 338 c 4,15,16
 760 263 760 263 733 199 c 132,-1,17
 706 135 706 135 656.5 88.5 c 132,-1,18
 607 42 607 42 541 16 c 132,-1,19
 475 -10 475 -10 397 -10 c 260,0,1
241 370 m 6,20,21
 241 370 241 370 241 369 c 132,-1,22
 241 368 241 368 241 361 c 5,23,24
 298 395 298 395 338 403 c 4,25,26
 358 407 358 407 375.5 407 c 132,-1,27
 393 407 393 407 408 403 c 4,28,29
 438 396 438 396 462 384 c 4,30,31
 484 372 484 372 506 366 c 4,32,33
 513 364 513 364 521 364 c 4,34,35
 536 364 536 364 552 372 c 5,36,37
 542 492 542 492 496 562.5 c 132,-1,38
 450 633 450 633 386 633 c 4,39,40
 345 633 345 633 312 600.5 c 132,-1,41
 279 568 279 568 260 509.5 c 132,-1,42
 241 451 241 451 241 370 c 6,20,21
411 44 m 4,43,44
 454 44 454 44 486.5 77 c 132,-1,45
 519 110 519 110 537 169 c 132,-1,46
 555 228 555 228 555 308 c 6,47,48
 555 308 555 308 555 309.5 c 132,-1,49
 555 311 555 311 555 322 c 5,50,51
 504 286 504 286 466 278 c 4,52,53
 446 274 446 274 430 274 c 132,-1,54
 414 274 414 274 400 278 c 4,55,56
 372 286 372 286 349 298 c 132,-1,57
 326 310 326 310 300 316 c 4,58,59
 292 318 292 318 285 318 c 4,60,61
 266 318 266 318 244 308 c 5,62,63
 250 227 250 227 274 168 c 132,-1,64
 298 109 298 109 333.5 76.5 c 132,-1,65
 369 44 369 44 411 44 c 4,43,44
EndSplineSet
Validated: 1
Substitution2: "'c2sc' Capitals to Small Capitals lookup 59 subtable" uni0473.sc
Substitution2: "'aalt' Access All Alternates lookup 0 subtable" uni0473.sc
EndChar

StartChar: uni0474
Encoding: 1140 1140 303
Width: 781
GlyphClass: 1
Flags: W
LayerCount: 2
Fore
SplineSet
568 503 m 2,0,1
 598 580 598 580 622.5 619 c 128,-1,2
 647 658 647 658 672.5 672 c 128,-1,3
 698 686 698 686 729 686 c 0,4,5
 761 686 761 686 773.5 674 c 128,-1,6
 786 662 786 662 786 633 c 2,7,-1
 786 557 l 1,8,-1
 685 557 l 1,9,10
 663 537 663 537 646.5 505.5 c 128,-1,11
 630 474 630 474 606 415 c 2,12,-1
 439 -5 l 1,13,-1
 365 -5 l 1,14,-1
 84 616 l 1,15,-1
 9 659 l 1,16,-1
 9 676 l 1,17,-1
 370 676 l 1,18,-1
 370 659 l 1,19,-1
 291 621 l 1,20,-1
 460 246 l 1,21,-1
 468 246 l 1,22,-1
 568 503 l 2,0,1
EndSplineSet
Validated: 1
Substitution2: "'c2sc' Capitals to Small Capitals lookup 59 subtable" uni0475.sc
Substitution2: "'aalt' Access All Alternates lookup 0 subtable" uni0475.sc
EndChar

StartChar: uni0414.bgr
Encoding: 65538 -1 304
Width: 750
GlyphClass: 1
Flags: W
LayerCount: 2
Fore
SplineSet
0 56 m 1,0,-1
 77 56 l 1,1,-1
 343 681 l 1,2,-1
 418 681 l 1,3,-1
 681 56 l 1,4,-1
 751 56 l 1,5,-1
 751 -180 l 1,6,-1
 734 -180 l 1,7,-1
 624 0 l 1,8,-1
 127 0 l 1,9,-1
 16 -180 l 1,10,-1
 0 -180 l 1,11,-1
 0 56 l 1,0,-1
154 56 m 1,12,-1
 472 56 l 1,13,-1
 317 433 l 1,14,-1
 308 433 l 1,15,-1
 154 56 l 1,12,-1
EndSplineSet
Validated: 1
Substitution2: "'c2sc' Capitals to Small Capitals lookup 59 subtable" uni0434.bgr.sc
Substitution2: "'aalt' Access All Alternates lookup 0 subtable" uni0434.bgr.sc
EndChar

StartChar: uni041B.bgr
Encoding: 65541 -1 307
Width: 798
GlyphClass: 1
Flags: W
LayerCount: 2
Fore
SplineSet
433 681 m 1,0,-1
 714 59 l 1,1,-1
 788 16 l 1,2,-1
 788 0 l 1,3,-1
 428 0 l 1,4,-1
 428 16 l 1,5,-1
 507 55 l 1,6,-1
 333 441 l 1,7,-1
 324 441 l 1,8,-1
 150 56 l 1,9,-1
 232 16 l 1,10,-1
 232 0 l 1,11,-1
 10 0 l 1,12,-1
 10 16 l 1,13,-1
 71 50 l 1,14,-1
 358 681 l 1,15,-1
 433 681 l 1,0,-1
EndSplineSet
Validated: 1
Substitution2: "'c2sc' Capitals to Small Capitals lookup 59 subtable" uni043B.bgr.sc
Substitution2: "'aalt' Access All Alternates lookup 0 subtable" uni043B.bgr.sc
EndChar

StartChar: a
Encoding: 97 97 308
Width: 543
GlyphClass: 2
Flags: W
AnchorPoint: "Anchor-3" 264 522 basechar 0
AnchorPoint: "Anchor-2" 470 0 basechar 0
AnchorPoint: "Anchor-0" 254 0 basechar 0
LayerCount: 2
Fore
SplineSet
152 -9 m 0,0,1
 94 -9 94 -9 60 25.5 c 128,-1,2
 26 60 26 60 26 113 c 0,3,4
 26 153 26 153 38 178.5 c 128,-1,5
 50 204 50 204 84.5 222.5 c 128,-1,6
 119 241 119 241 184 258 c 2,7,-1
 289 286 l 1,8,-1
 289 341 l 2,9,10
 289 424 289 424 211 424 c 0,11,12
 183 424 183 424 162 415 c 1,13,-1
 162 304 l 1,14,-1
 71 304 l 2,15,16
 52 304 52 304 45.5 314 c 128,-1,17
 39 324 39 324 39 343 c 0,18,19
 39 368 39 368 58.5 392.5 c 128,-1,20
 78 417 78 417 110 437 c 128,-1,21
 142 457 142 457 182 469 c 128,-1,22
 222 481 222 481 264 481 c 0,23,24
 323 481 323 481 370.5 465.5 c 128,-1,25
 418 450 418 450 445.5 418 c 128,-1,26
 473 386 473 386 473 338 c 2,27,-1
 473 80 l 1,28,29
 481 73 481 73 492 69 c 128,-1,30
 503 65 503 65 517 65 c 2,31,-1
 540 65 l 1,32,-1
 544 60 l 1,33,-1
 544 39 l 1,34,35
 533 23 533 23 504 6.5 c 128,-1,36
 475 -10 475 -10 427 -10 c 0,37,38
 375 -10 375 -10 342.5 9 c 128,-1,39
 310 28 310 28 293 66 c 1,40,-1
 289 66 l 1,41,42
 230 -9 230 -9 152 -9 c 0,0,1
197 151 m 0,43,44
 197 119 197 119 213.5 102.5 c 128,-1,45
 230 86 230 86 259 86 c 0,46,47
 273 86 273 86 289 91 c 1,48,-1
 289 239 l 1,49,50
 237 227 237 227 217 207 c 128,-1,51
 197 187 197 187 197 151 c 0,43,44
EndSplineSet
Validated: 1
Substitution2: "'ss04' Style Set 4 lookup 72 subtable" blacksquare
Substitution2: "'case' Case-Sensitive Forms lookup 61 subtable" A
Substitution2: "'smcp' Lowercase to Small Capitals lookup 60 subtable" a.sc
Substitution2: "'c2sc' Capitals to Small Capitals lookup 59 subtable" a.sc
Substitution2: "'sups' Superscript lookup 53 subtable" a.superior
Substitution2: "Single Substitution lookup 21 subtable" ordfeminine
AlternateSubs2: "'aalt' Access All Alternates lookup 1 subtable" ordfeminine a.superior a.sc A blacksquare
EndChar

StartChar: b
Encoding: 98 98 309
Width: 610
GlyphClass: 1
Flags: W
LayerCount: 2
Fore
SplineSet
83 0 m 1,0,-1
 83 651 l 1,1,-1
 15 695 l 1,2,-1
 15 712 l 1,3,-1
 251 768 l 1,4,-1
 267 768 l 1,5,-1
 267 422 l 1,6,-1
 273 422 l 1,7,8
 309 454 309 454 343.5 467.5 c 128,-1,9
 378 481 378 481 417 481 c 0,10,11
 459 481 459 481 497.5 453.5 c 128,-1,12
 536 426 536 426 560.5 375 c 128,-1,13
 585 324 585 324 585 253 c 0,14,15
 585 173 585 173 551 113.5 c 128,-1,16
 517 54 517 54 462 22 c 128,-1,17
 407 -10 407 -10 343 -10 c 0,18,19
 300 -10 300 -10 264 -1 c 128,-1,20
 228 8 228 8 198 35 c 1,21,-1
 99 0 l 1,22,-1
 83 0 l 1,0,-1
314 388 m 0,23,24
 300 388 300 388 290.5 384.5 c 128,-1,25
 281 381 281 381 267 374 c 1,26,-1
 267 73 l 1,27,28
 272 62 272 62 285 54 c 128,-1,29
 298 46 298 46 313 46 c 0,30,31
 332 46 332 46 352.5 60 c 128,-1,32
 373 74 373 74 386.5 112.5 c 128,-1,33
 400 151 400 151 400 225 c 0,34,35
 400 308 400 308 372 348 c 128,-1,36
 344 388 344 388 314 388 c 0,23,24
EndSplineSet
Validated: 1
Substitution2: "'ss04' Style Set 4 lookup 72 subtable" blackdiamond
Substitution2: "'case' Case-Sensitive Forms lookup 61 subtable" B
Substitution2: "'smcp' Lowercase to Small Capitals lookup 60 subtable" b.sc
Substitution2: "'c2sc' Capitals to Small Capitals lookup 59 subtable" b.sc
Substitution2: "'sups' Superscript lookup 53 subtable" b.superior
AlternateSubs2: "'aalt' Access All Alternates lookup 1 subtable" b.superior b.sc B blackdiamond
EndChar

StartChar: c
Encoding: 99 99 310
Width: 499
GlyphClass: 2
Flags: W
AnchorPoint: "Anchor-3" 281 522 basechar 0
AnchorPoint: "Anchor-0" 280 0 basechar 0
LayerCount: 2
Fore
SplineSet
257 -10 m 0,0,1
 191 -10 191 -10 140 18 c 128,-1,2
 89 46 89 46 60 96 c 128,-1,3
 31 146 31 146 31 214 c 0,4,5
 31 296 31 296 66.5 356 c 128,-1,6
 102 416 102 416 165 448.5 c 128,-1,7
 228 481 228 481 307 481 c 0,8,9
 367 481 367 481 402.5 461.5 c 128,-1,10
 438 442 438 442 453.5 418.5 c 128,-1,11
 469 395 469 395 469 383 c 0,12,13
 469 368 469 368 456 357 c 2,14,-1
 406 317 l 1,15,-1
 293 436 l 2,16,17
 291 436 291 436 286 436 c 0,18,19
 245 436 245 436 224.5 392 c 128,-1,20
 204 348 204 348 204 282 c 0,21,22
 204 210 204 210 237.5 166 c 128,-1,23
 271 122 271 122 339 122 c 0,24,25
 369 122 369 122 401.5 127 c 128,-1,26
 434 132 434 132 466 148 c 1,27,-1
 469 148 l 1,28,-1
 469 127 l 1,29,30
 443 68 443 68 388 29 c 128,-1,31
 333 -10 333 -10 257 -10 c 0,0,1
EndSplineSet
Validated: 1
Substitution2: "'ss04' Style Set 4 lookup 72 subtable" blackcircle
Substitution2: "'case' Case-Sensitive Forms lookup 61 subtable" C
Substitution2: "'smcp' Lowercase to Small Capitals lookup 60 subtable" c.sc
Substitution2: "'c2sc' Capitals to Small Capitals lookup 59 subtable" c.sc
Substitution2: "'sups' Superscript lookup 53 subtable" c.superior
AlternateSubs2: "'aalt' Access All Alternates lookup 1 subtable" c.superior c.sc C blackcircle
EndChar

StartChar: d
Encoding: 100 100 311
Width: 613
GlyphClass: 2
Flags: W
AnchorPoint: "Anchor-2" 650 758 basechar 0
AnchorPoint: "Anchor-0" 310 0 basechar 0
LayerCount: 2
Fore
SplineSet
194 -10 m 0,0,1
 152 -10 152 -10 113.5 15.5 c 128,-1,2
 75 41 75 41 50.5 88.5 c 128,-1,3
 26 136 26 136 26 200 c 0,4,5
 26 285 26 285 54.5 348.5 c 128,-1,6
 83 412 83 412 136 446.5 c 128,-1,7
 189 481 189 481 262 481 c 0,8,9
 284 481 284 481 304 479 c 128,-1,10
 324 477 324 477 343 472 c 1,11,-1
 343 651 l 1,12,-1
 270 697 l 1,13,-1
 270 712 l 1,14,-1
 511 768 l 1,15,-1
 527 768 l 1,16,-1
 527 46 l 1,17,-1
 598 16 l 1,18,-1
 598 0 l 1,19,-1
 353 0 l 1,20,-1
 345 50 l 1,21,-1
 338 50 l 1,22,23
 301 18 301 18 267 4 c 128,-1,24
 233 -10 233 -10 194 -10 c 0,0,1
210 237 m 0,25,26
 210 159 210 159 238 121 c 128,-1,27
 266 83 266 83 296 83 c 0,28,29
 310 83 310 83 320 86.5 c 128,-1,30
 330 90 330 90 343 97 c 1,31,-1
 343 398 l 1,32,33
 338 409 338 409 324.5 417 c 128,-1,34
 311 425 311 425 296 425 c 0,35,36
 273 425 273 425 253 410.5 c 128,-1,37
 233 396 233 396 221.5 356 c 128,-1,38
 210 316 210 316 210 237 c 0,25,26
EndSplineSet
Validated: 1
Substitution2: "'ss04' Style Set 4 lookup 72 subtable" blacktriangle
Substitution2: "'case' Case-Sensitive Forms lookup 61 subtable" D
Substitution2: "'smcp' Lowercase to Small Capitals lookup 60 subtable" d.sc
Substitution2: "'c2sc' Capitals to Small Capitals lookup 59 subtable" d.sc
Substitution2: "'sups' Superscript lookup 53 subtable" d.superior
AlternateSubs2: "'aalt' Access All Alternates lookup 1 subtable" d.superior d.sc D blacktriangle
EndChar

StartChar: e
Encoding: 101 101 312
Width: 515
GlyphClass: 2
Flags: W
AnchorPoint: "Anchor-3" 276 522 basechar 0
AnchorPoint: "Anchor-2" 409 0 basechar 0
AnchorPoint: "Anchor-0" 286 0 basechar 0
LayerCount: 2
Fore
SplineSet
267 -10 m 0,0,1
 157 -10 157 -10 94 51.5 c 128,-1,2
 31 113 31 113 31 214 c 0,3,4
 31 293 31 293 67 353 c 128,-1,5
 103 413 103 413 165.5 447 c 128,-1,6
 228 481 228 481 306 481 c 0,7,8
 391 481 391 481 436.5 426.5 c 128,-1,9
 482 372 482 372 483 273 c 1,10,-1
 480 268 l 1,11,-1
 207 268 l 1,12,13
 207 261 207 261 207 253 c 0,14,15
 207 195 207 195 243.5 158.5 c 128,-1,16
 280 122 280 122 354 122 c 0,17,18
 384 122 384 122 417 127 c 128,-1,19
 450 132 450 132 481 148 c 1,20,-1
 484 148 l 1,21,-1
 484 127 l 1,22,23
 458 68 458 68 401.5 29 c 128,-1,24
 345 -10 345 -10 267 -10 c 0,0,1
278 435 m 0,25,26
 250 435 250 435 232.5 403.5 c 128,-1,27
 215 372 215 372 210 313 c 1,28,-1
 346 313 l 1,29,30
 340 384 340 384 323.5 409.5 c 128,-1,31
 307 435 307 435 278 435 c 0,25,26
EndSplineSet
Validated: 1
Substitution2: "'case' Case-Sensitive Forms lookup 61 subtable" E
Substitution2: "'smcp' Lowercase to Small Capitals lookup 60 subtable" e.sc
Substitution2: "'c2sc' Capitals to Small Capitals lookup 59 subtable" e.sc
Substitution2: "'sups' Superscript lookup 53 subtable" e.superior
AlternateSubs2: "'aalt' Access All Alternates lookup 1 subtable" e.superior e.sc E
EndChar

StartChar: f
Encoding: 102 102 313
Width: 398
GlyphClass: 1
Flags: W
LayerCount: 2
Fore
SplineSet
26 0 m 1,0,-1
 26 16 l 1,1,-1
 96 49 l 1,2,-1
 96 426 l 1,3,-1
 20 426 l 1,4,-1
 20 471 l 1,5,-1
 96 471 l 1,6,-1
 96 489 l 2,7,8
 96 525 96 525 114.5 564 c 128,-1,9
 133 603 133 603 164.5 639.5 c 128,-1,10
 196 676 196 676 233.5 705 c 128,-1,11
 271 734 271 734 310 751 c 128,-1,12
 349 768 349 768 383 768 c 0,13,14
 435 768 435 768 435 728 c 0,15,16
 435 722 435 722 433 712 c 2,17,-1
 419 644 l 1,18,-1
 297 682 l 1,19,20
 288 660 288 660 284.5 626.5 c 128,-1,21
 281 593 281 593 281 532 c 2,22,-1
 281 471 l 1,23,-1
 393 471 l 1,24,-1
 393 426 l 1,25,-1
 281 426 l 1,26,-1
 281 49 l 1,27,-1
 365 16 l 1,28,-1
 365 0 l 1,29,-1
 26 0 l 1,0,-1
EndSplineSet
Validated: 1
Substitution2: "'case' Case-Sensitive Forms lookup 61 subtable" F
Substitution2: "'smcp' Lowercase to Small Capitals lookup 60 subtable" f.sc
Substitution2: "'c2sc' Capitals to Small Capitals lookup 59 subtable" f.sc
Substitution2: "'sups' Superscript lookup 53 subtable" f.superior
AlternateSubs2: "'aalt' Access All Alternates lookup 1 subtable" f.superior f.sc F
EndChar

StartChar: g
Encoding: 103 103 314
Width: 550
GlyphClass: 2
Flags: W
AnchorPoint: "Anchor-3" 261 522 basechar 0
LayerCount: 2
Fore
SplineSet
245 168 m 0,0,1
 207 168 207 168 172 178 c 1,2,3
 148 159 148 159 148 132 c 0,4,5
 148 114 148 114 171 105.5 c 128,-1,6
 194 97 194 97 244 97 c 2,7,-1
 346 97 l 2,8,9
 430 97 430 97 470 60.5 c 128,-1,10
 510 24 510 24 510 -48 c 0,11,12
 510 -96 510 -96 480 -141.5 c 128,-1,13
 450 -187 450 -187 390.5 -216.5 c 128,-1,14
 331 -246 331 -246 245 -246 c 0,15,16
 145 -246 145 -246 96 -213 c 128,-1,17
 47 -180 47 -180 47 -126 c 0,18,19
 47 -103 47 -103 57 -82 c 1,20,-1
 119 -45 l 1,21,-1
 119 -40 l 1,22,23
 45 -8 45 -8 45 76 c 0,24,25
 45 93 45 93 48.5 110.5 c 128,-1,26
 52 128 52 128 57 143 c 1,27,-1
 133 195 l 1,28,29
 95 215 95 215 72 249 c 128,-1,30
 49 283 49 283 49 325 c 0,31,32
 49 369 49 369 75 404 c 128,-1,33
 101 439 101 439 145 459.5 c 128,-1,34
 189 480 189 480 245 480 c 0,35,36
 278 480 278 480 306.5 473.5 c 128,-1,37
 335 467 335 467 352 457 c 1,38,-1
 512 470 l 1,39,-1
 512 403 l 1,40,-1
 398 414 l 1,41,-1
 396 413 l 1,42,43
 415 397 415 397 427 373.5 c 128,-1,44
 439 350 439 350 439 325 c 0,45,46
 439 281 439 281 413.5 245 c 128,-1,47
 388 209 388 209 344 188.5 c 128,-1,48
 300 168 300 168 245 168 c 0,0,1
249 213 m 0,49,50
 294 213 294 213 294 322 c 0,51,52
 294 380 294 380 280.5 408 c 128,-1,53
 267 436 267 436 245 436 c 0,54,55
 225 436 225 436 211 412 c 128,-1,56
 197 388 197 388 197 328 c 0,57,58
 197 269 197 269 210.5 241 c 128,-1,59
 224 213 224 213 249 213 c 0,49,50
142 -98 m 0,60,61
 142 -145 142 -145 172.5 -174.5 c 128,-1,62
 203 -204 203 -204 253 -204 c 0,63,64
 307 -204 307 -204 336.5 -179.5 c 128,-1,65
 366 -155 366 -155 366 -117 c 0,66,67
 366 -83 366 -83 348 -69.5 c 128,-1,68
 330 -56 330 -56 285 -56 c 2,69,-1
 211 -56 l 2,70,71
 191 -56 191 -56 172 -54 c 1,72,73
 142 -63 142 -63 142 -98 c 0,60,61
EndSplineSet
Validated: 1
Substitution2: "'case' Case-Sensitive Forms lookup 61 subtable" G
Substitution2: "'smcp' Lowercase to Small Capitals lookup 60 subtable" g.sc
Substitution2: "'c2sc' Capitals to Small Capitals lookup 59 subtable" g.sc
Substitution2: "'sups' Superscript lookup 53 subtable" g.superior
AlternateSubs2: "'aalt' Access All Alternates lookup 1 subtable" g.superior g.sc G
EndChar

StartChar: h
Encoding: 104 104 315
Width: 656
GlyphClass: 2
Flags: W
AnchorPoint: "Anchor-3" 334 783 basechar 0
AnchorPoint: "Anchor-0" 334 0 basechar 0
LayerCount: 2
Fore
SplineSet
20 0 m 1,0,-1
 20 16 l 1,1,-1
 91 49 l 1,2,-1
 91 651 l 1,3,-1
 24 695 l 1,4,-1
 24 712 l 1,5,-1
 259 768 l 1,6,-1
 275 768 l 1,7,-1
 275 406 l 1,8,-1
 280 406 l 1,9,10
 315 440 315 440 348 460.5 c 128,-1,11
 381 481 381 481 431 481 c 0,12,13
 494 481 494 481 534.5 448.5 c 128,-1,14
 575 416 575 416 575 351 c 2,15,-1
 575 49 l 1,16,-1
 646 16 l 1,17,-1
 646 0 l 1,18,-1
 353 0 l 1,19,-1
 353 16 l 1,20,-1
 391 49 l 1,21,-1
 391 313 l 2,22,23
 391 343 391 343 375 359 c 128,-1,24
 359 375 359 375 334 375 c 0,25,26
 320 375 320 375 304 368.5 c 128,-1,27
 288 362 288 362 275 354 c 1,28,-1
 275 49 l 1,29,-1
 313 16 l 1,30,-1
 313 0 l 1,31,-1
 20 0 l 1,0,-1
EndSplineSet
Validated: 1
Substitution2: "'case' Case-Sensitive Forms lookup 61 subtable" H
Substitution2: "'smcp' Lowercase to Small Capitals lookup 60 subtable" h.sc
Substitution2: "'c2sc' Capitals to Small Capitals lookup 59 subtable" h.sc
Substitution2: "'sups' Superscript lookup 53 subtable" h.superior
AlternateSubs2: "'aalt' Access All Alternates lookup 1 subtable" h.superior h.sc H
EndChar

StartChar: i
Encoding: 105 105 316
Width: 354
GlyphClass: 2
Flags: W
AnchorPoint: "Anchor-3" 183 522 basechar 0
AnchorPoint: "Anchor-2" 215 0 basechar 0
AnchorPoint: "Anchor-0" 183 0 basechar 0
LayerCount: 2
Fore
SplineSet
181 567 m 256,0,1
 145 567 145 567 121.5 590.5 c 128,-1,2
 98 614 98 614 98 650 c 256,3,4
 98 686 98 686 121.5 709.5 c 128,-1,5
 145 733 145 733 181 733 c 256,6,7
 217 733 217 733 240.5 709.5 c 128,-1,8
 264 686 264 686 264 650 c 256,9,10
 264 614 264 614 240.5 590.5 c 128,-1,11
 217 567 217 567 181 567 c 256,0,1
20 0 m 1,12,-1
 20 16 l 1,13,-1
 91 49 l 1,14,-1
 91 365 l 1,15,-1
 24 409 l 1,16,-1
 24 425 l 1,17,-1
 259 481 l 1,18,-1
 275 481 l 1,19,-1
 275 49 l 1,20,-1
 334 16 l 1,21,-1
 334 0 l 1,22,-1
 20 0 l 1,12,-1
EndSplineSet
Validated: 1
Substitution2: "'case' Case-Sensitive Forms lookup 61 subtable" I
Substitution2: "'smcp' Lowercase to Small Capitals lookup 60 subtable" i.sc
Substitution2: "'c2sc' Capitals to Small Capitals lookup 59 subtable" i.sc
Substitution2: "'sups' Superscript lookup 53 subtable" i.superior
Substitution2: "'locl' Localized Forms in Latin lookup 15 subtable" idotaccent
Substitution2: "'locl' Localized Forms in Latin lookup 10 subtable" idotaccent
Substitution2: "'locl' Localized Forms in Latin lookup 6 subtable" idotaccent
Substitution2: "Single Substitution lookup 3 subtable" idotless
AlternateSubs2: "'aalt' Access All Alternates lookup 1 subtable" idotaccent i.superior i.sc I
EndChar

StartChar: j
Encoding: 106 106 317
Width: 349
GlyphClass: 2
Flags: W
AnchorPoint: "Anchor-3" 180 522 basechar 0
LayerCount: 2
Fore
SplineSet
178 567 m 256,0,1
 142 567 142 567 118.5 590.5 c 128,-1,2
 95 614 95 614 95 650 c 256,3,4
 95 686 95 686 118.5 709.5 c 128,-1,5
 142 733 142 733 178 733 c 256,6,7
 214 733 214 733 237.5 709.5 c 128,-1,8
 261 686 261 686 261 650 c 256,9,10
 261 614 261 614 237.5 590.5 c 128,-1,11
 214 567 214 567 178 567 c 256,0,1
24 -236 m 1,12,-1
 24 -215 l 1,13,14
 54 -192 54 -192 67.5 -175.5 c 128,-1,15
 81 -159 81 -159 84.5 -139 c 128,-1,16
 88 -119 88 -119 88 -88 c 2,17,-1
 88 365 l 1,18,-1
 20 409 l 1,19,-1
 20 425 l 1,20,-1
 256 481 l 1,21,-1
 272 481 l 1,22,-1
 272 40 l 2,23,24
 272 -11 272 -11 261 -49 c 128,-1,25
 250 -87 250 -87 222.5 -117 c 128,-1,26
 195 -147 195 -147 146.5 -175.5 c 128,-1,27
 98 -204 98 -204 24 -236 c 1,12,-1
EndSplineSet
Validated: 1
Substitution2: "'case' Case-Sensitive Forms lookup 61 subtable" J
Substitution2: "'smcp' Lowercase to Small Capitals lookup 60 subtable" j.sc
Substitution2: "'c2sc' Capitals to Small Capitals lookup 59 subtable" j.sc
Substitution2: "'sups' Superscript lookup 53 subtable" j.superior
Substitution2: "Single Substitution lookup 13 subtable" jacute
Substitution2: "Single Substitution lookup 3 subtable" jdotless
AlternateSubs2: "'aalt' Access All Alternates lookup 1 subtable" jacute j.superior j.sc J
EndChar

StartChar: k
Encoding: 107 107 318
Width: 647
GlyphClass: 2
Flags: W
AnchorPoint: "Anchor-0" 378 0 basechar 0
LayerCount: 2
Fore
SplineSet
20 0 m 1,0,-1
 20 16 l 1,1,-1
 91 49 l 1,2,-1
 91 651 l 1,3,-1
 24 695 l 1,4,-1
 24 712 l 1,5,-1
 259 768 l 1,6,-1
 275 768 l 1,7,-1
 275 272 l 1,8,-1
 422 412 l 1,9,-1
 422 418 l 1,10,-1
 372 455 l 1,11,-1
 372 471 l 1,12,-1
 602 471 l 1,13,-1
 602 455 l 1,14,-1
 537 419 l 1,15,-1
 417 322 l 1,16,-1
 592 51 l 1,17,-1
 657 16 l 1,18,-1
 657 0 l 1,19,-1
 416 0 l 1,20,-1
 389 53 l 1,21,-1
 275 241 l 1,22,-1
 275 49 l 1,23,-1
 337 16 l 1,24,-1
 337 0 l 1,25,-1
 20 0 l 1,0,-1
EndSplineSet
Validated: 1
Substitution2: "'case' Case-Sensitive Forms lookup 61 subtable" K
Substitution2: "'smcp' Lowercase to Small Capitals lookup 60 subtable" k.sc
Substitution2: "'c2sc' Capitals to Small Capitals lookup 59 subtable" k.sc
Substitution2: "'sups' Superscript lookup 53 subtable" k.superior
AlternateSubs2: "'aalt' Access All Alternates lookup 1 subtable" k.superior k.sc K
EndChar

StartChar: l
Encoding: 108 108 319
Width: 354
GlyphClass: 2
Flags: W
AnchorPoint: "Anchor-3" 183 783 basechar 0
AnchorPoint: "Anchor-2" 398 758 basechar 0
AnchorPoint: "Anchor-1" 407 307 basechar 0
AnchorPoint: "Anchor-0" 183 0 basechar 0
LayerCount: 2
Fore
SplineSet
20 0 m 1,0,-1
 20 16 l 1,1,-1
 91 49 l 1,2,-1
 91 651 l 1,3,-1
 24 695 l 1,4,-1
 24 712 l 1,5,-1
 259 768 l 1,6,-1
 275 768 l 1,7,-1
 275 49 l 1,8,-1
 334 16 l 1,9,-1
 334 0 l 1,10,-1
 20 0 l 1,0,-1
EndSplineSet
Validated: 1
Substitution2: "'case' Case-Sensitive Forms lookup 61 subtable" L
Substitution2: "'smcp' Lowercase to Small Capitals lookup 60 subtable" l.sc
Substitution2: "'c2sc' Capitals to Small Capitals lookup 59 subtable" l.sc
Substitution2: "'sups' Superscript lookup 53 subtable" l.superior
AlternateSubs2: "'aalt' Access All Alternates lookup 1 subtable" l.superior l.sc L
EndChar

StartChar: m
Encoding: 109 109 320
Width: 950
GlyphClass: 2
Flags: W
AnchorPoint: "Anchor-0" 479 0 basechar 0
LayerCount: 2
Fore
SplineSet
571 351 m 5,0,-1
 571 49 l 5,1,-1
 610 16 l 5,2,-1
 610 0 l 5,3,-1
 349 0 l 5,4,-1
 349 16 l 5,5,-1
 387 49 l 5,6,-1
 387 313 l 6,7,8
 387 343 387 343 372 359 c 132,-1,9
 357 375 357 375 332 375 c 4,10,11
 318 375 318 375 303 368.5 c 132,-1,12
 288 362 288 362 275 354 c 5,13,-1
 275 49 l 5,14,-1
 313 16 l 5,15,-1
 313 0 l 5,16,-1
 20 0 l 5,17,-1
 20 16 l 5,18,-1
 91 49 l 5,19,-1
 91 365 l 5,20,-1
 24 398 l 5,21,-1
 24 415 l 5,22,-1
 249 481 l 5,23,-1
 265 481 l 5,24,-1
 274 406 l 5,25,-1
 280 406 l 5,26,27
 314 440 314 440 346.5 460.5 c 132,-1,28
 379 481 379 481 429 481 c 4,29,30
 480 481 480 481 516 460 c 132,-1,31
 552 439 552 439 565 397 c 5,32,-1
 569 397 l 5,33,34
 606 434 606 434 640 457.5 c 132,-1,35
 674 481 674 481 727 481 c 4,36,37
 790 481 790 481 829.5 448.5 c 132,-1,38
 869 416 869 416 869 351 c 6,39,-1
 869 49 l 5,40,-1
 940 16 l 5,41,-1
 940 0 l 5,42,-1
 646 0 l 5,43,-1
 646 16 l 5,44,-1
 685 49 l 5,45,-1
 685 313 l 6,46,47
 685 343 685 343 670 359 c 132,-1,48
 655 375 655 375 632 375 c 4,49,50
 631 375 631 375 630 375 c 4,51,52
 597 374 597 374 571 351 c 5,0,-1
EndSplineSet
Validated: 1
Substitution2: "'case' Case-Sensitive Forms lookup 61 subtable" M
Substitution2: "'smcp' Lowercase to Small Capitals lookup 60 subtable" m.sc
Substitution2: "'c2sc' Capitals to Small Capitals lookup 59 subtable" m.sc
Substitution2: "'sups' Superscript lookup 53 subtable" m.superior
AlternateSubs2: "'aalt' Access All Alternates lookup 1 subtable" m.superior m.sc M
EndChar

StartChar: n
Encoding: 110 110 321
Width: 656
GlyphClass: 2
Flags: W
AnchorPoint: "Anchor-3" 334 522 basechar 0
AnchorPoint: "Anchor-0" 334 0 basechar 0
LayerCount: 2
Fore
SplineSet
20 0 m 1,0,-1
 20 16 l 1,1,-1
 91 49 l 1,2,-1
 91 365 l 1,3,-1
 24 398 l 1,4,-1
 24 415 l 1,5,-1
 249 481 l 1,6,-1
 265 481 l 1,7,-1
 274 406 l 1,8,-1
 280 406 l 1,9,10
 315 440 315 440 348 460.5 c 128,-1,11
 381 481 381 481 431 481 c 0,12,13
 494 481 494 481 534.5 448.5 c 128,-1,14
 575 416 575 416 575 351 c 2,15,-1
 575 49 l 1,16,-1
 646 16 l 1,17,-1
 646 0 l 1,18,-1
 353 0 l 1,19,-1
 353 16 l 1,20,-1
 391 49 l 1,21,-1
 391 313 l 2,22,23
 391 343 391 343 375 359 c 128,-1,24
 359 375 359 375 334 375 c 0,25,26
 320 375 320 375 304 368.5 c 128,-1,27
 288 362 288 362 275 354 c 1,28,-1
 275 49 l 1,29,-1
 313 16 l 1,30,-1
 313 0 l 1,31,-1
 20 0 l 1,0,-1
EndSplineSet
Validated: 1
Substitution2: "'case' Case-Sensitive Forms lookup 61 subtable" N
Substitution2: "'smcp' Lowercase to Small Capitals lookup 60 subtable" n.sc
Substitution2: "'c2sc' Capitals to Small Capitals lookup 59 subtable" n.sc
Substitution2: "'sups' Superscript lookup 53 subtable" n.superior
AlternateSubs2: "'aalt' Access All Alternates lookup 1 subtable" n.superior n.sc N
EndChar

StartChar: o
Encoding: 111 111 322
Width: 565
GlyphClass: 2
Flags: W
AnchorPoint: "Anchor-3" 283 522 basechar 0
AnchorPoint: "Anchor-2" 326 0 basechar 0
AnchorPoint: "Anchor-0" 283 0 basechar 0
LayerCount: 2
Fore
SplineSet
283 -10 m 0,0,1
 207 -10 207 -10 148.5 24 c 128,-1,2
 90 58 90 58 58 114 c 128,-1,3
 26 170 26 170 26 236 c 0,4,5
 26 303 26 303 58 358.5 c 128,-1,6
 90 414 90 414 148.5 447.5 c 128,-1,7
 207 481 207 481 283 481 c 0,8,9
 360 481 360 481 417.5 447.5 c 128,-1,10
 475 414 475 414 507.5 358 c 128,-1,11
 540 302 540 302 540 236 c 256,12,13
 540 170 540 170 507.5 114 c 128,-1,14
 475 58 475 58 417.5 24 c 128,-1,15
 360 -10 360 -10 283 -10 c 0,0,1
292 44 m 0,16,17
 315 44 315 44 328.5 67 c 128,-1,18
 342 90 342 90 348.5 129 c 128,-1,19
 355 168 355 168 355 215 c 0,20,21
 355 272 355 272 347 320.5 c 128,-1,22
 339 369 339 369 321.5 398.5 c 128,-1,23
 304 428 304 428 275 428 c 0,24,25
 252 428 252 428 237.5 405 c 128,-1,26
 223 382 223 382 216.5 343 c 128,-1,27
 210 304 210 304 210 257 c 0,28,29
 210 200 210 200 218.5 151.5 c 128,-1,30
 227 103 227 103 245 73.5 c 128,-1,31
 263 44 263 44 292 44 c 0,16,17
EndSplineSet
Validated: 1
Substitution2: "'case' Case-Sensitive Forms lookup 61 subtable" O
Substitution2: "'smcp' Lowercase to Small Capitals lookup 60 subtable" o.sc
Substitution2: "'c2sc' Capitals to Small Capitals lookup 59 subtable" o.sc
Substitution2: "'sups' Superscript lookup 53 subtable" o.superior
Substitution2: "Single Substitution lookup 21 subtable" ordmasculine
AlternateSubs2: "'aalt' Access All Alternates lookup 1 subtable" ordmasculine o.superior o.sc O
EndChar

StartChar: p
Encoding: 112 112 323
Width: 618
GlyphClass: 1
Flags: W
LayerCount: 2
Fore
SplineSet
20 -236 m 1,0,-1
 20 -219 l 1,1,-1
 91 -186 l 1,2,-1
 91 354 l 1,3,-1
 24 398 l 1,4,-1
 24 415 l 1,5,-1
 249 481 l 1,6,-1
 265 481 l 1,7,-1
 273 419 l 1,8,-1
 278 419 l 1,9,10
 316 452 316 452 350.5 466.5 c 128,-1,11
 385 481 385 481 425 481 c 0,12,13
 467 481 467 481 505.5 453.5 c 128,-1,14
 544 426 544 426 568.5 375 c 128,-1,15
 593 324 593 324 593 253 c 0,16,17
 593 173 593 173 559 113.5 c 128,-1,18
 525 54 525 54 470 22 c 128,-1,19
 415 -10 415 -10 351 -10 c 0,20,21
 331 -10 331 -10 312 -8 c 128,-1,22
 293 -6 293 -6 275 -2 c 1,23,-1
 275 -186 l 1,24,-1
 359 -219 l 1,25,-1
 359 -236 l 1,26,-1
 20 -236 l 1,0,-1
323 388 m 0,27,28
 309 388 309 388 299 384.5 c 128,-1,29
 289 381 289 381 275 374 c 1,30,-1
 275 73 l 1,31,32
 280 62 280 62 293 54 c 128,-1,33
 306 46 306 46 322 46 c 0,34,35
 341 46 341 46 361 60 c 128,-1,36
 381 74 381 74 395 112.5 c 128,-1,37
 409 151 409 151 409 225 c 0,38,39
 409 308 409 308 381 348 c 128,-1,40
 353 388 353 388 323 388 c 0,27,28
EndSplineSet
Validated: 1
Substitution2: "'case' Case-Sensitive Forms lookup 61 subtable" P
Substitution2: "'smcp' Lowercase to Small Capitals lookup 60 subtable" p.sc
Substitution2: "'c2sc' Capitals to Small Capitals lookup 59 subtable" p.sc
Substitution2: "'sups' Superscript lookup 53 subtable" p.superior
AlternateSubs2: "'aalt' Access All Alternates lookup 1 subtable" p.superior p.sc P
EndChar

StartChar: q
Encoding: 113 113 324
Width: 608
GlyphClass: 1
Flags: W
LayerCount: 2
Fore
SplineSet
259 -236 m 1,0,-1
 259 -219 l 1,1,-1
 343 -186 l 1,2,-1
 343 48 l 1,3,-1
 336 48 l 1,4,5
 295 15 295 15 261.5 2.5 c 128,-1,6
 228 -10 228 -10 194 -10 c 0,7,8
 152 -10 152 -10 113.5 15.5 c 128,-1,9
 75 41 75 41 50.5 88.5 c 128,-1,10
 26 136 26 136 26 200 c 0,11,12
 26 285 26 285 56.5 348.5 c 128,-1,13
 87 412 87 412 144 446.5 c 128,-1,14
 201 481 201 481 278 481 c 0,15,16
 316 481 316 481 345.5 474.5 c 128,-1,17
 375 468 375 468 401 453 c 1,18,-1
 511 481 l 1,19,-1
 527 481 l 1,20,-1
 527 -186 l 1,21,-1
 598 -219 l 1,22,-1
 598 -236 l 1,23,-1
 259 -236 l 1,0,-1
210 236 m 0,24,25
 210 158 210 158 238 120.5 c 128,-1,26
 266 83 266 83 296 83 c 0,27,28
 307 83 307 83 316.5 86 c 128,-1,29
 326 89 326 89 343 97 c 1,30,-1
 343 382 l 2,31,32
 343 405 343 405 336 412 c 0,33,34
 323 425 323 425 296 425 c 0,35,36
 272 425 272 425 252 410.5 c 128,-1,37
 232 396 232 396 221 355.5 c 128,-1,38
 210 315 210 315 210 236 c 0,24,25
EndSplineSet
Validated: 1
Substitution2: "'case' Case-Sensitive Forms lookup 61 subtable" Q
Substitution2: "'smcp' Lowercase to Small Capitals lookup 60 subtable" q.sc
Substitution2: "'c2sc' Capitals to Small Capitals lookup 59 subtable" q.sc
Substitution2: "'sups' Superscript lookup 53 subtable" q.superior
AlternateSubs2: "'aalt' Access All Alternates lookup 1 subtable" q.superior q.sc Q
EndChar

StartChar: r
Encoding: 114 114 325
Width: 453
GlyphClass: 2
Flags: W
AnchorPoint: "Anchor-3" 270 522 basechar 0
AnchorPoint: "Anchor-0" 183 0 basechar 0
LayerCount: 2
Fore
SplineSet
20 0 m 1,0,-1
 20 16 l 1,1,-1
 91 49 l 1,2,-1
 91 354 l 1,3,-1
 24 398 l 1,4,-1
 24 415 l 1,5,-1
 249 481 l 1,6,-1
 265 481 l 1,7,-1
 274 386 l 1,8,-1
 280 386 l 1,9,10
 316 441 316 441 343.5 461 c 128,-1,11
 371 481 371 481 403 481 c 256,12,13
 436 481 436 481 452 468 c 128,-1,14
 468 455 468 455 468 434 c 0,15,16
 468 430 468 430 467 425 c 128,-1,17
 466 420 466 420 464 415 c 2,18,-1
 440 348 l 1,19,-1
 355 376 l 1,20,21
 306 364 306 364 275 330 c 1,22,-1
 275 49 l 1,23,-1
 365 16 l 1,24,-1
 365 0 l 1,25,-1
 20 0 l 1,0,-1
EndSplineSet
Validated: 1
Substitution2: "'case' Case-Sensitive Forms lookup 61 subtable" R
Substitution2: "'smcp' Lowercase to Small Capitals lookup 60 subtable" r.sc
Substitution2: "'c2sc' Capitals to Small Capitals lookup 59 subtable" r.sc
Substitution2: "'sups' Superscript lookup 53 subtable" r.superior
AlternateSubs2: "'aalt' Access All Alternates lookup 1 subtable" r.superior r.sc R
EndChar

StartChar: s
Encoding: 115 115 326
Width: 451
GlyphClass: 2
Flags: W
AnchorPoint: "Anchor-3" 227 522 basechar 0
AnchorPoint: "Anchor-0" 226 0 basechar 0
LayerCount: 2
Fore
SplineSet
212 -10 m 0,0,1
 160 -10 160 -10 121 0.5 c 128,-1,2
 82 11 82 11 46 29 c 1,3,-1
 46 150 l 1,4,-1
 62 150 l 1,5,-1
 100 97 l 2,6,7
 140 41 140 41 207 41 c 0,8,9
 282 41 282 41 282 89 c 0,10,11
 282 105 282 105 273 116.5 c 128,-1,12
 264 128 264 128 239 141 c 128,-1,13
 214 154 214 154 165 172 c 0,14,15
 104 196 104 196 77 229.5 c 128,-1,16
 50 263 50 263 50 307 c 0,17,18
 50 356 50 356 74 395.5 c 128,-1,19
 98 435 98 435 142 458 c 128,-1,20
 186 481 186 481 246 481 c 0,21,22
 279 481 279 481 313 475.5 c 128,-1,23
 347 470 347 470 379 453 c 1,24,-1
 379 325 l 1,25,-1
 362 325 l 1,26,-1
 332 369 l 2,27,28
 309 401 309 401 289.5 416 c 128,-1,29
 270 431 270 431 238 431 c 0,30,31
 209 431 209 431 192 417 c 128,-1,32
 175 403 175 403 175 378 c 0,33,34
 175 364 175 364 182 352 c 128,-1,35
 189 340 189 340 212.5 327.5 c 128,-1,36
 236 315 236 315 283 298 c 0,37,38
 312 288 312 288 340 273 c 128,-1,39
 368 258 368 258 387 230.5 c 128,-1,40
 406 203 406 203 406 155 c 0,41,42
 406 105 406 105 379 68 c 128,-1,43
 352 31 352 31 308.5 10.5 c 128,-1,44
 265 -10 265 -10 212 -10 c 0,0,1
EndSplineSet
Validated: 1
Substitution2: "Single Substitution lookup 65 subtable" longs
Substitution2: "'case' Case-Sensitive Forms lookup 61 subtable" S
Substitution2: "'smcp' Lowercase to Small Capitals lookup 60 subtable" s.sc
Substitution2: "'c2sc' Capitals to Small Capitals lookup 59 subtable" s.sc
Substitution2: "'sups' Superscript lookup 53 subtable" s.superior
AlternateSubs2: "'aalt' Access All Alternates lookup 1 subtable" s.superior s.sc S longs
EndChar

StartChar: t
Encoding: 116 116 327
Width: 416
GlyphClass: 2
Flags: W
AnchorPoint: "Anchor-3" 237 625 basechar 0
AnchorPoint: "Anchor-2" 391 758 basechar 0
AnchorPoint: "Anchor-0" 236 0 basechar 0
LayerCount: 2
Fore
SplineSet
236 -10 m 0,0,1
 162 -10 162 -10 117 16.5 c 128,-1,2
 72 43 72 43 72 91 c 2,3,-1
 72 426 l 1,4,-1
 5 426 l 1,5,-1
 5 445 l 1,6,-1
 104 471 l 1,7,-1
 226 584 l 1,8,-1
 256 584 l 1,9,-1
 256 471 l 1,10,-1
 401 471 l 1,11,-1
 401 426 l 1,12,-1
 256 426 l 1,13,-1
 256 123 l 2,14,15
 256 97 256 97 278 84.5 c 128,-1,16
 300 72 300 72 330 72 c 0,17,18
 348 72 348 72 362 74 c 128,-1,19
 376 76 376 76 391 79 c 1,20,-1
 394 77 l 1,21,-1
 394 54 l 1,22,23
 374 27 374 27 328.5 8.5 c 128,-1,24
 283 -10 283 -10 236 -10 c 0,0,1
EndSplineSet
Validated: 1
Substitution2: "'case' Case-Sensitive Forms lookup 61 subtable" T
Substitution2: "'smcp' Lowercase to Small Capitals lookup 60 subtable" t.sc
Substitution2: "'c2sc' Capitals to Small Capitals lookup 59 subtable" t.sc
Substitution2: "'sups' Superscript lookup 53 subtable" t.superior
AlternateSubs2: "'aalt' Access All Alternates lookup 1 subtable" t.superior t.sc T
EndChar

StartChar: u
Encoding: 117 117 328
Width: 623
GlyphClass: 2
Flags: W
AnchorPoint: "Anchor-3" 316 522 basechar 0
AnchorPoint: "Anchor-2" 476 0 basechar 0
AnchorPoint: "Anchor-0" 316 0 basechar 0
LayerCount: 2
Fore
SplineSet
218 -10 m 0,0,1
 156 -10 156 -10 116.5 22.5 c 128,-1,2
 77 55 77 55 77 120 c 2,3,-1
 77 422 l 1,4,-1
 6 455 l 1,5,-1
 6 471 l 1,6,-1
 261 471 l 1,7,-1
 261 158 l 2,8,9
 261 128 261 128 276.5 112 c 128,-1,10
 292 96 292 96 315 96 c 0,11,12
 328 96 328 96 343 102.5 c 128,-1,13
 358 109 358 109 371 117 c 1,14,-1
 371 422 l 1,15,-1
 315 455 l 1,16,-1
 315 471 l 1,17,-1
 555 471 l 1,18,-1
 555 49 l 1,19,-1
 613 16 l 1,20,-1
 613 0 l 1,21,-1
 371 0 l 1,22,-1
 371 66 l 1,23,-1
 367 66 l 1,24,25
 333 32 333 32 300 11 c 128,-1,26
 267 -10 267 -10 218 -10 c 0,0,1
EndSplineSet
Validated: 1
Substitution2: "'case' Case-Sensitive Forms lookup 61 subtable" U
Substitution2: "'smcp' Lowercase to Small Capitals lookup 60 subtable" u.sc
Substitution2: "'c2sc' Capitals to Small Capitals lookup 59 subtable" u.sc
Substitution2: "'sups' Superscript lookup 53 subtable" u.superior
AlternateSubs2: "'aalt' Access All Alternates lookup 1 subtable" u.superior u.sc U
EndChar

StartChar: v
Encoding: 118 118 329
Width: 484
GlyphClass: 1
Flags: W
LayerCount: 2
Fore
SplineSet
214 0 m 1,0,-1
 15 429 l 1,1,-1
 -45 455 l 1,2,-1
 -45 471 l 1,3,-1
 273 471 l 1,4,-1
 273 455 l 1,5,-1
 212 426 l 1,6,-1
 212 424 l 1,7,-1
 302 233 l 1,8,-1
 307 233 l 1,9,-1
 387 422 l 1,10,-1
 387 424 l 1,11,-1
 328 455 l 1,12,-1
 328 471 l 1,13,-1
 529 471 l 1,14,-1
 529 455 l 1,15,-1
 460 421 l 1,16,-1
 264 0 l 1,17,-1
 214 0 l 1,0,-1
EndSplineSet
Validated: 1
Substitution2: "'case' Case-Sensitive Forms lookup 61 subtable" V
Substitution2: "'smcp' Lowercase to Small Capitals lookup 60 subtable" v.sc
Substitution2: "'c2sc' Capitals to Small Capitals lookup 59 subtable" v.sc
Substitution2: "'sups' Superscript lookup 53 subtable" v.superior
AlternateSubs2: "'aalt' Access All Alternates lookup 1 subtable" v.superior v.sc V
EndChar

StartChar: w
Encoding: 119 119 330
Width: 728
GlyphClass: 2
Flags: W
AnchorPoint: "Anchor-3" 416 522 basechar 0
LayerCount: 2
Fore
SplineSet
188 0 m 1,0,-1
 15 429 l 1,1,-1
 -45 455 l 1,2,-1
 -45 471 l 1,3,-1
 273 471 l 1,4,-1
 273 455 l 1,5,-1
 212 426 l 1,6,-1
 212 424 l 1,7,-1
 284 231 l 1,8,-1
 289 231 l 1,9,-1
 390 471 l 1,10,-1
 440 471 l 1,11,-1
 548 231 l 1,12,-1
 553 231 l 1,13,-1
 631 422 l 1,14,-1
 631 425 l 1,15,-1
 571 455 l 1,16,-1
 571 471 l 1,17,-1
 773 471 l 1,18,-1
 773 455 l 1,19,-1
 703 421 l 1,20,-1
 518 0 l 1,21,-1
 468 0 l 1,22,-1
 355 243 l 1,23,-1
 239 0 l 1,24,-1
 188 0 l 1,0,-1
EndSplineSet
Validated: 1
Substitution2: "'case' Case-Sensitive Forms lookup 61 subtable" W
Substitution2: "'smcp' Lowercase to Small Capitals lookup 60 subtable" w.sc
Substitution2: "'c2sc' Capitals to Small Capitals lookup 59 subtable" w.sc
Substitution2: "'sups' Superscript lookup 53 subtable" w.superior
AlternateSubs2: "'aalt' Access All Alternates lookup 1 subtable" w.superior w.sc W
EndChar

StartChar: x
Encoding: 120 120 331
Width: 598
GlyphClass: 1
Flags: W
LayerCount: 2
Fore
SplineSet
12 0 m 1,0,-1
 12 16 l 1,1,-1
 65 46 l 1,2,-1
 209 207 l 1,3,-1
 55 429 l 1,4,-1
 10 455 l 1,5,-1
 10 471 l 1,6,-1
 331 471 l 1,7,-1
 331 455 l 1,8,-1
 282 430 l 1,9,-1
 282 424 l 1,10,-1
 350 325 l 1,11,-1
 427 418 l 1,12,-1
 427 424 l 1,13,-1
 379 455 l 1,14,-1
 379 471 l 1,15,-1
 570 471 l 1,16,-1
 570 455 l 1,17,-1
 516 425 l 1,18,-1
 382 279 l 1,19,-1
 546 42 l 1,20,-1
 588 16 l 1,21,-1
 588 0 l 1,22,-1
 267 0 l 1,23,-1
 267 16 l 1,24,-1
 319 41 l 1,25,-1
 319 47 l 1,26,-1
 242 160 l 1,27,-1
 157 53 l 1,28,-1
 157 47 l 1,29,-1
 210 16 l 1,30,-1
 210 0 l 1,31,-1
 12 0 l 1,0,-1
EndSplineSet
Validated: 1
Substitution2: "'case' Case-Sensitive Forms lookup 61 subtable" X
Substitution2: "'smcp' Lowercase to Small Capitals lookup 60 subtable" x.sc
Substitution2: "'c2sc' Capitals to Small Capitals lookup 59 subtable" x.sc
Substitution2: "'sups' Superscript lookup 53 subtable" x.superior
AlternateSubs2: "'aalt' Access All Alternates lookup 1 subtable" x.superior x.sc X
EndChar

StartChar: y
Encoding: 121 121 332
Width: 484
GlyphClass: 2
Flags: W
AnchorPoint: "Anchor-3" 298 522 basechar 0
AnchorPoint: "Anchor-0" 357 -10 basechar 0
LayerCount: 2
Fore
SplineSet
-46 471 m 1,0,-1
 262 471 l 1,1,-1
 262 455 l 1,2,-1
 211 426 l 1,3,-1
 211 424 l 1,4,-1
 309 227 l 1,5,-1
 318 227 l 1,6,-1
 387 422 l 1,7,-1
 387 424 l 1,8,-1
 338 455 l 1,9,-1
 338 471 l 1,10,-1
 529 471 l 1,11,-1
 529 455 l 1,12,-1
 460 421 l 1,13,-1
 253 -84 l 2,14,15
 224 -155 224 -155 201 -189.5 c 128,-1,16
 178 -224 178 -224 153.5 -235.5 c 128,-1,17
 129 -247 129 -247 94 -247 c 0,18,19
 71 -247 71 -247 61 -238 c 128,-1,20
 51 -229 51 -229 51 -208 c 2,21,-1
 51 -128 l 1,22,-1
 171 -128 l 1,23,24
 189 -108 189 -108 208 -61 c 2,25,-1
 228 -9 l 1,26,-1
 14 429 l 1,27,-1
 -46 455 l 1,28,-1
 -46 471 l 1,0,-1
EndSplineSet
Validated: 1
Substitution2: "'case' Case-Sensitive Forms lookup 61 subtable" Y
Substitution2: "'smcp' Lowercase to Small Capitals lookup 60 subtable" y.sc
Substitution2: "'c2sc' Capitals to Small Capitals lookup 59 subtable" y.sc
Substitution2: "'sups' Superscript lookup 53 subtable" y.superior
AlternateSubs2: "'aalt' Access All Alternates lookup 1 subtable" y.superior y.sc Y
EndChar

StartChar: z
Encoding: 122 122 333
Width: 527
GlyphClass: 2
Flags: W
AnchorPoint: "Anchor-3" 273 522 basechar 0
AnchorPoint: "Anchor-0" 273 0 basechar 0
LayerCount: 2
Fore
SplineSet
42 0 m 1,0,-1
 42 22 l 1,1,-1
 256 421 l 1,2,-1
 124 421 l 1,3,-1
 62 303 l 1,4,-1
 41 303 l 1,5,-1
 52 481 l 1,6,-1
 57 481 l 1,7,8
 71 477 71 477 93 474 c 128,-1,9
 115 471 115 471 136 471 c 2,10,-1
 478 471 l 1,11,-1
 478 450 l 1,12,-1
 264 50 l 1,13,-1
 412 50 l 1,14,-1
 465 175 l 1,15,-1
 486 175 l 1,16,-1
 486 0 l 1,17,-1
 42 0 l 1,0,-1
EndSplineSet
Validated: 1
Substitution2: "'case' Case-Sensitive Forms lookup 61 subtable" Z
Substitution2: "'smcp' Lowercase to Small Capitals lookup 60 subtable" z.sc
Substitution2: "'c2sc' Capitals to Small Capitals lookup 59 subtable" z.sc
Substitution2: "'sups' Superscript lookup 53 subtable" z.superior
AlternateSubs2: "'aalt' Access All Alternates lookup 1 subtable" z.superior z.sc Z
EndChar

StartChar: aogonek
Encoding: 261 261 344
Width: 543
GlyphClass: 1
Flags: W
LayerCount: 2
Fore
SplineSet
152 -9 m 0,0,1
 94 -9 94 -9 60 25.5 c 128,-1,2
 26 60 26 60 26 113 c 0,3,4
 26 153 26 153 38 178.5 c 128,-1,5
 50 204 50 204 84.5 222.5 c 128,-1,6
 119 241 119 241 184 258 c 2,7,-1
 289 286 l 1,8,-1
 289 341 l 2,9,10
 289 424 289 424 211 424 c 0,11,12
 183 424 183 424 162 415 c 1,13,-1
 162 304 l 1,14,-1
 71 304 l 2,15,16
 52 304 52 304 45.5 314 c 128,-1,17
 39 324 39 324 39 343 c 0,18,19
 39 368 39 368 58.5 392.5 c 128,-1,20
 78 417 78 417 110 437 c 128,-1,21
 142 457 142 457 182 469 c 128,-1,22
 222 481 222 481 264 481 c 0,23,24
 323 481 323 481 370.5 465.5 c 128,-1,25
 418 450 418 450 445.5 418 c 128,-1,26
 473 386 473 386 473 338 c 2,27,-1
 473 80 l 1,28,29
 481 73 481 73 492 69 c 128,-1,30
 503 65 503 65 517 65 c 2,31,-1
 540 65 l 1,32,-1
 544 60 l 1,33,-1
 544 39 l 1,34,35
 536 27 536 27 518 14 c 128,-1,36
 500 1 500 1 471 -5 c 1,37,38
 456 -37 456 -37 446.5 -67 c 128,-1,39
 437 -97 437 -97 437 -128 c 0,40,41
 437 -187 437 -187 492 -187 c 0,42,43
 504 -187 504 -187 517 -182.5 c 128,-1,44
 530 -178 530 -178 539 -169 c 1,45,-1
 543 -169 l 1,46,-1
 543 -193 l 1,47,48
 517 -246 517 -246 447 -246 c 0,49,50
 400 -246 400 -246 372 -220.5 c 128,-1,51
 344 -195 344 -195 344 -152 c 0,52,53
 344 -118 344 -118 364.5 -83 c 128,-1,54
 385 -48 385 -48 421 -10 c 1,55,56
 372 -9 372 -9 341 10 c 128,-1,57
 310 29 310 29 293 66 c 1,58,-1
 289 66 l 1,59,60
 230 -9 230 -9 152 -9 c 0,0,1
197 151 m 0,61,62
 197 119 197 119 213.5 102.5 c 128,-1,63
 230 86 230 86 259 86 c 0,64,65
 273 86 273 86 289 91 c 1,66,-1
 289 239 l 1,67,68
 237 227 237 227 217 207 c 128,-1,69
 197 187 197 187 197 151 c 0,61,62
EndSplineSet
Validated: 1
Substitution2: "'case' Case-Sensitive Forms lookup 61 subtable" Aogonek
Substitution2: "'smcp' Lowercase to Small Capitals lookup 60 subtable" aogonek.sc
Substitution2: "'c2sc' Capitals to Small Capitals lookup 59 subtable" aogonek.sc
AlternateSubs2: "'aalt' Access All Alternates lookup 1 subtable" aogonek.sc Aogonek
EndChar

StartChar: ae
Encoding: 230 230 358
Width: 773
GlyphClass: 2
Flags: W
AnchorPoint: "Anchor-3" 395 522 basechar 0
LayerCount: 2
Fore
SplineSet
152 -9 m 4,0,1
 102 -9 102 -9 64 23 c 132,-1,2
 26 55 26 55 26 116 c 4,3,4
 26 156 26 156 39 181 c 132,-1,5
 52 206 52 206 88 224.5 c 132,-1,6
 124 243 124 243 193 260 c 6,7,-1
 289 286 l 5,8,-1
 289 341 l 6,9,10
 289 424 289 424 211 424 c 4,11,12
 183 424 183 424 162 415 c 5,13,-1
 162 304 l 5,14,-1
 71 304 l 6,15,16
 52 304 52 304 45.5 314 c 132,-1,17
 39 324 39 324 39 343 c 4,18,19
 39 368 39 368 58.5 392.5 c 132,-1,20
 78 417 78 417 110 437 c 132,-1,21
 142 457 142 457 182 469 c 132,-1,22
 222 481 222 481 264 481 c 4,23,24
 310 481 310 481 349.5 472 c 132,-1,25
 389 463 389 463 417 443 c 5,26,27
 484 481 484 481 564 481 c 4,28,29
 649 481 649 481 694.5 426.5 c 132,-1,30
 740 372 740 372 741 273 c 5,31,-1
 738 268 l 5,32,-1
 465 268 l 5,33,34
 465 261 465 261 465 253 c 4,35,36
 465 195 465 195 501.5 158.5 c 132,-1,37
 538 122 538 122 612 122 c 4,38,39
 642 122 642 122 675 127 c 132,-1,40
 708 132 708 132 739 148 c 5,41,-1
 742 148 l 5,42,-1
 742 127 l 5,43,44
 716 68 716 68 659.5 29 c 132,-1,45
 603 -10 603 -10 525 -10 c 4,46,47
 458 -10 458 -10 408 13.5 c 132,-1,48
 358 37 358 37 329 79 c 5,49,-1
 318 79 l 5,50,51
 289 41 289 41 249 16 c 132,-1,52
 209 -9 209 -9 152 -9 c 4,0,1
536 435 m 4,53,54
 508 435 508 435 490.5 403.5 c 132,-1,55
 473 372 473 372 468 313 c 5,56,-1
 604 313 l 5,57,58
 599 384 599 384 582 409.5 c 132,-1,59
 565 435 565 435 536 435 c 4,53,54
197 151 m 4,60,61
 197 119 197 119 213.5 102.5 c 132,-1,62
 230 86 230 86 259 86 c 4,63,64
 273 86 273 86 287.5 90 c 132,-1,65
 302 94 302 94 314 101 c 5,66,67
 289 148 289 148 289 209 c 4,68,69
 289 211 289 211 289 214 c 6,70,-1
 289 239 l 5,71,72
 240 228 240 228 218.5 208.5 c 132,-1,73
 197 189 197 189 197 151 c 4,60,61
EndSplineSet
Validated: 1
Substitution2: "'case' Case-Sensitive Forms lookup 61 subtable" AE
Substitution2: "'smcp' Lowercase to Small Capitals lookup 60 subtable" ae.sc
Substitution2: "'c2sc' Capitals to Small Capitals lookup 59 subtable" ae.sc
AlternateSubs2: "'aalt' Access All Alternates lookup 1 subtable" ae.sc AE
EndChar

StartChar: ccedilla
Encoding: 231 231 364
Width: 499
GlyphClass: 1
Flags: W
LayerCount: 2
Fore
SplineSet
253 -213 m 0,0,1
 280 -213 280 -213 295 -203.5 c 128,-1,2
 310 -194 310 -194 310 -174 c 0,3,4
 310 -152 310 -152 290.5 -136 c 128,-1,5
 271 -120 271 -120 211 -105 c 1,6,-1
 254 -10 l 1,7,8
 188 -9 188 -9 138 18.5 c 128,-1,9
 88 46 88 46 59.5 96 c 128,-1,10
 31 146 31 146 31 214 c 0,11,12
 31 296 31 296 66.5 356 c 128,-1,13
 102 416 102 416 165 448.5 c 128,-1,14
 228 481 228 481 307 481 c 0,15,16
 367 481 367 481 402.5 461.5 c 128,-1,17
 438 442 438 442 453.5 418.5 c 128,-1,18
 469 395 469 395 469 383 c 0,19,20
 469 368 469 368 456 357 c 2,21,-1
 406 317 l 1,22,-1
 293 436 l 2,23,24
 291 436 291 436 286 436 c 0,25,26
 245 436 245 436 224.5 392 c 128,-1,27
 204 348 204 348 204 282 c 0,28,29
 204 210 204 210 237.5 166 c 128,-1,30
 271 122 271 122 339 122 c 0,31,32
 369 122 369 122 401.5 127 c 128,-1,33
 434 132 434 132 466 148 c 1,34,-1
 469 148 l 1,35,-1
 469 127 l 1,36,37
 447 76 447 76 402 39.5 c 128,-1,38
 357 3 357 3 297 -7 c 1,39,-1
 284 -36 l 1,40,41
 343 -53 343 -53 366 -79.5 c 128,-1,42
 389 -106 389 -106 389 -146 c 0,43,44
 389 -190 389 -190 358 -218 c 128,-1,45
 327 -246 327 -246 276 -246 c 0,46,47
 250 -246 250 -246 230.5 -241 c 128,-1,48
 211 -236 211 -236 195 -225 c 1,49,-1
 195 -202 l 1,50,-1
 199 -202 l 1,51,52
 210 -208 210 -208 225.5 -210.5 c 128,-1,53
 241 -213 241 -213 253 -213 c 0,0,1
EndSplineSet
Validated: 1
Substitution2: "'case' Case-Sensitive Forms lookup 61 subtable" Ccedilla
Substitution2: "'smcp' Lowercase to Small Capitals lookup 60 subtable" ccedilla.sc
Substitution2: "'c2sc' Capitals to Small Capitals lookup 59 subtable" ccedilla.sc
AlternateSubs2: "'aalt' Access All Alternates lookup 1 subtable" ccedilla.sc Ccedilla
EndChar

StartChar: ccedillaacute
Encoding: 7689 7689 365
Width: 499
GlyphClass: 1
Flags: W
LayerCount: 2
Fore
SplineSet
265 543 m 1,0,-1
 337 724 l 1,1,-1
 479 724 l 1,2,-1
 479 695 l 1,3,-1
 295 543 l 1,4,-1
 265 543 l 1,0,-1
253 -213 m 0,5,6
 280 -213 280 -213 295 -203.5 c 128,-1,7
 310 -194 310 -194 310 -174 c 0,8,9
 310 -152 310 -152 290.5 -136 c 128,-1,10
 271 -120 271 -120 211 -105 c 1,11,-1
 254 -10 l 1,12,13
 188 -9 188 -9 138 18.5 c 128,-1,14
 88 46 88 46 59.5 96 c 128,-1,15
 31 146 31 146 31 214 c 0,16,17
 31 296 31 296 66.5 356 c 128,-1,18
 102 416 102 416 165 448.5 c 128,-1,19
 228 481 228 481 307 481 c 0,20,21
 367 481 367 481 402.5 461.5 c 128,-1,22
 438 442 438 442 453.5 418.5 c 128,-1,23
 469 395 469 395 469 383 c 0,24,25
 469 368 469 368 456 357 c 2,26,-1
 406 317 l 1,27,-1
 293 436 l 2,28,29
 291 436 291 436 286 436 c 0,30,31
 245 436 245 436 224.5 392 c 128,-1,32
 204 348 204 348 204 282 c 0,33,34
 204 210 204 210 237.5 166 c 128,-1,35
 271 122 271 122 339 122 c 0,36,37
 369 122 369 122 401.5 127 c 128,-1,38
 434 132 434 132 466 148 c 1,39,-1
 469 148 l 1,40,-1
 469 127 l 1,41,42
 447 76 447 76 402 39.5 c 128,-1,43
 357 3 357 3 297 -7 c 1,44,-1
 284 -36 l 1,45,46
 343 -53 343 -53 366 -79.5 c 128,-1,47
 389 -106 389 -106 389 -146 c 0,48,49
 389 -190 389 -190 358 -218 c 128,-1,50
 327 -246 327 -246 276 -246 c 0,51,52
 250 -246 250 -246 230.5 -241 c 128,-1,53
 211 -236 211 -236 195 -225 c 1,54,-1
 195 -202 l 1,55,-1
 199 -202 l 1,56,57
 210 -208 210 -208 225.5 -210.5 c 128,-1,58
 241 -213 241 -213 253 -213 c 0,5,6
EndSplineSet
Validated: 1
Substitution2: "'case' Case-Sensitive Forms lookup 61 subtable" Ccedillaacute
Substitution2: "'smcp' Lowercase to Small Capitals lookup 60 subtable" ccedillaacute.sc
Substitution2: "'c2sc' Capitals to Small Capitals lookup 59 subtable" ccedillaacute.sc
AlternateSubs2: "'aalt' Access All Alternates lookup 1 subtable" ccedillaacute.sc Ccedillaacute
EndChar

StartChar: dcroat
Encoding: 273 273 367
Width: 613
GlyphClass: 1
Flags: W
LayerCount: 2
Fore
SplineSet
194 -10 m 0,0,1
 152 -10 152 -10 113.5 15.5 c 128,-1,2
 75 41 75 41 50.5 88.5 c 128,-1,3
 26 136 26 136 26 200 c 0,4,5
 26 285 26 285 54.5 348.5 c 128,-1,6
 83 412 83 412 136 446.5 c 128,-1,7
 189 481 189 481 262 481 c 0,8,9
 284 481 284 481 304 479 c 128,-1,10
 324 477 324 477 343 472 c 1,11,-1
 343 548 l 1,12,-1
 224 548 l 1,13,-1
 224 600 l 1,14,-1
 343 600 l 1,15,-1
 343 651 l 1,16,-1
 270 697 l 1,17,-1
 270 712 l 1,18,-1
 511 768 l 1,19,-1
 527 768 l 1,20,-1
 527 600 l 1,21,-1
 598 600 l 1,22,-1
 598 548 l 1,23,-1
 527 548 l 1,24,-1
 527 46 l 1,25,-1
 598 16 l 1,26,-1
 598 0 l 1,27,-1
 353 0 l 1,28,-1
 345 50 l 1,29,-1
 338 50 l 1,30,31
 301 18 301 18 267 4 c 128,-1,32
 233 -10 233 -10 194 -10 c 0,0,1
210 237 m 0,33,34
 210 159 210 159 238 121 c 128,-1,35
 266 83 266 83 296 83 c 0,36,37
 310 83 310 83 320 86.5 c 128,-1,38
 330 90 330 90 343 97 c 1,39,-1
 343 398 l 1,40,41
 338 409 338 409 324.5 417 c 128,-1,42
 311 425 311 425 296 425 c 0,43,44
 273 425 273 425 253 410.5 c 128,-1,45
 233 396 233 396 221.5 356 c 128,-1,46
 210 316 210 316 210 237 c 0,33,34
EndSplineSet
Validated: 1
Substitution2: "'case' Case-Sensitive Forms lookup 61 subtable" Dcroat
Substitution2: "'smcp' Lowercase to Small Capitals lookup 60 subtable" dcroat.sc
Substitution2: "'c2sc' Capitals to Small Capitals lookup 59 subtable" dcroat.sc
AlternateSubs2: "'aalt' Access All Alternates lookup 1 subtable" dcroat.sc Dcroat
EndChar

StartChar: eogonek
Encoding: 281 281 379
Width: 515
GlyphClass: 1
Flags: W
LayerCount: 2
Fore
SplineSet
267 -10 m 0,0,1
 157 -10 157 -10 94 51.5 c 128,-1,2
 31 113 31 113 31 214 c 0,3,4
 31 293 31 293 67 353 c 128,-1,5
 103 413 103 413 165.5 447 c 128,-1,6
 228 481 228 481 306 481 c 0,7,8
 391 481 391 481 436.5 426.5 c 128,-1,9
 482 372 482 372 483 273 c 1,10,-1
 480 268 l 1,11,-1
 207 268 l 1,12,13
 207 261 207 261 207 253 c 0,14,15
 207 195 207 195 243.5 158.5 c 128,-1,16
 280 122 280 122 354 122 c 0,17,18
 384 122 384 122 417 127 c 128,-1,19
 450 132 450 132 481 148 c 1,20,-1
 484 148 l 1,21,-1
 484 127 l 1,22,23
 478 114 478 114 471 102.5 c 128,-1,24
 464 91 464 91 456 80 c 0,25,26
 439 52 439 52 420 18.5 c 128,-1,27
 401 -15 401 -15 388.5 -52 c 128,-1,28
 376 -89 376 -89 376 -128 c 0,29,30
 376 -187 376 -187 430 -187 c 0,31,32
 442 -187 442 -187 455.5 -182.5 c 128,-1,33
 469 -178 469 -178 477 -169 c 1,34,-1
 481 -169 l 1,35,-1
 481 -193 l 1,36,37
 455 -246 455 -246 386 -246 c 0,38,39
 339 -246 339 -246 311 -220.5 c 128,-1,40
 283 -195 283 -195 283 -152 c 0,41,42
 283 -111 283 -111 312 -69 c 128,-1,43
 341 -27 341 -27 392 23 c 1,44,45
 336 -10 336 -10 267 -10 c 0,0,1
278 435 m 0,46,47
 250 435 250 435 232.5 403.5 c 128,-1,48
 215 372 215 372 210 313 c 1,49,-1
 346 313 l 1,50,51
 341 384 341 384 324 409.5 c 128,-1,52
 307 435 307 435 278 435 c 0,46,47
EndSplineSet
Validated: 1
Substitution2: "'case' Case-Sensitive Forms lookup 61 subtable" Eogonek
Substitution2: "'smcp' Lowercase to Small Capitals lookup 60 subtable" eogonek.sc
Substitution2: "'c2sc' Capitals to Small Capitals lookup 59 subtable" eogonek.sc
AlternateSubs2: "'aalt' Access All Alternates lookup 1 subtable" eogonek.sc Eogonek
EndChar

StartChar: ecedillabreve
Encoding: 7709 7709 391
Width: 515
GlyphClass: 1
Flags: W
LayerCount: 2
Fore
SplineSet
276 553 m 0,0,1
 197 553 197 553 160.5 595 c 128,-1,2
 124 637 124 637 104 724 c 1,3,-1
 133 724 l 1,4,5
 158 670 158 670 193.5 655 c 128,-1,6
 229 640 229 640 276 640 c 256,7,8
 323 640 323 640 358.5 654.5 c 128,-1,9
 394 669 394 669 420 724 c 1,10,-1
 449 724 l 1,11,12
 430 637 430 637 387.5 595 c 128,-1,13
 345 553 345 553 276 553 c 0,0,1
283 -246 m 0,14,15
 257 -246 257 -246 237 -241 c 128,-1,16
 217 -236 217 -236 201 -225 c 1,17,-1
 201 -202 l 1,18,-1
 205 -202 l 1,19,20
 216 -208 216 -208 231.5 -210.5 c 128,-1,21
 247 -213 247 -213 259 -213 c 0,22,23
 286 -213 286 -213 301 -203.5 c 128,-1,24
 316 -194 316 -194 316 -174 c 0,25,26
 316 -152 316 -152 297 -136 c 128,-1,27
 278 -120 278 -120 217 -105 c 1,28,-1
 260 -10 l 1,29,30
 154 -8 154 -8 92.5 53.5 c 128,-1,31
 31 115 31 115 31 214 c 0,32,33
 31 293 31 293 67 353 c 128,-1,34
 103 413 103 413 165.5 447 c 128,-1,35
 228 481 228 481 306 481 c 0,36,37
 391 481 391 481 436.5 426.5 c 128,-1,38
 482 372 482 372 483 273 c 1,39,-1
 480 268 l 1,40,-1
 207 268 l 1,41,42
 207 261 207 261 207 253 c 0,43,44
 207 195 207 195 243.5 158.5 c 128,-1,45
 280 122 280 122 354 122 c 0,46,47
 384 122 384 122 417 127 c 128,-1,48
 450 132 450 132 481 148 c 1,49,-1
 484 148 l 1,50,-1
 484 127 l 1,51,52
 460 74 460 74 413.5 37.5 c 128,-1,53
 367 1 367 1 302 -8 c 1,54,-1
 290 -36 l 1,55,56
 349 -53 349 -53 372 -79.5 c 128,-1,57
 395 -106 395 -106 395 -146 c 0,58,59
 395 -190 395 -190 364 -218 c 128,-1,60
 333 -246 333 -246 283 -246 c 0,14,15
278 435 m 0,61,62
 250 435 250 435 232.5 403.5 c 128,-1,63
 215 372 215 372 210 313 c 1,64,-1
 346 313 l 1,65,66
 341 384 341 384 324 409.5 c 128,-1,67
 307 435 307 435 278 435 c 0,61,62
EndSplineSet
Validated: 1
Substitution2: "'case' Case-Sensitive Forms lookup 61 subtable" Ecedillabreve
Substitution2: "'smcp' Lowercase to Small Capitals lookup 60 subtable" ecedillabreve.sc
Substitution2: "'c2sc' Capitals to Small Capitals lookup 59 subtable" ecedillabreve.sc
AlternateSubs2: "'aalt' Access All Alternates lookup 1 subtable" ecedillabreve.sc Ecedillabreve
EndChar

StartChar: hbar
Encoding: 295 295 399
Width: 656
GlyphClass: 1
Flags: W
LayerCount: 2
Fore
SplineSet
20 0 m 1,0,-1
 20 16 l 1,1,-1
 91 49 l 1,2,-1
 91 531 l 1,3,-1
 24 531 l 1,4,-1
 24 584 l 1,5,-1
 91 584 l 1,6,-1
 91 651 l 1,7,-1
 24 695 l 1,8,-1
 24 712 l 1,9,-1
 259 768 l 1,10,-1
 275 768 l 1,11,-1
 275 584 l 1,12,-1
 394 584 l 1,13,-1
 394 531 l 1,14,-1
 275 531 l 1,15,-1
 275 406 l 1,16,-1
 280 406 l 1,17,18
 315 440 315 440 348 460.5 c 128,-1,19
 381 481 381 481 431 481 c 0,20,21
 494 481 494 481 534.5 448.5 c 128,-1,22
 575 416 575 416 575 351 c 2,23,-1
 575 49 l 1,24,-1
 646 16 l 1,25,-1
 646 0 l 1,26,-1
 353 0 l 1,27,-1
 353 16 l 1,28,-1
 391 49 l 1,29,-1
 391 313 l 2,30,31
 391 343 391 343 375 359 c 128,-1,32
 359 375 359 375 334 375 c 0,33,34
 320 375 320 375 304 368.5 c 128,-1,35
 288 362 288 362 275 354 c 1,36,-1
 275 49 l 1,37,-1
 313 16 l 1,38,-1
 313 0 l 1,39,-1
 20 0 l 1,0,-1
EndSplineSet
Validated: 1
Substitution2: "'case' Case-Sensitive Forms lookup 61 subtable" Hbar
Substitution2: "'smcp' Lowercase to Small Capitals lookup 60 subtable" hbar.sc
Substitution2: "'c2sc' Capitals to Small Capitals lookup 59 subtable" hbar.sc
AlternateSubs2: "'aalt' Access All Alternates lookup 1 subtable" hbar.sc Hbar
EndChar

StartChar: iogonek
Encoding: 303 303 410
Width: 354
GlyphClass: 1
Flags: W
LayerCount: 2
Fore
SplineSet
181 567 m 256,0,1
 145 567 145 567 121.5 590.5 c 128,-1,2
 98 614 98 614 98 650 c 256,3,4
 98 686 98 686 121.5 709.5 c 128,-1,5
 145 733 145 733 181 733 c 256,6,7
 217 733 217 733 240.5 709.5 c 128,-1,8
 264 686 264 686 264 650 c 256,9,10
 264 614 264 614 240.5 590.5 c 128,-1,11
 217 567 217 567 181 567 c 256,0,1
20 0 m 1,12,-1
 20 16 l 1,13,-1
 91 49 l 1,14,-1
 91 365 l 1,15,-1
 24 409 l 1,16,-1
 24 425 l 1,17,-1
 259 481 l 1,18,-1
 275 481 l 1,19,-1
 275 49 l 1,20,-1
 334 16 l 1,21,-1
 334 0 l 1,22,-1
 219 0 l 1,23,24
 202 -33 202 -33 192 -64.5 c 128,-1,25
 182 -96 182 -96 182 -128 c 0,26,27
 182 -187 182 -187 237 -187 c 0,28,29
 249 -187 249 -187 262 -182.5 c 128,-1,30
 275 -178 275 -178 284 -169 c 1,31,-1
 288 -169 l 1,32,-1
 288 -193 l 1,33,34
 262 -246 262 -246 193 -246 c 0,35,36
 146 -246 146 -246 117.5 -220.5 c 128,-1,37
 89 -195 89 -195 89 -152 c 0,38,39
 89 -116 89 -116 112 -78.5 c 128,-1,40
 135 -41 135 -41 176 0 c 1,41,-1
 20 0 l 1,12,-1
EndSplineSet
Validated: 1
Substitution2: "'case' Case-Sensitive Forms lookup 61 subtable" Iogonek
Substitution2: "'smcp' Lowercase to Small Capitals lookup 60 subtable" iogonek.sc
Substitution2: "'c2sc' Capitals to Small Capitals lookup 59 subtable" iogonek.sc
MultipleSubs2: "Multiple Substitution lookup 4 subtable" idotless ogonekcomb
AlternateSubs2: "'aalt' Access All Alternates lookup 1 subtable" iogonek.sc Iogonek
EndChar

StartChar: idotless
Encoding: 305 305 412
Width: 354
GlyphClass: 2
Flags: W
AnchorPoint: "Anchor-3" 177 522 basechar 0
AnchorPoint: "Anchor-2" 213 0 basechar 0
AnchorPoint: "Anchor-0" 177 0 basechar 0
LayerCount: 2
Fore
SplineSet
20 0 m 1,0,-1
 20 16 l 1,1,-1
 91 49 l 1,2,-1
 91 365 l 1,3,-1
 24 409 l 1,4,-1
 24 425 l 1,5,-1
 259 481 l 1,6,-1
 275 481 l 1,7,-1
 275 49 l 1,8,-1
 334 16 l 1,9,-1
 334 0 l 1,10,-1
 20 0 l 1,0,-1
EndSplineSet
Validated: 1
Substitution2: "'case' Case-Sensitive Forms lookup 62 subtable" I
Substitution2: "'smcp' Lowercase to Small Capitals lookup 60 subtable" i.sc
AlternateSubs2: "'aalt' Access All Alternates lookup 1 subtable" i.sc I
EndChar

StartChar: jdotless
Encoding: 567 567 420
Width: 349
GlyphClass: 2
Flags: W
AnchorPoint: "Anchor-3" 167 522 basechar 0
AnchorPoint: "Anchor-0" 171 -227 basechar 0
LayerCount: 2
Fore
SplineSet
272 40 m 2,0,1
 272 -11 272 -11 261 -49 c 128,-1,2
 250 -87 250 -87 222.5 -117 c 128,-1,3
 195 -147 195 -147 146 -175.5 c 128,-1,4
 97 -204 97 -204 24 -236 c 1,5,-1
 24 -215 l 1,6,7
 54 -192 54 -192 67.5 -175.5 c 128,-1,8
 81 -159 81 -159 84.5 -139 c 128,-1,9
 88 -119 88 -119 88 -88 c 2,10,-1
 88 365 l 1,11,-1
 20 409 l 1,12,-1
 20 425 l 1,13,-1
 256 481 l 1,14,-1
 272 481 l 1,15,-1
 272 40 l 2,0,1
EndSplineSet
Validated: 1
EndChar

StartChar: kgreenlandic
Encoding: 312 312 422
Width: 647
GlyphClass: 1
Flags: W
LayerCount: 2
Fore
SplineSet
20 0 m 1,0,-1
 20 16 l 1,1,-1
 91 49 l 1,2,-1
 91 365 l 1,3,-1
 24 409 l 1,4,-1
 24 425 l 1,5,-1
 259 481 l 1,6,-1
 275 481 l 1,7,-1
 275 272 l 1,8,-1
 422 412 l 1,9,-1
 422 418 l 1,10,-1
 372 455 l 1,11,-1
 372 471 l 1,12,-1
 602 471 l 1,13,-1
 602 455 l 1,14,-1
 537 419 l 1,15,-1
 416 322 l 1,16,-1
 592 51 l 1,17,-1
 657 16 l 1,18,-1
 657 0 l 1,19,-1
 416 0 l 1,20,-1
 389 53 l 1,21,-1
 275 241 l 1,22,-1
 275 49 l 1,23,-1
 337 16 l 1,24,-1
 337 0 l 1,25,-1
 20 0 l 1,0,-1
EndSplineSet
Validated: 1
EndChar

StartChar: lslash
Encoding: 322 322 426
Width: 354
GlyphClass: 1
Flags: W
LayerCount: 2
Fore
SplineSet
20 0 m 1,0,-1
 20 16 l 1,1,-1
 91 49 l 1,2,-1
 91 292 l 1,3,-1
 20 252 l 1,4,-1
 20 311 l 1,5,-1
 91 351 l 1,6,-1
 91 651 l 1,7,-1
 24 695 l 1,8,-1
 24 712 l 1,9,-1
 259 768 l 1,10,-1
 275 768 l 1,11,-1
 275 441 l 1,12,-1
 346 481 l 1,13,-1
 346 422 l 1,14,-1
 275 381 l 1,15,-1
 275 49 l 1,16,-1
 334 16 l 1,17,-1
 334 0 l 1,18,-1
 20 0 l 1,0,-1
EndSplineSet
Validated: 1
Substitution2: "'case' Case-Sensitive Forms lookup 61 subtable" Lslash
Substitution2: "'smcp' Lowercase to Small Capitals lookup 60 subtable" lslash.sc
Substitution2: "'c2sc' Capitals to Small Capitals lookup 59 subtable" lslash.sc
AlternateSubs2: "'aalt' Access All Alternates lookup 1 subtable" lslash.sc Lslash
EndChar

StartChar: oogonek
Encoding: 491 491 447
Width: 565
GlyphClass: 1
Flags: W
LayerCount: 2
Fore
SplineSet
288 -246 m 0,0,1
 241 -246 241 -246 212.5 -220.5 c 128,-1,2
 184 -195 184 -195 184 -152 c 0,3,4
 184 -118 184 -118 204.5 -83 c 128,-1,5
 225 -48 225 -48 262 -9 c 1,6,7
 191 -5 191 -5 138 30 c 128,-1,8
 85 65 85 65 55.5 119 c 128,-1,9
 26 173 26 173 26 236 c 0,10,11
 26 303 26 303 58 358.5 c 128,-1,12
 90 414 90 414 148.5 447.5 c 128,-1,13
 207 481 207 481 283 481 c 0,14,15
 360 481 360 481 417.5 447.5 c 128,-1,16
 475 414 475 414 507.5 358 c 128,-1,17
 540 302 540 302 540 236 c 0,18,19
 540 175 540 175 511 121.5 c 128,-1,20
 482 68 482 68 430.5 32.5 c 128,-1,21
 379 -3 379 -3 309 -9 c 1,22,23
 295 -39 295 -39 286.5 -68.5 c 128,-1,24
 278 -98 278 -98 278 -128 c 0,25,26
 278 -187 278 -187 332 -187 c 0,27,28
 344 -187 344 -187 357.5 -182.5 c 128,-1,29
 371 -178 371 -178 379 -169 c 1,30,-1
 383 -169 l 1,31,-1
 383 -193 l 1,32,33
 358 -246 358 -246 288 -246 c 0,0,1
292 44 m 0,34,35
 315 44 315 44 328.5 67.5 c 128,-1,36
 342 91 342 91 348.5 130 c 128,-1,37
 355 169 355 169 355 215 c 0,38,39
 355 272 355 272 347 320.5 c 128,-1,40
 339 369 339 369 321.5 398.5 c 128,-1,41
 304 428 304 428 275 428 c 0,42,43
 252 428 252 428 237.5 405 c 128,-1,44
 223 382 223 382 216.5 343.5 c 128,-1,45
 210 305 210 305 210 257 c 0,46,47
 210 201 210 201 218.5 152 c 128,-1,48
 227 103 227 103 245 73.5 c 128,-1,49
 263 44 263 44 292 44 c 0,34,35
EndSplineSet
Validated: 1
Substitution2: "'case' Case-Sensitive Forms lookup 61 subtable" Oogonek
Substitution2: "'smcp' Lowercase to Small Capitals lookup 60 subtable" oogonek.sc
Substitution2: "'c2sc' Capitals to Small Capitals lookup 59 subtable" oogonek.sc
AlternateSubs2: "'aalt' Access All Alternates lookup 1 subtable" oogonek.sc Oogonek
EndChar

StartChar: oslash
Encoding: 248 248 463
Width: 565
GlyphClass: 2
Flags: W
AnchorPoint: "Anchor-3" 283 522 basechar 0
LayerCount: 2
Fore
SplineSet
26 -10 m 1,0,-1
 94 67 l 1,1,2
 61 100 61 100 43.5 143.5 c 128,-1,3
 26 187 26 187 26 236 c 0,4,5
 26 303 26 303 58 358.5 c 128,-1,6
 90 414 90 414 148.5 447.5 c 128,-1,7
 207 481 207 481 283 481 c 0,8,9
 325 481 325 481 362 470 c 128,-1,10
 399 459 399 459 429 439 c 1,11,-1
 467 481 l 1,12,-1
 540 481 l 1,13,-1
 471 406 l 1,14,15
 504 372 504 372 522 328 c 128,-1,16
 540 284 540 284 540 236 c 0,17,18
 540 170 540 170 507.5 114 c 128,-1,19
 475 58 475 58 417 24 c 128,-1,20
 359 -10 359 -10 283 -10 c 0,21,22
 241 -10 241 -10 203.5 1 c 128,-1,23
 166 12 166 12 136 32 c 1,24,-1
 98 -10 l 1,25,-1
 26 -10 l 1,0,-1
210 257 m 0,26,27
 210 226 210 226 212 198 c 1,28,-1
 343 343 l 1,29,30
 333 381 333 381 316.5 404.5 c 128,-1,31
 300 428 300 428 275 428 c 0,32,33
 252 428 252 428 237.5 405 c 128,-1,34
 223 382 223 382 216.5 343.5 c 128,-1,35
 210 305 210 305 210 257 c 0,26,27
292 44 m 0,36,37
 315 44 315 44 328.5 67.5 c 128,-1,38
 342 91 342 91 348.5 130 c 128,-1,39
 355 169 355 169 355 215 c 0,40,41
 355 246 355 246 353 273 c 1,42,-1
 223 129 l 1,43,44
 232 91 232 91 249 67.5 c 128,-1,45
 266 44 266 44 292 44 c 0,36,37
EndSplineSet
Validated: 1
Substitution2: "'case' Case-Sensitive Forms lookup 61 subtable" Oslash
Substitution2: "'smcp' Lowercase to Small Capitals lookup 60 subtable" oslash.sc
Substitution2: "'c2sc' Capitals to Small Capitals lookup 59 subtable" oslash.sc
AlternateSubs2: "'aalt' Access All Alternates lookup 1 subtable" oslash.sc Oslash
EndChar

StartChar: ohorn
Encoding: 417 417 465
Width: 565
GlyphClass: 2
Flags: W
AnchorPoint: "Anchor-3" 283 522 basechar 0
AnchorPoint: "Anchor-0" 283 0 basechar 0
LayerCount: 2
Fore
SplineSet
283 -10 m 0,0,1
 207 -10 207 -10 148.5 24 c 128,-1,2
 90 58 90 58 58 114 c 128,-1,3
 26 170 26 170 26 236 c 0,4,5
 26 303 26 303 58 358.5 c 128,-1,6
 90 414 90 414 148.5 447.5 c 128,-1,7
 207 481 207 481 283 481 c 0,8,9
 318 481 318 481 349 473.5 c 128,-1,10
 380 466 380 466 407 453 c 1,11,-1
 447 453 l 2,12,13
 493 453 493 453 517 464 c 1,14,-1
 517 556 l 1,15,-1
 578 556 l 2,16,17
 602 556 602 556 614.5 544 c 128,-1,18
 627 532 627 532 627 503 c 0,19,20
 627 462 627 462 596.5 437.5 c 128,-1,21
 566 413 566 413 497 413 c 2,22,-1
 464 413 l 1,23,24
 500 379 500 379 520 333 c 128,-1,25
 540 287 540 287 540 236 c 0,26,27
 540 170 540 170 507.5 114 c 128,-1,28
 475 58 475 58 417.5 24 c 128,-1,29
 360 -10 360 -10 283 -10 c 0,0,1
292 44 m 0,30,31
 315 44 315 44 328.5 67.5 c 128,-1,32
 342 91 342 91 348.5 130 c 128,-1,33
 355 169 355 169 355 215 c 0,34,35
 355 272 355 272 347 320.5 c 128,-1,36
 339 369 339 369 321.5 398.5 c 128,-1,37
 304 428 304 428 275 428 c 0,38,39
 252 428 252 428 237.5 405 c 128,-1,40
 223 382 223 382 216.5 343.5 c 128,-1,41
 210 305 210 305 210 257 c 0,42,43
 210 201 210 201 218.5 152 c 128,-1,44
 227 103 227 103 245 73.5 c 128,-1,45
 263 44 263 44 292 44 c 0,30,31
EndSplineSet
Validated: 1
Substitution2: "'case' Case-Sensitive Forms lookup 61 subtable" Ohorn
Substitution2: "'smcp' Lowercase to Small Capitals lookup 60 subtable" ohorn.sc
Substitution2: "'c2sc' Capitals to Small Capitals lookup 59 subtable" ohorn.sc
AlternateSubs2: "'aalt' Access All Alternates lookup 1 subtable" ohorn.sc Ohorn
EndChar

StartChar: oe
Encoding: 339 339 471
Width: 847
GlyphClass: 1
Flags: W
LayerCount: 2
Fore
SplineSet
283 -10 m 0,0,1
 207 -10 207 -10 148.5 24 c 128,-1,2
 90 58 90 58 58 114 c 128,-1,3
 26 170 26 170 26 236 c 0,4,5
 26 303 26 303 58 358.5 c 128,-1,6
 90 414 90 414 148.5 447.5 c 128,-1,7
 207 481 207 481 283 481 c 0,8,9
 335 481 335 481 379.5 465 c 128,-1,10
 424 449 424 449 457 419 c 1,11,12
 494 449 494 449 540 465 c 128,-1,13
 586 481 586 481 639 481 c 0,14,15
 724 481 724 481 769.5 426.5 c 128,-1,16
 815 372 815 372 816 273 c 1,17,-1
 813 268 l 1,18,-1
 540 268 l 1,19,20
 540 261 540 261 540 253 c 0,21,22
 540 195 540 195 576 158.5 c 128,-1,23
 612 122 612 122 687 122 c 0,24,25
 717 122 717 122 749.5 127 c 128,-1,26
 782 132 782 132 814 148 c 1,27,-1
 817 148 l 1,28,-1
 817 127 l 1,29,30
 791 68 791 68 734.5 29 c 128,-1,31
 678 -10 678 -10 600 -10 c 0,32,33
 502 -10 502 -10 439 40 c 1,34,35
 408 16 408 16 368.5 3 c 128,-1,36
 329 -10 329 -10 283 -10 c 0,0,1
610 435 m 0,37,38
 582 435 582 435 565 403.5 c 128,-1,39
 548 372 548 372 543 313 c 1,40,-1
 679 313 l 1,41,42
 674 384 674 384 656.5 409.5 c 128,-1,43
 639 435 639 435 610 435 c 0,37,38
292 44 m 0,44,45
 315 44 315 44 328.5 67.5 c 128,-1,46
 342 91 342 91 348.5 130 c 128,-1,47
 355 169 355 169 355 215 c 0,48,49
 355 272 355 272 347 320.5 c 128,-1,50
 339 369 339 369 321.5 398.5 c 128,-1,51
 304 428 304 428 275 428 c 0,52,53
 252 428 252 428 237.5 405 c 128,-1,54
 223 382 223 382 216.5 343.5 c 128,-1,55
 210 305 210 305 210 257 c 0,56,57
 210 201 210 201 218.5 152 c 128,-1,58
 227 103 227 103 245 73.5 c 128,-1,59
 263 44 263 44 292 44 c 0,44,45
EndSplineSet
Validated: 1
Substitution2: "'case' Case-Sensitive Forms lookup 61 subtable" OE
Substitution2: "'smcp' Lowercase to Small Capitals lookup 60 subtable" oe.sc
Substitution2: "'c2sc' Capitals to Small Capitals lookup 59 subtable" oe.sc
AlternateSubs2: "'aalt' Access All Alternates lookup 1 subtable" oe.sc OE
EndChar

StartChar: scedilla
Encoding: 351 351 482
Width: 451
GlyphClass: 1
Flags: W
LayerCount: 2
Fore
SplineSet
223 -246 m 0,0,1
 197 -246 197 -246 177.5 -241 c 128,-1,2
 158 -236 158 -236 141 -225 c 1,3,-1
 141 -202 l 1,4,-1
 145 -202 l 1,5,6
 156 -208 156 -208 171.5 -210.5 c 128,-1,7
 187 -213 187 -213 200 -213 c 0,8,9
 227 -213 227 -213 242 -203.5 c 128,-1,10
 257 -194 257 -194 257 -174 c 0,11,12
 257 -152 257 -152 237.5 -136 c 128,-1,13
 218 -120 218 -120 158 -105 c 1,14,-1
 201 -10 l 1,15,16
 154 -9 154 -9 117 1.5 c 128,-1,17
 80 12 80 12 46 29 c 1,18,-1
 46 150 l 1,19,-1
 62 150 l 1,20,-1
 100 97 l 2,21,22
 140 41 140 41 207 41 c 0,23,24
 282 41 282 41 282 89 c 0,25,26
 282 105 282 105 273 116.5 c 128,-1,27
 264 128 264 128 239 141 c 128,-1,28
 214 154 214 154 165 172 c 0,29,30
 104 196 104 196 77 229.5 c 128,-1,31
 50 263 50 263 50 307 c 0,32,33
 50 356 50 356 74 395.5 c 128,-1,34
 98 435 98 435 142 458 c 128,-1,35
 186 481 186 481 246 481 c 0,36,37
 279 481 279 481 313 475.5 c 128,-1,38
 347 470 347 470 379 453 c 1,39,-1
 379 325 l 1,40,-1
 362 325 l 1,41,-1
 332 369 l 2,42,43
 309 401 309 401 289.5 416 c 128,-1,44
 270 431 270 431 238 431 c 0,45,46
 209 431 209 431 192 417 c 128,-1,47
 175 403 175 403 175 378 c 0,48,49
 175 364 175 364 182 352 c 128,-1,50
 189 340 189 340 212.5 327.5 c 128,-1,51
 236 315 236 315 283 298 c 0,52,53
 312 288 312 288 340 273 c 128,-1,54
 368 258 368 258 387 230.5 c 128,-1,55
 406 203 406 203 406 155 c 0,56,57
 406 110 406 110 384 75 c 128,-1,58
 362 40 362 40 325.5 18.5 c 128,-1,59
 289 -3 289 -3 243 -8 c 1,60,-1
 230 -36 l 1,61,62
 289 -53 289 -53 312.5 -79.5 c 128,-1,63
 336 -106 336 -106 336 -146 c 0,64,65
 336 -190 336 -190 304.5 -218 c 128,-1,66
 273 -246 273 -246 223 -246 c 0,0,1
EndSplineSet
Validated: 1
Substitution2: "'case' Case-Sensitive Forms lookup 61 subtable" Scedilla
Substitution2: "'smcp' Lowercase to Small Capitals lookup 60 subtable" scedilla.sc
Substitution2: "'c2sc' Capitals to Small Capitals lookup 59 subtable" scedilla.sc
Substitution2: "'locl' Localized Forms in Latin lookup 14 subtable" scommaaccent
Substitution2: "'locl' Localized Forms in Latin lookup 11 subtable" scommaaccent
AlternateSubs2: "'aalt' Access All Alternates lookup 1 subtable" scommaaccent scedilla.sc Scedilla
EndChar

StartChar: germandbls
Encoding: 223 223 489
Width: 735
GlyphClass: 1
Flags: W
LayerCount: 2
Fore
SplineSet
32 0 m 1,0,-1
 32 16 l 1,1,-1
 96 49 l 1,2,-1
 96 423 l 1,3,-1
 16 423 l 1,4,-1
 16 471 l 1,5,-1
 96 471 l 1,6,-1
 96 492 l 2,7,8
 96 544 96 544 116 593 c 128,-1,9
 136 642 136 642 175 682 c 128,-1,10
 214 722 214 722 271 745 c 128,-1,11
 328 768 328 768 400 768 c 0,12,13
 478 768 478 768 526.5 749 c 128,-1,14
 575 730 575 730 598.5 699 c 128,-1,15
 622 668 622 668 622 630 c 0,16,17
 622 593 622 593 607 569.5 c 128,-1,18
 592 546 592 546 570 529 c 128,-1,19
 548 512 548 512 526 496.5 c 128,-1,20
 504 481 504 481 489 462 c 128,-1,21
 474 443 474 443 474 414 c 0,22,23
 474 386 474 386 493.5 367 c 128,-1,24
 513 348 513 348 544 332 c 128,-1,25
 575 316 575 316 608 295 c 0,26,27
 663 260 663 260 678.5 225.5 c 128,-1,28
 694 191 694 191 694 151 c 0,29,30
 694 104 694 104 667.5 67.5 c 128,-1,31
 641 31 641 31 597 10.5 c 128,-1,32
 553 -10 553 -10 499 -10 c 0,33,34
 447 -10 447 -10 410 0.5 c 128,-1,35
 373 11 373 11 337 29 c 1,36,-1
 337 150 l 1,37,-1
 353 150 l 1,38,-1
 391 97 l 2,39,40
 408 73 408 73 433.5 57 c 128,-1,41
 459 41 459 41 486 41 c 0,42,43
 518 41 518 41 536 58 c 128,-1,44
 554 75 554 75 554 100 c 0,45,46
 554 127 554 127 538.5 142.5 c 128,-1,47
 523 158 523 158 496.5 170.5 c 128,-1,48
 470 183 470 183 436 202 c 256,49,50
 402 221 402 221 379.5 250 c 128,-1,51
 357 279 357 279 357 330 c 0,52,53
 357 366 357 366 367.5 391 c 128,-1,54
 378 416 378 416 393.5 436 c 128,-1,55
 409 456 409 456 424.5 478 c 128,-1,56
 440 500 440 500 450.5 529.5 c 128,-1,57
 461 559 461 559 461 604 c 0,58,59
 461 652 461 652 442 684 c 128,-1,60
 423 716 423 716 381 716 c 0,61,62
 323 716 323 716 302 671.5 c 128,-1,63
 281 627 281 627 281 549 c 2,64,-1
 281 0 l 1,65,-1
 32 0 l 1,0,-1
EndSplineSet
Validated: 1
Substitution2: "'case' Case-Sensitive Forms lookup 62 subtable" Germandbls
Substitution2: "'smcp' Lowercase to Small Capitals lookup 60 subtable" germandbls.sc
AlternateSubs2: "'aalt' Access All Alternates lookup 1 subtable" germandbls.sc Germandbls
EndChar

StartChar: tbar
Encoding: 359 359 492
Width: 416
GlyphClass: 1
Flags: W
LayerCount: 2
Fore
SplineSet
236 -10 m 0,0,1
 162 -10 162 -10 117 16.5 c 128,-1,2
 72 43 72 43 72 91 c 2,3,-1
 72 246 l 1,4,-1
 5 246 l 1,5,-1
 5 298 l 1,6,-1
 72 298 l 1,7,-1
 72 426 l 1,8,-1
 5 426 l 1,9,-1
 5 445 l 1,10,-1
 104 471 l 1,11,-1
 226 584 l 1,12,-1
 256 584 l 1,13,-1
 256 471 l 1,14,-1
 401 471 l 1,15,-1
 401 426 l 1,16,-1
 256 426 l 1,17,-1
 256 298 l 1,18,-1
 391 298 l 1,19,-1
 391 246 l 1,20,-1
 256 246 l 1,21,-1
 256 123 l 2,22,23
 256 97 256 97 278 84.5 c 128,-1,24
 300 72 300 72 330 72 c 0,25,26
 348 72 348 72 362 74 c 128,-1,27
 376 76 376 76 391 79 c 1,28,-1
 394 77 l 1,29,-1
 394 54 l 1,30,31
 374 28 374 28 328.5 9 c 128,-1,32
 283 -10 283 -10 236 -10 c 0,0,1
EndSplineSet
Validated: 1
Substitution2: "'case' Case-Sensitive Forms lookup 61 subtable" Tbar
Substitution2: "'smcp' Lowercase to Small Capitals lookup 60 subtable" tbar.sc
Substitution2: "'c2sc' Capitals to Small Capitals lookup 59 subtable" tbar.sc
AlternateSubs2: "'aalt' Access All Alternates lookup 1 subtable" tbar.sc Tbar
EndChar

StartChar: tcedilla
Encoding: 355 355 493
Width: 416
GlyphClass: 1
Flags: W
LayerCount: 2
Fore
SplineSet
222 -246 m 0,0,1
 196 -246 196 -246 176.5 -241 c 128,-1,2
 157 -236 157 -236 140 -225 c 1,3,-1
 140 -202 l 1,4,-1
 144 -202 l 1,5,6
 155 -208 155 -208 170.5 -210.5 c 128,-1,7
 186 -213 186 -213 199 -213 c 0,8,9
 226 -213 226 -213 241 -203.5 c 128,-1,10
 256 -194 256 -194 256 -174 c 0,11,12
 256 -152 256 -152 236.5 -136 c 128,-1,13
 217 -120 217 -120 157 -105 c 1,14,-1
 201 -8 l 1,15,16
 142 -3 142 -3 107 23 c 128,-1,17
 72 49 72 49 72 91 c 2,18,-1
 72 426 l 1,19,-1
 5 426 l 1,20,-1
 5 445 l 1,21,-1
 104 471 l 1,22,-1
 226 584 l 1,23,-1
 256 584 l 1,24,-1
 256 471 l 1,25,-1
 401 471 l 1,26,-1
 401 426 l 1,27,-1
 256 426 l 1,28,-1
 256 123 l 2,29,30
 256 97 256 97 278 84.5 c 128,-1,31
 300 72 300 72 330 72 c 0,32,33
 348 72 348 72 362 74 c 128,-1,34
 376 76 376 76 391 79 c 1,35,-1
 394 77 l 1,36,-1
 394 54 l 1,37,38
 381 37 381 37 355.5 22 c 128,-1,39
 330 7 330 7 299.5 -1.5 c 128,-1,40
 269 -10 269 -10 241 -10 c 1,41,-1
 229 -36 l 1,42,43
 288 -53 288 -53 311.5 -79.5 c 128,-1,44
 335 -106 335 -106 335 -146 c 0,45,46
 335 -190 335 -190 303.5 -218 c 128,-1,47
 272 -246 272 -246 222 -246 c 0,0,1
EndSplineSet
Validated: 1
Substitution2: "'case' Case-Sensitive Forms lookup 61 subtable" Tcedilla
Substitution2: "'smcp' Lowercase to Small Capitals lookup 60 subtable" tcedilla.sc
Substitution2: "'c2sc' Capitals to Small Capitals lookup 59 subtable" tcedilla.sc
AlternateSubs2: "'aalt' Access All Alternates lookup 1 subtable" tcedilla.sc Tcedilla
EndChar

StartChar: uogonek
Encoding: 371 371 506
Width: 623
GlyphClass: 1
Flags: W
LayerCount: 2
Fore
SplineSet
218 -10 m 0,0,1
 156 -10 156 -10 116.5 22.5 c 128,-1,2
 77 55 77 55 77 120 c 2,3,-1
 77 422 l 1,4,-1
 6 455 l 1,5,-1
 6 471 l 1,6,-1
 261 471 l 1,7,-1
 261 158 l 2,8,9
 261 128 261 128 276.5 112 c 128,-1,10
 292 96 292 96 315 96 c 0,11,12
 328 96 328 96 343 102.5 c 128,-1,13
 358 109 358 109 371 117 c 1,14,-1
 371 422 l 1,15,-1
 315 455 l 1,16,-1
 315 471 l 1,17,-1
 555 471 l 1,18,-1
 555 49 l 1,19,-1
 613 16 l 1,20,-1
 613 0 l 1,21,-1
 480 0 l 1,22,23
 463 -33 463 -33 453 -64.5 c 128,-1,24
 443 -96 443 -96 443 -128 c 0,25,26
 443 -187 443 -187 498 -187 c 0,27,28
 510 -187 510 -187 523.5 -182.5 c 128,-1,29
 537 -178 537 -178 545 -169 c 1,30,-1
 549 -169 l 1,31,-1
 549 -193 l 1,32,33
 523 -246 523 -246 454 -246 c 0,34,35
 407 -246 407 -246 378.5 -220.5 c 128,-1,36
 350 -195 350 -195 350 -152 c 0,37,38
 350 -116 350 -116 373 -78.5 c 128,-1,39
 396 -41 396 -41 437 0 c 1,40,-1
 371 0 l 1,41,-1
 371 66 l 1,42,-1
 367 66 l 1,43,44
 333 32 333 32 300 11 c 128,-1,45
 267 -10 267 -10 218 -10 c 0,0,1
EndSplineSet
Validated: 1
Substitution2: "'case' Case-Sensitive Forms lookup 61 subtable" Uogonek
Substitution2: "'smcp' Lowercase to Small Capitals lookup 60 subtable" uogonek.sc
Substitution2: "'c2sc' Capitals to Small Capitals lookup 59 subtable" uogonek.sc
AlternateSubs2: "'aalt' Access All Alternates lookup 1 subtable" uogonek.sc Uogonek
EndChar

StartChar: uhorn
Encoding: 432 432 513
Width: 623
GlyphClass: 2
Flags: W
AnchorPoint: "Anchor-3" 316 522 basechar 0
AnchorPoint: "Anchor-0" 316 0 basechar 0
LayerCount: 2
Fore
SplineSet
218 -10 m 0,0,1
 156 -10 156 -10 116.5 22.5 c 128,-1,2
 77 55 77 55 77 120 c 2,3,-1
 77 422 l 1,4,-1
 6 455 l 1,5,-1
 6 471 l 1,6,-1
 261 471 l 1,7,-1
 261 158 l 2,8,9
 261 128 261 128 276.5 112 c 128,-1,10
 292 96 292 96 315 96 c 0,11,12
 328 96 328 96 343 102.5 c 128,-1,13
 358 109 358 109 371 117 c 1,14,-1
 371 422 l 1,15,-1
 315 455 l 1,16,-1
 315 471 l 1,17,-1
 555 471 l 1,18,-1
 555 453 l 1,19,-1
 579 453 l 2,20,21
 625 453 625 453 648 464 c 1,22,-1
 648 556 l 1,23,-1
 709 556 l 2,24,25
 758 556 758 556 758 503 c 0,26,27
 758 462 758 462 727.5 437.5 c 128,-1,28
 697 413 697 413 628 413 c 2,29,-1
 555 413 l 1,30,-1
 555 49 l 1,31,-1
 613 16 l 1,32,-1
 613 0 l 1,33,-1
 371 0 l 1,34,-1
 371 66 l 1,35,-1
 367 66 l 1,36,37
 333 32 333 32 300 11 c 128,-1,38
 267 -10 267 -10 218 -10 c 0,0,1
EndSplineSet
Validated: 1
Substitution2: "'case' Case-Sensitive Forms lookup 61 subtable" Uhorn
Substitution2: "'smcp' Lowercase to Small Capitals lookup 60 subtable" uhorn.sc
Substitution2: "'c2sc' Capitals to Small Capitals lookup 59 subtable" uhorn.sc
AlternateSubs2: "'aalt' Access All Alternates lookup 1 subtable" uhorn.sc Uhorn
EndChar

StartChar: schwa
Encoding: 601 601 536
Width: 515
GlyphClass: 1
Flags: W
LayerCount: 2
Fore
SplineSet
209 -9 m 0,0,1
 125 -9 125 -9 79.5 45.5 c 128,-1,2
 34 100 34 100 32 199 c 1,3,-1
 35 204 l 1,4,-1
 308 204 l 1,5,6
 308 211 308 211 308 219 c 0,7,8
 308 272 308 272 275 310 c 128,-1,9
 242 348 242 348 175 348 c 0,10,11
 145 348 145 348 105.5 338.5 c 128,-1,12
 66 329 66 329 34 308 c 1,13,-1
 31 308 l 1,14,-1
 31 352 l 1,15,16
 61 407 61 407 117 444.5 c 128,-1,17
 173 482 173 482 248 482 c 0,18,19
 358 482 358 482 421 420.5 c 128,-1,20
 484 359 484 359 484 258 c 0,21,22
 484 180 484 180 448 119.5 c 128,-1,23
 412 59 412 59 349.5 25 c 128,-1,24
 287 -9 287 -9 209 -9 c 0,0,1
238 37 m 0,25,26
 266 37 266 37 283 68.5 c 128,-1,27
 300 100 300 100 305 159 c 1,28,-1
 169 159 l 1,29,30
 174 88 174 88 191.5 62.5 c 128,-1,31
 209 37 209 37 238 37 c 0,25,26
EndSplineSet
Validated: 1
Substitution2: "'case' Case-Sensitive Forms lookup 61 subtable" Schwa
Substitution2: "'smcp' Lowercase to Small Capitals lookup 60 subtable" schwa.sc
Substitution2: "'c2sc' Capitals to Small Capitals lookup 59 subtable" schwa.sc
AlternateSubs2: "'aalt' Access All Alternates lookup 1 subtable" schwa.sc Schwa
EndChar

StartChar: eng
Encoding: 331 331 537
Width: 652
GlyphClass: 1
Flags: W
LayerCount: 2
Fore
SplineSet
20 0 m 1,0,-1
 20 16 l 1,1,-1
 91 49 l 1,2,-1
 91 365 l 1,3,-1
 24 398 l 1,4,-1
 24 415 l 1,5,-1
 249 481 l 1,6,-1
 265 481 l 1,7,-1
 274 406 l 1,8,-1
 280 406 l 1,9,10
 315 440 315 440 348 460.5 c 128,-1,11
 381 481 381 481 431 481 c 0,12,13
 494 481 494 481 534.5 448.5 c 128,-1,14
 575 416 575 416 575 351 c 2,15,-1
 575 40 l 2,16,17
 575 -20 575 -20 552.5 -71 c 128,-1,18
 530 -122 530 -122 476 -163 c 128,-1,19
 422 -204 422 -204 327 -236 c 1,20,-1
 327 -215 l 1,21,22
 359 -186 359 -186 372 -164.5 c 128,-1,23
 385 -143 385 -143 388 -114.5 c 128,-1,24
 391 -86 391 -86 391 -37 c 2,25,-1
 391 313 l 2,26,27
 391 343 391 343 375 359 c 128,-1,28
 359 375 359 375 334 375 c 0,29,30
 320 375 320 375 304 368.5 c 128,-1,31
 288 362 288 362 275 354 c 1,32,-1
 275 49 l 1,33,-1
 313 16 l 1,34,-1
 313 0 l 1,35,-1
 20 0 l 1,0,-1
EndSplineSet
Validated: 1
Substitution2: "'case' Case-Sensitive Forms lookup 61 subtable" Eng
Substitution2: "'smcp' Lowercase to Small Capitals lookup 60 subtable" eng.sc
Substitution2: "'c2sc' Capitals to Small Capitals lookup 59 subtable" eng.sc
AlternateSubs2: "'aalt' Access All Alternates lookup 1 subtable" eng.sc Eng
EndChar

StartChar: eth
Encoding: 240 240 538
Width: 570
GlyphClass: 1
Flags: W
LayerCount: 2
Fore
SplineSet
282 -10 m 0,0,1
 208 -10 208 -10 150 22 c 128,-1,2
 92 54 92 54 59 110 c 128,-1,3
 26 166 26 166 26 236 c 256,4,5
 26 306 26 306 58.5 361.5 c 128,-1,6
 91 417 91 417 147.5 449 c 128,-1,7
 204 481 204 481 273 481 c 0,8,9
 302 481 302 481 326 476 c 1,10,11
 302 544 302 544 258 593 c 1,12,-1
 194 536 l 1,13,-1
 116 536 l 1,14,-1
 221 630 l 1,15,16
 189 658 189 658 150 678.5 c 128,-1,17
 111 699 111 699 63 716 c 1,18,-1
 63 767 l 1,19,20
 123 755 123 755 178.5 734 c 128,-1,21
 234 713 234 713 283 684 c 1,22,-1
 367 759 l 1,23,-1
 444 759 l 1,24,-1
 328 655 l 1,25,26
 428 584 428 584 486.5 484 c 128,-1,27
 545 384 545 384 545 270 c 0,28,29
 545 184 545 184 510 121 c 128,-1,30
 475 58 475 58 416 24 c 128,-1,31
 357 -10 357 -10 282 -10 c 0,0,1
210 241 m 0,32,33
 210 144 210 144 230 94 c 128,-1,34
 250 44 250 44 285 44 c 0,35,36
 324 44 324 44 339.5 99 c 128,-1,37
 355 154 355 154 355 275 c 0,38,39
 355 331 355 331 348 380 c 1,40,41
 337 402 337 402 322 415 c 128,-1,42
 307 428 307 428 282 428 c 0,43,44
 253 428 253 428 237 404 c 128,-1,45
 221 380 221 380 215.5 337.5 c 128,-1,46
 210 295 210 295 210 241 c 0,32,33
EndSplineSet
Validated: 1
Substitution2: "'case' Case-Sensitive Forms lookup 61 subtable" Eth
Substitution2: "'smcp' Lowercase to Small Capitals lookup 60 subtable" eth.sc
Substitution2: "'c2sc' Capitals to Small Capitals lookup 59 subtable" eth.sc
AlternateSubs2: "'aalt' Access All Alternates lookup 1 subtable" eth.sc Eth
EndChar

StartChar: thorn
Encoding: 254 254 539
Width: 613
GlyphClass: 1
Flags: W
LayerCount: 2
Fore
SplineSet
20 -236 m 1,0,-1
 20 -219 l 1,1,-1
 91 -186 l 1,2,-1
 91 651 l 1,3,-1
 24 695 l 1,4,-1
 24 712 l 1,5,-1
 259 768 l 1,6,-1
 275 768 l 1,7,-1
 275 424 l 1,8,-1
 284 424 l 1,9,10
 320 454 320 454 353.5 467.5 c 128,-1,11
 387 481 387 481 425 481 c 0,12,13
 467 481 467 481 505.5 453.5 c 128,-1,14
 544 426 544 426 568.5 375 c 128,-1,15
 593 324 593 324 593 253 c 0,16,17
 593 173 593 173 559 113.5 c 128,-1,18
 525 54 525 54 470 22 c 128,-1,19
 415 -10 415 -10 351 -10 c 0,20,21
 331 -10 331 -10 312 -8 c 128,-1,22
 293 -6 293 -6 275 -2 c 1,23,-1
 275 -186 l 1,24,-1
 359 -219 l 1,25,-1
 359 -236 l 1,26,-1
 20 -236 l 1,0,-1
323 388 m 0,27,28
 309 388 309 388 299 384.5 c 128,-1,29
 289 381 289 381 275 374 c 1,30,-1
 275 73 l 1,31,32
 280 62 280 62 293 54 c 128,-1,33
 306 46 306 46 322 46 c 0,34,35
 341 46 341 46 361 60 c 128,-1,36
 381 74 381 74 395 112.5 c 128,-1,37
 409 151 409 151 409 225 c 0,38,39
 409 308 409 308 381 348 c 128,-1,40
 353 388 353 388 323 388 c 0,27,28
EndSplineSet
Validated: 1
Substitution2: "'case' Case-Sensitive Forms lookup 61 subtable" Thorn
Substitution2: "'smcp' Lowercase to Small Capitals lookup 60 subtable" thorn.sc
Substitution2: "'c2sc' Capitals to Small Capitals lookup 59 subtable" thorn.sc
AlternateSubs2: "'aalt' Access All Alternates lookup 1 subtable" thorn.sc Thorn
EndChar

StartChar: uni0431
Encoding: 1073 1073 544
Width: 565
GlyphClass: 1
Flags: W
LayerCount: 2
Fore
SplineSet
477 772 m 1,0,-1
 509 772 l 1,1,-1
 513 768 l 1,2,-1
 513 715 l 2,3,4
 513 647 513 647 471.5 607 c 128,-1,5
 430 567 430 567 352 567 c 0,6,7
 290 567 290 567 263 573.5 c 128,-1,8
 236 580 236 580 219 580 c 0,9,10
 191 580 191 580 191 546 c 0,11,12
 191 530 191 530 198 505 c 128,-1,13
 205 480 205 480 208 432 c 1,14,15
 227 445 227 445 254 453 c 128,-1,16
 281 461 281 461 313 461 c 0,17,18
 378 461 378 461 429 434.5 c 128,-1,19
 480 408 480 408 510 357.5 c 128,-1,20
 540 307 540 307 540 237 c 0,21,22
 540 164 540 164 505 108 c 128,-1,23
 470 52 470 52 411.5 21 c 128,-1,24
 353 -10 353 -10 284 -10 c 0,25,26
 198 -10 198 -10 140.5 28.5 c 128,-1,27
 83 67 83 67 54.5 131.5 c 128,-1,28
 26 196 26 196 26 272 c 0,29,30
 26 370 26 370 64.5 458.5 c 128,-1,31
 103 547 103 547 186 614.5 c 128,-1,32
 269 682 269 682 401 719 c 0,33,34
 448 732 448 732 462.5 744 c 128,-1,35
 477 756 477 756 477 772 c 1,0,-1
210 248 m 2,36,37
 210 143 210 143 232.5 93.5 c 128,-1,38
 255 44 255 44 292 44 c 0,39,40
 309 44 309 44 323.5 58.5 c 128,-1,41
 338 73 338 73 346.5 108 c 128,-1,42
 355 143 355 143 355 206 c 0,43,44
 355 303 355 303 335.5 355.5 c 128,-1,45
 316 408 316 408 274 408 c 0,46,47
 250 408 250 408 235 397.5 c 128,-1,48
 220 387 220 387 210 374 c 1,49,-1
 210 248 l 2,36,37
EndSplineSet
Validated: 1
Substitution2: "'smcp' Lowercase to Small Capitals lookup 60 subtable" uni0431.sc
Substitution2: "'c2sc' Capitals to Small Capitals lookup 59 subtable" uni0431.sc
Substitution2: "'ss05' Style Set 5 lookup 18 subtable" uni0431.locl
Substitution2: "'locl' Localized Forms in Cyrillic lookup 16 subtable" uni0431.locl
AlternateSubs2: "'aalt' Access All Alternates lookup 1 subtable" uni0431.locl uni0431.sc
EndChar

StartChar: uni0432
Encoding: 1074 1074 545
Width: 591
GlyphClass: 1
Flags: W
LayerCount: 2
Fore
SplineSet
91 422 m 1,0,-1
 20 455 l 1,1,-1
 20 471 l 1,2,-1
 319 471 l 2,3,4
 381 471 381 471 433 463 c 128,-1,5
 485 455 485 455 517 432 c 128,-1,6
 549 409 549 409 549 364 c 0,7,8
 549 315 549 315 504 289.5 c 128,-1,9
 459 264 459 264 387 255 c 1,10,11
 491 247 491 247 536.5 217 c 128,-1,12
 582 187 582 187 582 138 c 0,13,14
 582 69 582 69 510.5 34.5 c 128,-1,15
 439 0 439 0 311 0 c 2,16,-1
 20 0 l 1,17,-1
 20 16 l 1,18,-1
 91 49 l 1,19,-1
 91 422 l 1,0,-1
289 425 m 2,20,-1
 275 425 l 1,21,-1
 275 270 l 1,22,-1
 286 270 l 2,23,24
 328 270 328 270 349 289 c 128,-1,25
 370 308 370 308 370 349 c 0,26,27
 370 425 370 425 289 425 c 2,20,-1
285 229 m 2,28,-1
 275 229 l 1,29,-1
 275 46 l 1,30,-1
 281 46 l 2,31,32
 342 46 342 46 369.5 70 c 128,-1,33
 397 94 397 94 397 141 c 0,34,35
 397 182 397 182 370.5 205.5 c 128,-1,36
 344 229 344 229 285 229 c 2,28,-1
EndSplineSet
Validated: 1
Substitution2: "'smcp' Lowercase to Small Capitals lookup 60 subtable" uni0432.sc
Substitution2: "'c2sc' Capitals to Small Capitals lookup 59 subtable" uni0432.sc
Substitution2: "'ss06' Style Set 6 lookup 19 subtable" uni0432.bgr
Substitution2: "'locl' Localized Forms in Cyrillic lookup 17 subtable" uni0432.bgr
AlternateSubs2: "'aalt' Access All Alternates lookup 1 subtable" uni0432.bgr uni0432.sc
EndChar

StartChar: uni0433
Encoding: 1075 1075 546
Width: 486
GlyphClass: 2
Flags: W
AnchorPoint: "Anchor-3" 269 514 basechar 0
LayerCount: 2
Fore
SplineSet
91 422 m 1,0,-1
 20 455 l 1,1,-1
 20 471 l 1,2,-1
 476 471 l 1,3,-1
 476 296 l 1,4,-1
 455 296 l 1,5,-1
 380 420 l 1,6,-1
 275 420 l 1,7,-1
 275 49 l 1,8,-1
 365 16 l 1,9,-1
 365 0 l 1,10,-1
 20 0 l 1,11,-1
 20 16 l 1,12,-1
 91 49 l 1,13,-1
 91 422 l 1,0,-1
EndSplineSet
Validated: 1
Substitution2: "'smcp' Lowercase to Small Capitals lookup 60 subtable" uni0433.sc
Substitution2: "'c2sc' Capitals to Small Capitals lookup 59 subtable" uni0433.sc
Substitution2: "'ss06' Style Set 6 lookup 19 subtable" uni0433.bgr
Substitution2: "'ss05' Style Set 5 lookup 18 subtable" uni0433.locl
Substitution2: "'locl' Localized Forms in Cyrillic lookup 17 subtable" uni0433.bgr
Substitution2: "'locl' Localized Forms in Cyrillic lookup 16 subtable" uni0433.locl
AlternateSubs2: "'aalt' Access All Alternates lookup 1 subtable" uni0433.locl uni0433.bgr uni0433.sc
EndChar

StartChar: uni0493
Encoding: 1171 1171 548
Width: 486
GlyphClass: 1
Flags: W
LayerCount: 2
Fore
SplineSet
20 205 m 1,0,-1
 20 256 l 1,1,-1
 91 256 l 1,2,-1
 91 422 l 1,3,-1
 20 455 l 1,4,-1
 20 471 l 1,5,-1
 476 471 l 1,6,-1
 476 296 l 1,7,-1
 455 296 l 1,8,-1
 380 420 l 1,9,-1
 275 420 l 1,10,-1
 275 256 l 1,11,-1
 377 256 l 1,12,-1
 377 205 l 1,13,-1
 275 205 l 1,14,-1
 275 49 l 1,15,-1
 365 16 l 1,16,-1
 365 0 l 1,17,-1
 20 0 l 1,18,-1
 20 16 l 1,19,-1
 91 49 l 1,20,-1
 91 205 l 1,21,-1
 20 205 l 1,0,-1
EndSplineSet
Validated: 1
Substitution2: "'smcp' Lowercase to Small Capitals lookup 60 subtable" uni0493.sc
Substitution2: "'c2sc' Capitals to Small Capitals lookup 59 subtable" uni0493.sc
Substitution2: "'aalt' Access All Alternates lookup 0 subtable" uni0493.sc
EndChar

StartChar: uni0434
Encoding: 1076 1076 549
Width: 557
GlyphClass: 1
Flags: W
LayerCount: 2
Fore
SplineSet
67 51 m 1,0,1
 86 90 86 90 97.5 137.5 c 128,-1,2
 109 185 109 185 114.5 234.5 c 128,-1,3
 120 284 120 284 122 329 c 128,-1,4
 124 374 124 374 124 408 c 2,5,-1
 124 422 l 1,6,-1
 53 455 l 1,7,-1
 53 471 l 1,8,-1
 536 471 l 1,9,-1
 536 455 l 1,10,-1
 465 422 l 1,11,-1
 465 51 l 1,12,-1
 537 51 l 1,13,-1
 537 -134 l 1,14,-1
 515 -134 l 1,15,-1
 429 0 l 1,16,-1
 112 0 l 1,17,-1
 27 -134 l 1,18,-1
 5 -134 l 1,19,-1
 5 51 l 1,20,-1
 67 51 l 1,0,1
281 51 m 1,21,-1
 281 420 l 1,22,-1
 180 420 l 1,23,-1
 180 408 l 2,24,25
 180 362 180 362 176.5 298 c 128,-1,26
 173 234 173 234 162.5 169 c 128,-1,27
 152 104 152 104 129 51 c 1,28,-1
 281 51 l 1,21,-1
EndSplineSet
Validated: 1
Substitution2: "'smcp' Lowercase to Small Capitals lookup 60 subtable" uni0434.sc
Substitution2: "'c2sc' Capitals to Small Capitals lookup 59 subtable" uni0434.sc
Substitution2: "'ss06' Style Set 6 lookup 19 subtable" uni0434.bgr
Substitution2: "'ss05' Style Set 5 lookup 18 subtable" uni0434.locl
Substitution2: "'locl' Localized Forms in Cyrillic lookup 17 subtable" uni0434.bgr
Substitution2: "'locl' Localized Forms in Cyrillic lookup 16 subtable" uni0434.locl
AlternateSubs2: "'aalt' Access All Alternates lookup 1 subtable" uni0434.locl uni0434.bgr uni0434.sc
EndChar

StartChar: uni0436
Encoding: 1078 1078 552
Width: 901
GlyphClass: 1
Flags: W
LayerCount: 2
Fore
SplineSet
215 0 m 1,0,-1
 -10 0 l 1,1,-1
 -10 16 l 1,2,-1
 49 51 l 1,3,-1
 217 293 l 1,4,-1
 78 419 l 1,5,-1
 12 455 l 1,6,-1
 12 471 l 1,7,-1
 249 471 l 1,8,-1
 249 455 l 1,9,-1
 199 418 l 1,10,-1
 199 412 l 1,11,-1
 355 256 l 1,12,-1
 355 422 l 1,13,-1
 294 455 l 1,14,-1
 294 471 l 1,15,-1
 601 471 l 1,16,-1
 601 455 l 1,17,-1
 540 422 l 1,18,-1
 540 256 l 1,19,-1
 696 412 l 1,20,-1
 696 418 l 1,21,-1
 646 455 l 1,22,-1
 646 471 l 1,23,-1
 877 471 l 1,24,-1
 877 455 l 1,25,-1
 811 419 l 1,26,-1
 681 304 l 1,27,-1
 856 51 l 1,28,-1
 911 16 l 1,29,-1
 911 0 l 1,30,-1
 680 0 l 1,31,-1
 653 53 l 1,32,-1
 540 225 l 1,33,-1
 540 49 l 1,34,-1
 596 16 l 1,35,-1
 596 0 l 1,36,-1
 299 0 l 1,37,-1
 299 16 l 1,38,-1
 355 49 l 1,39,-1
 355 225 l 1,40,-1
 242 53 l 1,41,-1
 215 0 l 1,0,-1
EndSplineSet
Validated: 1
Substitution2: "'smcp' Lowercase to Small Capitals lookup 60 subtable" uni0436.sc
Substitution2: "'c2sc' Capitals to Small Capitals lookup 59 subtable" uni0436.sc
Substitution2: "'ss06' Style Set 6 lookup 19 subtable" uni0436.bgr
Substitution2: "'locl' Localized Forms in Cyrillic lookup 17 subtable" uni0436.bgr
AlternateSubs2: "'aalt' Access All Alternates lookup 1 subtable" uni0436.bgr uni0436.sc
EndChar

StartChar: uni0437
Encoding: 1079 1079 553
Width: 484
GlyphClass: 1
Flags: W
LayerCount: 2
Fore
SplineSet
205 43 m 0,0,1
 244 43 244 43 265.5 66 c 128,-1,2
 287 89 287 89 287 132 c 0,3,4
 287 180 287 180 260 202 c 128,-1,5
 233 224 233 224 184 224 c 2,6,-1
 134 224 l 1,7,-1
 134 275 l 1,8,-1
 184 275 l 2,9,10
 229 275 229 275 250.5 298 c 128,-1,11
 272 321 272 321 272 355 c 0,12,13
 272 388 272 388 256.5 409.5 c 128,-1,14
 241 431 241 431 202 431 c 0,15,16
 168 431 168 431 146.5 415.5 c 128,-1,17
 125 400 125 400 102 369 c 2,18,-1
 72 325 l 1,19,-1
 55 325 l 1,20,-1
 55 453 l 1,21,22
 88 467 88 467 136 474 c 128,-1,23
 184 481 184 481 231 481 c 0,24,25
 269 481 269 481 307.5 477 c 128,-1,26
 346 473 346 473 379 462.5 c 128,-1,27
 412 452 412 452 432 430.5 c 128,-1,28
 452 409 452 409 452 373 c 0,29,30
 452 321 452 321 405 292.5 c 128,-1,31
 358 264 358 264 286 254 c 1,32,33
 379 245 379 245 425 211.5 c 128,-1,34
 471 178 471 178 471 127 c 0,35,36
 471 55 471 55 403.5 22.5 c 128,-1,37
 336 -10 336 -10 223 -10 c 0,38,39
 157 -10 157 -10 117 0.5 c 128,-1,40
 77 11 77 11 41 29 c 1,41,-1
 41 150 l 1,42,-1
 62 150 l 1,43,-1
 81 123 l 2,44,45
 112 79 112 79 139.5 61 c 128,-1,46
 167 43 167 43 205 43 c 0,0,1
EndSplineSet
Validated: 1
Substitution2: "'smcp' Lowercase to Small Capitals lookup 60 subtable" uni0437.sc
Substitution2: "'c2sc' Capitals to Small Capitals lookup 59 subtable" uni0437.sc
Substitution2: "'ss06' Style Set 6 lookup 19 subtable" uni0437.bgr
Substitution2: "'locl' Localized Forms in Cyrillic lookup 17 subtable" uni0437.bgr
AlternateSubs2: "'aalt' Access All Alternates lookup 1 subtable" uni0437.bgr uni0437.sc
EndChar

StartChar: uni0438
Encoding: 1080 1080 554
Width: 676
GlyphClass: 2
Flags: W
AnchorPoint: "Anchor-3" 338 514 basechar 0
LayerCount: 2
Fore
SplineSet
91 422 m 1,0,-1
 20 455 l 1,1,-1
 20 471 l 1,2,-1
 313 471 l 1,3,-1
 313 455 l 1,4,-1
 275 422 l 1,5,-1
 275 181 l 1,6,-1
 401 384 l 1,7,-1
 401 422 l 1,8,-1
 364 455 l 1,9,-1
 364 471 l 1,10,-1
 656 471 l 1,11,-1
 656 455 l 1,12,-1
 586 422 l 1,13,-1
 586 49 l 1,14,-1
 656 16 l 1,15,-1
 656 0 l 1,16,-1
 364 0 l 1,17,-1
 364 16 l 1,18,-1
 401 49 l 1,19,-1
 401 297 l 1,20,-1
 275 94 l 1,21,-1
 275 49 l 1,22,-1
 313 16 l 1,23,-1
 313 0 l 1,24,-1
 20 0 l 1,25,-1
 20 16 l 1,26,-1
 91 49 l 1,27,-1
 91 422 l 1,0,-1
EndSplineSet
Validated: 1
Substitution2: "'smcp' Lowercase to Small Capitals lookup 60 subtable" uni0438.sc
Substitution2: "'c2sc' Capitals to Small Capitals lookup 59 subtable" uni0438.sc
Substitution2: "'ss06' Style Set 6 lookup 19 subtable" uni0438.bgr
Substitution2: "'locl' Localized Forms in Cyrillic lookup 17 subtable" uni0438.bgr
AlternateSubs2: "'aalt' Access All Alternates lookup 1 subtable" uni0438.bgr uni0438.sc
EndChar

StartChar: uni043A
Encoding: 1082 1082 557
Width: 647
GlyphClass: 2
Flags: W
AnchorPoint: "Anchor-3" 359 514 basechar 0
LayerCount: 2
Fore
SplineSet
416 0 m 1,0,-1
 389 53 l 1,1,-1
 275 225 l 1,2,-1
 275 49 l 1,3,-1
 337 16 l 1,4,-1
 337 0 l 1,5,-1
 20 0 l 1,6,-1
 20 16 l 1,7,-1
 91 49 l 1,8,-1
 91 422 l 1,9,-1
 20 455 l 1,10,-1
 20 471 l 1,11,-1
 337 471 l 1,12,-1
 337 455 l 1,13,-1
 275 422 l 1,14,-1
 275 256 l 1,15,-1
 442 412 l 1,16,-1
 442 418 l 1,17,-1
 392 455 l 1,18,-1
 392 471 l 1,19,-1
 623 471 l 1,20,-1
 623 455 l 1,21,-1
 557 419 l 1,22,-1
 419 301 l 1,23,-1
 592 51 l 1,24,-1
 657 16 l 1,25,-1
 657 0 l 1,26,-1
 416 0 l 1,0,-1
EndSplineSet
Validated: 1
Substitution2: "'smcp' Lowercase to Small Capitals lookup 60 subtable" uni043A.sc
Substitution2: "'c2sc' Capitals to Small Capitals lookup 59 subtable" uni043A.sc
Substitution2: "'ss06' Style Set 6 lookup 19 subtable" uni043A.bgr
Substitution2: "'locl' Localized Forms in Cyrillic lookup 17 subtable" uni043A.bgr
AlternateSubs2: "'aalt' Access All Alternates lookup 1 subtable" uni043A.bgr uni043A.sc
EndChar

StartChar: uni043B
Encoding: 1083 1083 559
Width: 574
GlyphClass: 1
Flags: W
LayerCount: 2
Fore
SplineSet
483 422 m 1,0,-1
 483 49 l 1,1,-1
 554 16 l 1,2,-1
 554 0 l 1,3,-1
 228 0 l 1,4,-1
 228 16 l 1,5,-1
 299 49 l 1,6,-1
 299 420 l 1,7,-1
 204 420 l 1,8,-1
 204 387 l 2,9,10
 204 251 204 251 192 171.5 c 128,-1,11
 180 92 180 92 159 54 c 256,12,13
 137 16 137 16 116 3 c 128,-1,14
 95 -10 95 -10 67 -10 c 256,15,16
 38 -10 38 -10 24 3 c 128,-1,17
 10 16 10 16 10 47 c 2,18,-1
 10 109 l 1,19,-1
 86 109 l 1,20,21
 120 141 120 141 133.5 204.5 c 128,-1,22
 147 268 147 268 147 387 c 2,23,-1
 147 422 l 1,24,-1
 77 455 l 1,25,-1
 77 471 l 1,26,-1
 554 471 l 1,27,-1
 554 455 l 1,28,-1
 483 422 l 1,0,-1
EndSplineSet
Validated: 1
Substitution2: "'smcp' Lowercase to Small Capitals lookup 60 subtable" uni043B.sc
Substitution2: "'c2sc' Capitals to Small Capitals lookup 59 subtable" uni043B.sc
Substitution2: "'ss06' Style Set 6 lookup 19 subtable" uni043B.bgr
Substitution2: "'locl' Localized Forms in Cyrillic lookup 17 subtable" uni043B.bgr
AlternateSubs2: "'aalt' Access All Alternates lookup 1 subtable" uni043B.bgr uni043B.sc
EndChar

StartChar: uni043C
Encoding: 1084 1084 560
Width: 782
GlyphClass: 1
Flags: W
LayerCount: 2
Fore
SplineSet
91 422 m 1,0,-1
 20 455 l 1,1,-1
 20 471 l 1,2,-1
 278 471 l 1,3,-1
 385 233 l 1,4,-1
 392 233 l 1,5,-1
 497 471 l 1,6,-1
 753 471 l 1,7,-1
 753 455 l 1,8,-1
 682 422 l 1,9,-1
 701 49 l 1,10,-1
 772 16 l 1,11,-1
 772 0 l 1,12,-1
 459 0 l 1,13,-1
 459 16 l 1,14,-1
 517 49 l 1,15,-1
 504 330 l 1,16,-1
 358 0 l 1,17,-1
 301 0 l 1,18,-1
 150 328 l 1,19,-1
 142 49 l 1,20,-1
 201 16 l 1,21,-1
 201 0 l 1,22,-1
 10 0 l 1,23,-1
 10 16 l 1,24,-1
 81 49 l 1,25,-1
 91 422 l 1,0,-1
EndSplineSet
Validated: 1
Substitution2: "'smcp' Lowercase to Small Capitals lookup 60 subtable" uni043C.sc
Substitution2: "'c2sc' Capitals to Small Capitals lookup 59 subtable" uni043C.sc
Substitution2: "'aalt' Access All Alternates lookup 0 subtable" uni043C.sc
EndChar

StartChar: uni043D
Encoding: 1085 1085 561
Width: 666
GlyphClass: 1
Flags: W
LayerCount: 2
Fore
SplineSet
91 422 m 1,0,-1
 20 455 l 1,1,-1
 20 471 l 1,2,-1
 313 471 l 1,3,-1
 313 455 l 1,4,-1
 275 422 l 1,5,-1
 275 275 l 1,6,-1
 391 275 l 1,7,-1
 391 422 l 1,8,-1
 353 455 l 1,9,-1
 353 471 l 1,10,-1
 646 471 l 1,11,-1
 646 455 l 1,12,-1
 575 422 l 1,13,-1
 575 49 l 1,14,-1
 646 16 l 1,15,-1
 646 0 l 1,16,-1
 353 0 l 1,17,-1
 353 16 l 1,18,-1
 391 49 l 1,19,-1
 391 224 l 1,20,-1
 275 224 l 1,21,-1
 275 49 l 1,22,-1
 313 16 l 1,23,-1
 313 0 l 1,24,-1
 20 0 l 1,25,-1
 20 16 l 1,26,-1
 91 49 l 1,27,-1
 91 422 l 1,0,-1
EndSplineSet
Validated: 1
Substitution2: "'smcp' Lowercase to Small Capitals lookup 60 subtable" uni043D.sc
Substitution2: "'c2sc' Capitals to Small Capitals lookup 59 subtable" uni043D.sc
Substitution2: "'ss06' Style Set 6 lookup 19 subtable" uni043D.bgr
Substitution2: "'locl' Localized Forms in Cyrillic lookup 17 subtable" uni043D.bgr
AlternateSubs2: "'aalt' Access All Alternates lookup 1 subtable" uni043D.bgr uni043D.sc
EndChar

StartChar: uni043F
Encoding: 1087 1087 563
Width: 656
GlyphClass: 1
Flags: W
LayerCount: 2
Fore
SplineSet
91 422 m 1,0,-1
 20 455 l 1,1,-1
 20 471 l 1,2,-1
 636 471 l 1,3,-1
 636 455 l 1,4,-1
 565 422 l 1,5,-1
 565 49 l 1,6,-1
 636 16 l 1,7,-1
 636 0 l 1,8,-1
 343 0 l 1,9,-1
 343 16 l 1,10,-1
 381 49 l 1,11,-1
 381 420 l 1,12,-1
 275 420 l 1,13,-1
 275 49 l 1,14,-1
 313 16 l 1,15,-1
 313 0 l 1,16,-1
 20 0 l 1,17,-1
 20 16 l 1,18,-1
 91 49 l 1,19,-1
 91 422 l 1,0,-1
EndSplineSet
Validated: 1
Substitution2: "'smcp' Lowercase to Small Capitals lookup 60 subtable" uni043F.sc
Substitution2: "'c2sc' Capitals to Small Capitals lookup 59 subtable" uni043F.sc
Substitution2: "'ss06' Style Set 6 lookup 19 subtable" uni043F.bgr
Substitution2: "'ss05' Style Set 5 lookup 18 subtable" uni043F.locl
Substitution2: "'locl' Localized Forms in Cyrillic lookup 17 subtable" uni043F.bgr
Substitution2: "'locl' Localized Forms in Cyrillic lookup 16 subtable" uni043F.locl
AlternateSubs2: "'aalt' Access All Alternates lookup 1 subtable" uni043F.locl uni043F.bgr uni043F.sc
EndChar

StartChar: uni0442
Encoding: 1090 1090 566
Width: 524
GlyphClass: 1
Flags: W
LayerCount: 2
Fore
SplineSet
10 296 m 1,0,-1
 10 471 l 1,1,-1
 514 471 l 1,2,-1
 514 296 l 1,3,-1
 493 296 l 1,4,-1
 418 420 l 1,5,-1
 354 420 l 1,6,-1
 354 49 l 1,7,-1
 443 16 l 1,8,-1
 443 0 l 1,9,-1
 81 0 l 1,10,-1
 81 16 l 1,11,-1
 170 49 l 1,12,-1
 170 420 l 1,13,-1
 106 420 l 1,14,-1
 32 296 l 1,15,-1
 10 296 l 1,0,-1
EndSplineSet
Validated: 1
Substitution2: "'smcp' Lowercase to Small Capitals lookup 60 subtable" uni0442.sc
Substitution2: "'c2sc' Capitals to Small Capitals lookup 59 subtable" uni0442.sc
Substitution2: "'ss06' Style Set 6 lookup 19 subtable" uni0442.bgr
Substitution2: "'ss05' Style Set 5 lookup 18 subtable" uni0442.locl
Substitution2: "'locl' Localized Forms in Cyrillic lookup 17 subtable" uni0442.bgr
Substitution2: "'locl' Localized Forms in Cyrillic lookup 16 subtable" uni0442.locl
AlternateSubs2: "'aalt' Access All Alternates lookup 1 subtable" uni0442.locl uni0442.bgr uni0442.sc
EndChar

StartChar: uni0444
Encoding: 1092 1092 570
Width: 794
GlyphClass: 1
Flags: W
LayerCount: 2
Fore
SplineSet
236 -236 m 1,0,-1
 236 -219 l 1,1,-1
 306 -186 l 1,2,-1
 306 -8 l 1,3,4
 224 0 224 0 160.5 31.5 c 128,-1,5
 97 63 97 63 61.5 113 c 128,-1,6
 26 163 26 163 26 225 c 0,7,8
 26 293 26 293 61.5 347 c 128,-1,9
 97 401 97 401 160.5 435.5 c 128,-1,10
 224 470 224 470 306 479 c 1,11,-1
 306 651 l 1,12,-1
 239 695 l 1,13,-1
 239 712 l 1,14,-1
 474 768 l 1,15,-1
 490 768 l 1,16,-1
 490 479 l 1,17,18
 572 471 572 471 634.5 439.5 c 128,-1,19
 697 408 697 408 733 358 c 128,-1,20
 769 308 769 308 769 246 c 0,21,22
 769 179 769 179 733 125 c 128,-1,23
 697 71 697 71 634.5 36 c 128,-1,24
 572 1 572 1 490 -7 c 1,25,-1
 490 -186 l 1,26,-1
 549 -219 l 1,27,-1
 549 -236 l 1,28,-1
 236 -236 l 1,0,-1
210 247 m 0,29,30
 210 171 210 171 234.5 119.5 c 128,-1,31
 259 68 259 68 306 48 c 1,32,-1
 306 428 l 1,33,34
 210 401 210 401 210 247 c 0,29,30
585 225 m 0,35,36
 585 301 585 301 561 352 c 128,-1,37
 537 403 537 403 490 423 c 1,38,-1
 490 44 l 1,39,40
 536 58 536 58 560.5 104.5 c 128,-1,41
 585 151 585 151 585 225 c 0,35,36
EndSplineSet
Validated: 1
Substitution2: "'smcp' Lowercase to Small Capitals lookup 60 subtable" uni0444.sc
Substitution2: "'c2sc' Capitals to Small Capitals lookup 59 subtable" uni0444.sc
Substitution2: "'aalt' Access All Alternates lookup 0 subtable" uni0444.sc
EndChar

StartChar: uni0446
Encoding: 1094 1094 572
Width: 657
GlyphClass: 1
Flags: W
LayerCount: 2
Fore
SplineSet
91 49 m 1,0,-1
 91 422 l 1,1,-1
 20 455 l 1,2,-1
 20 471 l 1,3,-1
 313 471 l 1,4,-1
 313 455 l 1,5,-1
 275 422 l 1,6,-1
 275 51 l 1,7,-1
 381 51 l 1,8,-1
 381 422 l 1,9,-1
 343 455 l 1,10,-1
 343 471 l 1,11,-1
 636 471 l 1,12,-1
 636 455 l 1,13,-1
 565 422 l 1,14,-1
 565 51 l 1,15,-1
 637 51 l 1,16,-1
 637 -134 l 1,17,-1
 615 -134 l 1,18,-1
 529 0 l 1,19,-1
 20 0 l 1,20,-1
 20 16 l 1,21,-1
 91 49 l 1,0,-1
EndSplineSet
Validated: 1
Substitution2: "'smcp' Lowercase to Small Capitals lookup 60 subtable" uni0446.sc
Substitution2: "'c2sc' Capitals to Small Capitals lookup 59 subtable" uni0446.sc
Substitution2: "'ss06' Style Set 6 lookup 19 subtable" uni0446.bgr
Substitution2: "'locl' Localized Forms in Cyrillic lookup 17 subtable" uni0446.bgr
AlternateSubs2: "'aalt' Access All Alternates lookup 1 subtable" uni0446.bgr uni0446.sc
EndChar

StartChar: uni0447
Encoding: 1095 1095 573
Width: 635
GlyphClass: 1
Flags: W
LayerCount: 2
Fore
SplineSet
71 359 m 2,0,-1
 71 422 l 1,1,-1
 10 455 l 1,2,-1
 10 471 l 1,3,-1
 293 471 l 1,4,-1
 293 455 l 1,5,-1
 255 422 l 1,6,-1
 255 323 l 2,7,8
 255 279 255 279 275.5 262 c 128,-1,9
 296 245 296 245 328 245 c 0,10,11
 345 245 345 245 360 248 c 1,12,-1
 360 422 l 1,13,-1
 323 455 l 1,14,-1
 323 471 l 1,15,-1
 615 471 l 1,16,-1
 615 455 l 1,17,-1
 545 422 l 1,18,-1
 545 49 l 1,19,-1
 615 16 l 1,20,-1
 615 0 l 1,21,-1
 282 0 l 1,22,-1
 282 16 l 1,23,-1
 360 49 l 1,24,-1
 360 203 l 1,25,26
 338 198 338 198 314.5 196 c 128,-1,27
 291 194 291 194 261 194 c 0,28,29
 164 194 164 194 117.5 230 c 128,-1,30
 71 266 71 266 71 359 c 2,0,-1
EndSplineSet
Validated: 1
Substitution2: "'smcp' Lowercase to Small Capitals lookup 60 subtable" uni0447.sc
Substitution2: "'c2sc' Capitals to Small Capitals lookup 59 subtable" uni0447.sc
Substitution2: "'ss06' Style Set 6 lookup 19 subtable" uni0447.bgr
Substitution2: "'locl' Localized Forms in Cyrillic lookup 17 subtable" uni0447.bgr
AlternateSubs2: "'aalt' Access All Alternates lookup 1 subtable" uni0447.bgr uni0447.sc
EndChar

StartChar: uni0448
Encoding: 1096 1096 574
Width: 980
GlyphClass: 1
Flags: W
LayerCount: 2
Fore
SplineSet
91 49 m 1,0,-1
 91 422 l 1,1,-1
 20 455 l 1,2,-1
 20 471 l 1,3,-1
 324 471 l 1,4,-1
 324 455 l 1,5,-1
 275 422 l 1,6,-1
 275 51 l 1,7,-1
 398 51 l 1,8,-1
 398 422 l 1,9,-1
 350 455 l 1,10,-1
 350 471 l 1,11,-1
 631 471 l 1,12,-1
 631 455 l 1,13,-1
 583 422 l 1,14,-1
 583 51 l 1,15,-1
 706 51 l 1,16,-1
 706 422 l 1,17,-1
 657 455 l 1,18,-1
 657 471 l 1,19,-1
 961 471 l 1,20,-1
 961 455 l 1,21,-1
 890 422 l 1,22,-1
 890 49 l 1,23,-1
 961 16 l 1,24,-1
 961 0 l 1,25,-1
 20 0 l 1,26,-1
 20 16 l 1,27,-1
 91 49 l 1,0,-1
EndSplineSet
Validated: 1
Substitution2: "'smcp' Lowercase to Small Capitals lookup 60 subtable" uni0448.sc
Substitution2: "'c2sc' Capitals to Small Capitals lookup 59 subtable" uni0448.sc
Substitution2: "'ss06' Style Set 6 lookup 19 subtable" uni0448.bgr
Substitution2: "'locl' Localized Forms in Cyrillic lookup 17 subtable" uni0448.bgr
AlternateSubs2: "'aalt' Access All Alternates lookup 1 subtable" uni0448.bgr uni0448.sc
EndChar

StartChar: uni0449
Encoding: 1097 1097 575
Width: 992
GlyphClass: 1
Flags: W
LayerCount: 2
Fore
SplineSet
91 49 m 1,0,-1
 91 422 l 1,1,-1
 20 455 l 1,2,-1
 20 471 l 1,3,-1
 324 471 l 1,4,-1
 324 455 l 1,5,-1
 275 422 l 1,6,-1
 275 51 l 1,7,-1
 398 51 l 1,8,-1
 398 422 l 1,9,-1
 350 455 l 1,10,-1
 350 471 l 1,11,-1
 631 471 l 1,12,-1
 631 455 l 1,13,-1
 583 422 l 1,14,-1
 583 51 l 1,15,-1
 706 51 l 1,16,-1
 706 422 l 1,17,-1
 657 455 l 1,18,-1
 657 471 l 1,19,-1
 961 471 l 1,20,-1
 961 455 l 1,21,-1
 890 422 l 1,22,-1
 890 51 l 1,23,-1
 962 51 l 1,24,-1
 962 -134 l 1,25,-1
 940 -134 l 1,26,-1
 854 0 l 1,27,-1
 20 0 l 1,28,-1
 20 16 l 1,29,-1
 91 49 l 1,0,-1
EndSplineSet
Validated: 1
Substitution2: "'smcp' Lowercase to Small Capitals lookup 60 subtable" uni0449.sc
Substitution2: "'c2sc' Capitals to Small Capitals lookup 59 subtable" uni0449.sc
Substitution2: "'ss06' Style Set 6 lookup 19 subtable" uni0449.bgr
Substitution2: "'locl' Localized Forms in Cyrillic lookup 17 subtable" uni0449.bgr
AlternateSubs2: "'aalt' Access All Alternates lookup 1 subtable" uni0449.bgr uni0449.sc
EndChar

StartChar: uni044A
Encoding: 1098 1098 576
Width: 643
GlyphClass: 1
Flags: W
LayerCount: 2
Fore
SplineSet
362 291 m 2,0,1
 490 291 490 291 561.5 257 c 128,-1,2
 633 223 633 223 633 157 c 0,3,4
 633 76 633 76 561.5 38 c 128,-1,5
 490 0 490 0 362 0 c 2,6,-1
 92 0 l 1,7,-1
 92 16 l 1,8,-1
 163 49 l 1,9,-1
 163 420 l 1,10,-1
 106 420 l 1,11,-1
 32 296 l 1,12,-1
 10 296 l 1,13,-1
 10 471 l 1,14,-1
 428 471 l 1,15,-1
 428 455 l 1,16,-1
 347 422 l 1,17,-1
 347 291 l 1,18,-1
 362 291 l 2,0,1
351 245 m 2,19,-1
 347 245 l 1,20,-1
 347 46 l 1,21,-1
 351 46 l 2,22,23
 397 46 397 46 423 71.5 c 128,-1,24
 449 97 449 97 449 145 c 0,25,26
 449 189 449 189 423 217 c 128,-1,27
 397 245 397 245 351 245 c 2,19,-1
EndSplineSet
Validated: 1
Substitution2: "'smcp' Lowercase to Small Capitals lookup 60 subtable" uni044A.sc
Substitution2: "'c2sc' Capitals to Small Capitals lookup 59 subtable" uni044A.sc
Substitution2: "'ss06' Style Set 6 lookup 19 subtable" uni044A.bgr
Substitution2: "'locl' Localized Forms in Cyrillic lookup 17 subtable" uni044A.bgr
AlternateSubs2: "'aalt' Access All Alternates lookup 1 subtable" uni044A.bgr uni044A.sc
EndChar

